<?xml version="1.0" encoding="UTF-8"?>
<!DOCTYPE svg PUBLIC "-//W3C//DTD SVG 1.1//EN" "http://www.w3.org/Graphics/SVG/1.1/DTD/svg11.dtd">
<!-- Creator: CorelDRAW 2018 (64-Bit) -->
<svg xmlns="http://www.w3.org/2000/svg" xml:space="preserve" width="34.6412mm" height="40mm" version="1.1" style="shape-rendering:geometricPrecision; text-rendering:geometricPrecision; image-rendering:optimizeQuality; fill-rule:evenodd; clip-rule:evenodd"
viewBox="0 0 512.07 591.29"
 xmlns:xlink="http://www.w3.org/1999/xlink">
 <defs>
  <style type="text/css">
   <![CDATA[
    .fil1 {fill:#005EEB}
    .fil0 {fill:#0854C1}
    .fil2 {fill:white}
   ]]>
  </style>
 </defs>
 <g id="图层_x0020_1">
  <metadata id="CorelCorpID_0Corel-Layer"/>
  <polygon class="fil0" points="338.9,152.12 421.77,199.96 421.77,295.64 421.77,391.33 477.23,423.35 477.23,295.64 477.23,167.94 366.63,104.08 335.02,85.83 279.7,117.94 "/>
  <polygon class="fil1" points="173.17,152.12 311.46,72.22 256.04,40.23 145.44,104.08 34.84,167.94 90.31,199.96 "/>
  <polygon class="fil0" points="90.31,295.64 90.31,199.96 34.84,167.94 34.84,295.64 34.84,423.35 145.44,487.2 179.68,506.98 235.4,475.1 235.03,474.89 173.17,439.17 90.31,391.33 "/>
  <polygon class="fil1" points="421.77,391.33 338.9,439.17 200.61,519.06 256.04,551.06 366.63,487.2 477.23,423.35 "/>
  <polygon class="fil0" points="282.47,430.05 282.47,168.92 265.31,158.37 265.31,439.96 "/>
  <polygon class="fil1" points="265.31,439.96 265.31,158.37 181.34,207.97 181.34,240.39 210.6,240.39 210.6,408.37 "/>
  <path class="fil2" d="M282.47 168.92l0 261.13 -17.16 9.91 -54.71 -31.58 0 -167.98 -29.26 0 0 -32.42 83.97 -49.6 17.16 10.55zm139.3 31.04l-82.87 -47.84 -59.2 -34.18 55.32 -32.11 31.62 18.26 110.6 63.85 0 127.71 0 127.71 -110.6 63.85 -110.6 63.85 -55.42 -32 138.29 -79.89 82.87 -47.84 0 -95.68 0 -95.68zm-248.59 239.21l61.86 35.72 0.37 0.21 -55.72 31.88 -34.24 -19.77 -110.6 -63.85 0 -127.71 0 -127.71 110.6 -63.85 110.6 -63.85 55.42 32 -138.29 79.89 -82.87 47.84 0 95.68 0 95.68 82.87 47.84zm332.03 -143.53l0 -143.86 -124.58 -71.93 -124.58 -71.93 -124.58 71.93 -124.58 71.93 0 143.86 0 143.86 124.58 71.93 124.58 71.93 124.58 -71.93 124.58 -71.93 0 -143.86z"/>
  <path class="fil1" d="M380.62 79.86l124.58 71.93 0 143.86 0 143.86 -124.58 71.93 -124.58 71.93 -124.58 -71.93 -124.58 -71.93 0 -143.86 0 -143.86 124.58 -71.93 124.58 -71.93 124.58 71.93zm131.45 215.79l0 -147.82 -128.02 -73.91 -128.02 -73.91 -128.02 73.91 -128.02 73.91 0 147.82 0 147.82 128.02 73.91 128.02 73.91 128.02 -73.91 128.02 -73.91 0 -147.82z"/>
 </g>
</svg>
