<?xml version="1.0" encoding="UTF-8"?>
<!DOCTYPE svg PUBLIC "-//W3C//DTD SVG 1.1//EN" "http://www.w3.org/Graphics/SVG/1.1/DTD/svg11.dtd">
<!-- Creator: CorelDRAW 2018 (64-Bit) -->
<svg xmlns="http://www.w3.org/2000/svg" xml:space="preserve" width="40mm" height="40mm" version="1.1" style="shape-rendering:geometricPrecision; text-rendering:geometricPrecision; image-rendering:optimizeQuality; fill-rule:evenodd; clip-rule:evenodd"
viewBox="0 0 842.11 842.11"
 xmlns:xlink="http://www.w3.org/1999/xlink">
 <defs>
  <style type="text/css">
   <![CDATA[
    .fil2 {fill:#67B279}
    .fil1 {fill:#68BC71}
    .fil0 {fill:white}
   ]]>
  </style>
 </defs>
 <g id="图层_x0020_1">
  <metadata id="CorelCorpID_0Corel-Layer"/>
  <g id="_2103187309856">
   <g id="logo">
    <path class="fil0" d="M210.52 0l421.05 0c116.25,-0 210.53,94.27 210.53,210.52l-0 421.05c0,116.25 -94.27,210.52 -210.52,210.52l-421.05 0c-116.25,0 -210.52,-94.28 -210.52,-210.53l0 -421.05c0,-116.25 94.28,-210.53 210.53,-210.53z"/>
    <g id="Group-10">
     <g id="Group-9">
      <g id="Group-8">
       <g id="Group-7">
        <path id="Path" class="fil1" d="M423.39 126.32c-92.86,0 -204.87,21.83 -297.07,69.9 0,103.8 -1.27,362.4 297.07,539.1 298.35,-176.69 297.09,-435.3 297.09,-539.1 -92.22,-48.06 -204.23,-69.9 -297.09,-69.9l0 0z"/>
        <path id="Combined-Shape" class="fil2" d="M423.08 735.14c-298.04,-176.69 -296.77,-435.15 -296.77,-538.92 92.11,-48.01 203.97,-69.85 296.77,-69.9l0 608.82z"/>
       </g>
       <path id="Fill-11" class="fil0" d="M412.55 532.66l179.65 -242.12c-13.17,-10.55 -24.71,-3.1 -31.07,2.66l-0.23 0.02 -149.79 155.82 -56.44 -67.92c-26.92,-31.11 -63.52,-7.38 -72.08,-1.11l129.96 152.65z"/>
      </g>
     </g>
    </g>
   </g>
  </g>
 </g>
</svg>
