<?xml version="1.0" encoding="UTF-8"?>
<!DOCTYPE svg PUBLIC "-//W3C//DTD SVG 1.1//EN" "http://www.w3.org/Graphics/SVG/1.1/DTD/svg11.dtd">
<!-- Creator: CorelDRAW 2018 (64-Bit) -->
<svg xmlns="http://www.w3.org/2000/svg" xml:space="preserve" width="40mm" height="35.2147mm" version="1.1" style="shape-rendering:geometricPrecision; text-rendering:geometricPrecision; image-rendering:optimizeQuality; fill-rule:evenodd; clip-rule:evenodd"
viewBox="0 0 842.11 741.36"
 xmlns:xlink="http://www.w3.org/1999/xlink">
 <defs>
  <style type="text/css">
   <![CDATA[
    .fil1 {fill:#1BA0D8}
    .fil0 {fill:#70C6BE}
   ]]>
  </style>
 </defs>
 <g id="图层_x0020_1">
  <metadata id="CorelCorpID_0Corel-Layer"/>
  <g id="_2080393799280">
   <path id="svg_2" class="fil0" d="M428.47 0.26c8.88,-1.02 18.12,0.97 25.54,6.04 11.18,7.22 19.09,18.24 25.77,29.52 30.32,50.82 60.85,101.54 91.16,152.37 40.36,67.98 80.73,135.95 120.98,204 27.85,47.07 55.77,94.1 83.81,141.07 18.47,31.37 37.51,62.41 55.16,94.25 7.61,13.33 11.78,28.72 11.16,44.1 -0.44,11.89 -2.6,24.12 -8.85,34.43 -8.76,14.54 -23.45,24.8 -39.38,30.15 -8.49,3.05 -17.41,5.13 -26.47,5.15 -98.85,-0.04 -197.71,0.03 -296.56,0.02 -8.5,-0.22 -17.15,-1.2 -25.13,-4.27 -5.83,-2.49 -11.58,-5.55 -16.14,-10.03 -7.79,-7.71 -12.84,-18.65 -11.49,-29.76 0.7,-7.76 2.6,-15.42 5.8,-22.53 3.1,-7.3 7.46,-13.95 11.25,-20.9 16.53,-29.49 33.85,-58.53 51.86,-87.15 5.77,-9 10.79,-18.73 18.77,-26.05 8.48,-7.76 19.13,-13.85 30.79,-14.64 9.38,-0.39 18.6,2.85 26.41,7.88 8.81,5.17 15.76,13.77 18.08,23.82 3.36,12.71 -0.25,26.06 -5.64,37.67 -6.04,13.19 -14.66,25.15 -19.28,38.98 -0.84,3.15 -1.99,7.11 0.36,9.88 2.38,2.24 5.69,3.12 8.79,3.9 8.97,2 18.21,1.48 27.34,1.54 33.62,-0.01 67.24,0 100.86,0 6.66,-0.11 13.32,0.23 19.98,-0.16 4.8,-0.55 10.04,-1.34 13.78,-4.69 2.47,-2.18 2.77,-5.87 1.84,-8.85 -2.05,-6.62 -5.57,-12.65 -9.05,-18.59 -89.64,-153.09 -178.79,-306.47 -269.37,-459.01 -2.96,-4.9 -5.5,-10.22 -9.73,-14.18 -2.09,-2.01 -5.19,-3.15 -8.05,-2.32 -2.43,0.87 -4.07,3.01 -5.69,4.91 -3.99,5.09 -7.56,10.5 -10.84,16.08 -15.61,25.36 -30.54,51.13 -45.83,76.68 -88.08,148.24 -176.18,296.48 -264.25,444.73 -5.46,10.05 -11.27,19.92 -17.61,29.46 -5.56,8.19 -12.32,15.86 -21.02,20.79 -10.26,5.93 -22.93,8.29 -34.43,4.89 -8.39,-2.59 -16.5,-6.81 -22.51,-13.33 -7.61,-7.53 -10.97,-18.55 -10.59,-29.09 0.39,-11.1 4.1,-21.92 9.7,-31.45 53.48,-90.84 107.3,-181.48 161.32,-272.01 27.79,-46.92 55.46,-93.9 83.4,-140.72 28.27,-47.44 56.61,-94.84 84.75,-142.35 15.71,-26.76 31.52,-53.46 48.02,-79.74 5.07,-8.33 11.64,-15.8 19.54,-21.55 6.49,-4.42 13.76,-8.22 21.7,-8.92l0 0z"/>
   <path id="svg_3" class="fil1" d="M423.97 351.39c13.32,-2.14 27.43,1.04 38.48,8.8 8.38,6.47 14.2,16.17 15.88,26.63 1.14,7.98 0.37,16.25 -2.57,23.79 -2.25,6.52 -5.49,12.66 -9.09,18.54 -51.37,86.35 -102.73,172.7 -154.1,259.05 -6.57,10.81 -12.57,22.02 -20.14,32.18 -5.51,6.81 -12.39,12.59 -20.33,16.35 -16.79,8.94 -38.69,3.49 -51.46,-9.96 -6.47,-6.49 -10.27,-15.41 -10.76,-24.53 -0.73,-9.44 1.35,-18.99 5.63,-27.41 3.76,-8.19 8.2,-16.03 12.84,-23.74 22.58,-37.98 44.95,-76.08 67.46,-114.1 30.81,-52.28 62.13,-104.26 93.13,-156.42 3.29,-5.93 7.4,-11.4 12.02,-16.36 6.22,-6.32 14.12,-11.43 23.01,-12.82l0 0z"/>
  </g>
 </g>
</svg>
