<?xml version="1.0" encoding="UTF-8"?>
<!DOCTYPE svg PUBLIC "-//W3C//DTD SVG 1.1//EN" "http://www.w3.org/Graphics/SVG/1.1/DTD/svg11.dtd">
<!-- Creator: CorelDRAW 2018 (64-Bit) -->
<svg xmlns="http://www.w3.org/2000/svg" xml:space="preserve" width="40.0001mm" height="28.4935mm" version="1.1" style="shape-rendering:geometricPrecision; text-rendering:geometricPrecision; image-rendering:optimizeQuality; fill-rule:evenodd; clip-rule:evenodd"
viewBox="0 0 1777.79 1266.38"
 xmlns:xlink="http://www.w3.org/1999/xlink">
 <defs>
  <style type="text/css">
   <![CDATA[
    .fil2 {fill:black}
    .fil0 {fill:#D1A41A}
    .fil1 {fill:#FFDC76}
   ]]>
  </style>
 </defs>
 <g id="图层_x0020_1">
  <metadata id="CorelCorpID_0Corel-Layer"/>
  <g id="apache_tomcat.svg">
   <path class="fil0" d="M300.63 832.64c20.44,25.19 43.15,50.74 68.15,76.67 -72.52,21.85 -120.82,62.52 -150.52,98.71 -47.08,56.81 -71.78,131.85 -66.3,196.08l-125.6 0c25.15,-54.56 125.67,-211.96 273.41,-371.45l0.85 0zm1451.87 407.33l-152.6 0c-349.3,-182.26 -656.52,-310.67 -980.3,-338.97 0.67,-45.37 8.74,-96.67 24.3,-153.96l-30.04 -8.07c-15.93,58.81 -24.3,111.85 -25.26,159.48 -33.83,-2.28 -68.11,-3.41 -102.2,-3.41 -0.19,0 -0.56,0 -0.75,0 -29.19,0 -55.85,2.71 -80.08,7.41 -28.76,-28.51 -56.06,-58.97 -81.4,-90.48 150.52,-156.71 397.67,-298.26 613.75,-351.41 60.7,201.6 191.26,339.67 349.33,432.86 11.6,-6.6 23,-13.52 34.19,-20.82l276.15 296.85 12.07 -1.04c75.26,-6.48 118.08,34.37 129.82,47.07 8.33,9.26 13.33,17.78 16.08,24.45l-3.06 0.04z"/>
   <path class="fil1" d="M1614.42 244.45c5.59,274.08 -133.93,492.22 -330.01,604.08 -332.08,-165.71 -394.89,-584.74 -338.3,-807.75 15.74,86.3 44.41,140.15 106.3,166.37 134.67,-38.6 320.37,-41.63 457.04,-3.93 56.96,-41.4 79.41,-104.92 91.15,-160.15 15.04,64.33 13.33,203.67 13.41,203.67l0.41 -2.29z"/>
   <path class="fil2" d="M834.3 653.15l-151.89 -102.18 96.67 -46.93 55.22 149.11zm-145 13.82l-115.3 -61.48 60.07 -35.89 55.23 97.37zm-153.26 69.04l-78.7 -55.26 52.48 -34.52 26.22 89.78zm767.67 234.71l82.89 -41.41 -34.52 -34.52 -48.37 75.93zm41.48 69.04l110.45 -27.59 -27.63 -27.63 -82.82 55.22zm-55.26 -745.6l41.41 -129.78 -96.67 2.07 55.26 127.71zm-255.45 107l-82.85 5.56 -13.78 -54.56 96.63 49zm-13.82 73.19l-48.29 13.11 -6.93 -35.89 55.22 22.78zm524.71 -54.52l62.11 9.63 13.82 -41.41 -75.93 31.78zm-13.81 76.63l48.33 17.26 6.89 -33.85 -55.22 16.59zm-621.34 124.26l180.89 0 0 22.37 -180.89 0 0 -22.37zm0 -53.85l180.89 0 0 22.37 -180.89 0 0 -22.37zm552.3 53.85l180.89 0 0 22.37 -180.89 0 0 -22.37zm0 -53.85l180.89 0 0 22.37 -180.89 0 0 -22.37z"/>
   <path class="fil2" d="M1400.38 434.3l-295.49 0 0 -20.15 91.85 0c11.3,-48.48 13.52,-94.6 -0.11,-118.08 -4.62,-9 -13.89,-14.66 -24.01,-14.66 -0.44,0 -0.88,0.01 -1.32,0.04 -52.56,0 -74.56,55.56 -75.26,57.92l-18.82 -7.04c1.08,-2.93 27.33,-71.11 93.89,-71.11 18.56,0 33.33,8.52 42.74,24.63 16.63,28.6 14.71,78 3.41,128.41l161.52 0c21.41,-62.96 66.15,-92.52 140.85,-92.52l0 20.19c-80.74,0 -103.56,34.3 -120.12,72.48l87.67 0 -0.22 20 -86.59 -0.12z"/>
   <path class="fil2" d="M1414.19 533.71l0.15 0c-23.89,-35.22 -31.41,-65.33 -21.48,-99.44l-20.52 0.11c-7.15,22.78 -4.26,57.11 13.33,86.3l-205.04 0c13.52,-27.56 24.41,-56.66 32.43,-86.3l-20.84 0c-9.29,33.08 -22.37,65.74 -37.04,91.85l-4.81 8.33 115.33 72.48 -64.78 42.67 11.11 16.85 72.52 -47.7 78 50.92 10.7 -17.04 -72.48 -44.82c0,0 108.37,-70.41 113.89,-73.85l-0.08 -0.15 -0.41 -0.22zm-364.04 47.78l-84.89 -53.48 166.37 0 -81.48 53.48z"/>
   <path class="fil2" d="M1639.94 224.12c-0.11,-34.85 -10.93,-182.23 -30.74,-222.78 -53.78,20.56 -151.74,87.33 -173.6,155.41 -105.92,-15.96 -225.56,-14.08 -330.82,4.19 -17.48,-73.6 -105.26,-129.26 -171.56,-160.93 -27.92,47.52 -40.37,157.48 -37.15,235.85l-0.37 0.26c12.3,328 172.23,532.22 381.37,655.97 215.3,-123.74 369.08,-365.12 362.93,-667.67l0.26 0.15 -0.33 -0.44zm-179.04 -63.26l2.33 0.44c-0.75,-0.16 -1.59,-0.33 -2.35,-0.45l0.01 0zm-11.08 -1.89l5.67 0.96 -5.67 -0.96zm159.26 89.41c5.56,272.97 -132.6,490.26 -326.71,601.67 -328.74,-165.04 -390.97,-582.41 -334.89,-804.53 15.56,85.92 43.85,139.59 105.23,165.7 133.29,-38.44 317.15,-41.48 452.49,-3.89 56.37,-41.26 78.59,-104.52 90.22,-159.56 14.89,64.08 13.18,202.85 13.26,202.85l0.41 -2.26z"/>
   <path class="fil2" d="M1749.31 1191.6c-33.78,-38.04 -99.78,-56 -155.15,-54.67 -39.26,-46.96 -266.56,-288.15 -266.56,-288.15l-15.78 20 274.74 297.04 11.89 -1.04c74.52,-6.44 116.89,34.22 128.52,46.89 8.19,9.26 13.19,17.74 15.92,24.33l-151.08 0c-345.81,-181.52 -649.97,-309.41 -970.53,-337.63 0.74,-45.19 8.71,-96.26 24.08,-153.33l-29.67 -8.11c-15.78,58.59 -24.08,111.4 -25,158.85 -33.71,-2.29 -67.85,-3.41 -101.8,-3.41 -28.96,0 -55.37,2.71 -79.26,7.41 -28.36,-28.28 -55.65,-58.74 -80.69,-90.11 149.67,-156.74 397.08,-299.08 611.71,-351.34l-6.96 -30.26c-231.04,56.04 -483.93,208.33 -624.71,356.19 -65.33,-88.7 -91.59,-161.59 -99.11,-216.63 -9.7,-69.44 6.82,-133.37 47.85,-184.96 64.26,-80.44 155.15,-85.92 249.45,-70.11 -1.81,14.92 0.15,29.15 6.08,37.92 24.81,36.89 157.89,49.85 237.85,14.11 -58.78,-82.52 -177.71,-123.07 -210.52,-107.26 -10.92,5.37 -19.15,15.19 -24.81,26.74 -32.45,-5.85 -64.67,-10.19 -88.15,-10.04 -82.7,0.59 -146.3,29.7 -193.44,88.7 -46.48,58.11 -65.26,129.96 -54.33,208.33 10.37,74.26 46.89,153.33 108,235.19 -9.81,10.52 -20.09,21.59 -29.58,32.4 -148.88,167.87 -258.26,348.72 -258.26,378.24l0 15.52 196.85 0 -3.48 -18.37c-11.11,-59.15 11.11,-133.41 56.6,-188.41 28.59,-34.67 75.89,-74.26 150.37,-92.81 66.04,64.81 150.37,133.37 244.01,200.08l146.3 0 0 -15.44c0,-17.48 -8.63,-32.74 -24.22,-43.08 -23.12,-15.19 -58.78,-17.33 -91.6,-6.04 -31.22,-35 -48.78,-81.85 -52.56,-139.6 317.82,28.33 621.26,157.44 963.71,337.63l188.63 0 2.44 -12.44c3.56,-17.78 -6.04,-41.48 -25.63,-63.48l-2.11 1.15zm-1524.12 -184.33c-46.63,56.59 -71.11,131.33 -65.63,195.3l-124.41 0c24.96,-54.26 124.41,-211.11 270.67,-369.97 20.22,25.18 42.7,50.56 67.44,76.33 -71.74,21.81 -119.6,62.3 -148.96,98.33l0.89 0z"/>
  </g>
 </g>
</svg>
