<?xml version="1.0" encoding="UTF-8"?>
<!DOCTYPE svg PUBLIC "-//W3C//DTD SVG 1.1//EN" "http://www.w3.org/Graphics/SVG/1.1/DTD/svg11.dtd">
<!-- Creator: CorelDRAW 2018 (64-Bit) -->
<svg xmlns="http://www.w3.org/2000/svg" xml:space="preserve" width="40mm" height="27.3508mm" version="1.1" style="shape-rendering:geometricPrecision; text-rendering:geometricPrecision; image-rendering:optimizeQuality; fill-rule:evenodd; clip-rule:evenodd"
viewBox="0 0 1777.78 1215.59"
 xmlns:xlink="http://www.w3.org/1999/xlink">
 <defs>
  <style type="text/css">
   <![CDATA[
    .fil1 {fill:#0067C2;fill-opacity:0.949020}
    .fil0 {fill:#4CE7FF;fill-opacity:0.949020}
   ]]>
  </style>
 </defs>
 <g id="图层_x0020_1">
  <metadata id="CorelCorpID_0Corel-Layer"/>
  <g id="casaos.svg">
   <path class="fil0" d="M444.44 1213.68c245.46,0 444.44,-198.98 444.44,-444.44 0,-245.46 -198.98,-444.44 -444.44,-444.44 -245.46,0 -444.44,198.98 -444.44,444.44 0,245.46 198.99,444.44 444.44,444.44z"/>
   <path class="fil1" d="M888.89 1215.59c335.68,0 607.79,-272.12 607.79,-607.79 0,-335.68 -272.12,-607.8 -607.79,-607.8 -335.68,0 -607.79,272.12 -607.79,607.8 0,335.68 272.12,607.79 607.79,607.79z"/>
   <path class="fil0" d="M1333.33 1213.68c245.46,0 444.44,-198.98 444.44,-444.44 0,-245.46 -198.99,-444.44 -444.44,-444.44 -245.46,0 -444.44,198.98 -444.44,444.44 0,245.46 198.98,444.44 444.44,444.44z"/>
  </g>
 </g>
</svg>
