<?xml version="1.0" encoding="UTF-8"?>
<!DOCTYPE svg PUBLIC "-//W3C//DTD SVG 1.1//EN" "http://www.w3.org/Graphics/SVG/1.1/DTD/svg11.dtd">
<!-- Creator: CorelDRAW 2018 (64-Bit) -->
<svg xmlns="http://www.w3.org/2000/svg" xml:space="preserve" width="40mm" height="40.3772mm" version="1.1" style="shape-rendering:geometricPrecision; text-rendering:geometricPrecision; image-rendering:optimizeQuality; fill-rule:evenodd; clip-rule:evenodd"
viewBox="0 0 1454.55 1468.26"
 xmlns:xlink="http://www.w3.org/1999/xlink"
 xmlns:svg="http://www.w3.org/2000/svg">
 <defs>
  <style type="text/css">
   <![CDATA[
    .fil0 {fill:#E03875}
   ]]>
  </style>
 </defs>
 <g id="图层_x0020_1">
  <metadata id="CorelCorpID_0Corel-Layer"/>
  <g id="consul.svg">
   <g id="layer1">
    <path id="path18" class="fil0" d="M734.52 1468.26c-0.05,-0.02 -0.32,-0.02 -0.41,-0.02 -405.37,0 -734.11,-328.75 -734.11,-734.13 0,-405.37 328.74,-734.12 734.11,-734.12 184.27,0 361.82,69.37 497.33,194.13l0 0 -173.6 182.15 0 0c-88.52,-79.81 -203.66,-124.1 -322.99,-124.1 -266.37,0 -482.4,216.03 -482.4,482.4 0,266.39 216.03,482.41 482.4,482.41 119.32,0 234.46,-44.28 323.04,-124.15l0 0 173.59 181.45 0 0c-135.1,124.64 -312.36,193.97 -496.23,193.97 -0.17,0 -0.53,0 -0.72,0l-0.03 0.01z"/>
    <path id="path20" class="fil0" d="M1325.34 1100.96c-33.2,-0.01 -60.11,-26.92 -60.11,-60.11 0,-33.18 26.91,-60.1 60.1,-60.1 33.19,0 60.1,26.92 60.1,60.1 0,0 0,0 0,0 0,33.19 -26.91,60.1 -60.1,60.1 0,0 0,0 0,0l0.01 0.01z"/>
    <path id="path22" class="fil0" d="M729.9 893.16c-0.01,-0.02 -0.01,-0.02 -0.01,-0.02 -87.81,0 -159.02,-71.21 -159.02,-159.03 0,-87.8 71.21,-159.02 159.02,-159.02 87.82,0 159.03,71.22 159.03,159.02 0,0 0,0 0,0 0,87.82 -71.21,159.03 -159.03,159.03l0.01 0.02z"/>
    <path id="path24" class="fil0" d="M1394.45 895.47c-33.19,-0.01 -60.1,-26.92 -60.1,-60.11 0,-33.18 26.91,-60.1 60.1,-60.1 33.19,0 60.1,26.92 60.1,60.1 -0.12,33.13 -26.97,59.97 -60.11,60.1l0.01 0.01z"/>
    <path id="path26" class="fil0" d="M1215.54 888.53c-0.01,-0.01 -0.01,-0.01 -0.01,-0.01 -33.19,0 -60.1,-26.91 -60.1,-60.1 0,-33.18 26.91,-60.1 60.1,-60.1 33.19,0 60.1,26.92 60.1,60.1 0,0 0,0 0,0 0,33.19 -26.91,60.1 -60.1,60.1l0.01 0.01z"/>
    <path id="path28" class="fil0" d="M1394.45 693.22c-33.19,-0.01 -60.1,-26.92 -60.1,-60.11 0,-33.18 26.91,-60.1 60.1,-60.1 33.19,0 60.1,26.92 60.1,60.1 0,0 0,0 0,0 -0.12,33.14 -26.97,59.99 -60.11,60.11l0.01 0z"/>
    <path id="path30" class="fil0" d="M1215.54 700.15c-0.01,0 -0.01,0 -0.01,0 -33.19,0 -60.1,-26.91 -60.1,-60.1 0,-33.18 26.91,-60.1 60.1,-60.1 33.19,0 60.1,26.92 60.1,60.1 0,0 0,0 0,0 0,33.19 -26.91,60.1 -60.1,60.1l0.01 0z"/>
    <path id="path32" class="fil0" d="M1328.8 490.96c0,-0.01 0,-0.01 0,-0.01 -33.19,0 -60.1,-26.91 -60.1,-60.1 0,-33.18 26.91,-60.1 60.1,-60.1 33.19,0 60.1,26.92 60.1,60.1 0,0 0,0 0,0 0,33.19 -26.91,60.1 -60.1,60.1l0 0.01z"/>
   </g>
  </g>
 </g>
</svg>
