<?xml version="1.0" encoding="UTF-8"?>
<!DOCTYPE svg PUBLIC "-//W3C//DTD SVG 1.1//EN" "http://www.w3.org/Graphics/SVG/1.1/DTD/svg11.dtd">
<!-- Creator: CorelDRAW 2018 (64-Bit) -->
<svg xmlns="http://www.w3.org/2000/svg" xml:space="preserve" width="40.2mm" height="40.2mm" version="1.1" style="shape-rendering:geometricPrecision; text-rendering:geometricPrecision; image-rendering:optimizeQuality; fill-rule:evenodd; clip-rule:evenodd"
viewBox="0 0 16490.2 16490.2"
 xmlns:xlink="http://www.w3.org/1999/xlink">
 <defs>
  <style type="text/css">
   <![CDATA[
    .str0 {stroke:black;stroke-width:82.04;stroke-miterlimit:22.9256}
    .fil0 {fill:black}
    .fil3 {fill:#0AE6A9}
    .fil2 {fill:white}
    .fil1 {fill:#00ECCE;fill-rule:nonzero}
   ]]>
  </style>
 </defs>
 <g id="图层_x0020_1">
  <metadata id="CorelCorpID_0Corel-Layer"/>
  <g id="_2103785012816">
   <circle class="fil0 str0" cx="8245.11" cy="8245.12" r="8204.08"/>
   <path class="fil1" d="M8000.09 2742.3c897.81,0 1746.44,211.09 2498.84,586.26 -180.94,103.37 -356.43,216.79 -526.29,339.61 -606.45,-255.93 -1272.99,-397.36 -1972.55,-397.36 -1402.24,0 -2671.99,568.46 -3590.97,1487.44 -918.98,918.98 -1487.4,2188.68 -1487.44,3590.97 0.04,1402.24 568.46,2671.95 1487.44,3590.93 918.98,918.98 2188.73,1487.44 3590.97,1487.44 1402.32,0 2671.95,-568.46 3590.97,-1487.44 918.98,-918.98 1487.44,-2188.68 1487.4,-3590.93 0,-670.23 -129.91,-1310.15 -365.86,-1896 124.58,-170.4 239.64,-346.54 344.61,-528.22 352.32,733.69 549.8,1555.95 549.76,2424.22 0.04,1548.27 -627.57,2950.02 -1642.21,3964.66 -1014.6,1014.64 -2416.43,1642.21 -3964.66,1642.21 -1548.27,0 -2950.06,-627.57 -3964.7,-1642.21 -1014.64,-1014.64 -1642.17,-2416.39 -1642.21,-3964.66 0.04,-1548.27 627.57,-2950.06 1642.21,-3964.7 1014.64,-1014.64 2416.43,-1642.21 3964.7,-1642.21z"/>
   <path class="fil1" d="M13457.69 2942.07c-481.29,-13.58 -944.04,35.56 -1383.7,139.51 414.72,414.72 829.39,829.39 1244.11,1244.07 103.86,-439.62 153.13,-902.28 139.59,-1383.58zm-1773.68 247.85c-663.87,212.32 -1268.56,551.85 -1797.23,988.26 -1060.09,875.01 -1816.18,2138.72 -2135.24,3546.46l461.81 461.81 461.77 461.77c1407.74,-319.06 2671.45,-1075.14 3546.46,-2135.19 436.38,-528.67 775.98,-1133.31 988.3,-1797.27 -508.65,-508.61 -1017.22,-1017.22 -1525.88,-1525.84zm-2021.08 717.65c1125.31,-928.87 2528.74,-1422.55 4126.49,-1297.23 125.32,1597.74 -368.36,3001.18 -1297.23,4126.49 -988.47,1197.47 -2349.03,1959.71 -3931.31,2295.46 -397.82,-397.82 -795.59,-795.59 -1193.41,-1193.41 335.75,-1582.28 1097.99,-2942.85 2295.46,-3931.31z"/>
   <path class="fil1" d="M11444.24 7633.12c2.75,4.92 941.01,1663.99 -746.45,2237.01 -14.77,-412.13 -152.64,-1208.3 -965.95,-1505.9l-121.63 329.93c898.35,328.7 729.01,1420.45 705.3,1643.52l244.15 -61.08c2438.62,-609.65 1195.58,-2806.53 1192.09,-2812.81l-307.53 169.33z"/>
   <path class="fil1" d="M8766.68 4955.51c-4.96,-2.75 -1664.03,-941.01 -2237.05,746.45 412.13,14.77 1208.3,152.64 1505.9,965.95l-329.93 121.67c-328.7,-898.39 -1420.45,-729.06 -1643.48,-705.35l61.04 -244.15c609.65,-2438.62 2806.53,-1195.58 2812.81,-1192.09l-169.29 307.53z"/>
   <path class="fil1" d="M11439.94 4959.82c188.08,188.12 282.18,434.73 282.18,681.31 0,246.57 -94.1,493.19 -282.18,681.31 -188.12,188.08 -434.73,282.18 -681.31,282.18 -246.57,0 -493.19,-94.1 -681.27,-282.18 -188.12,-188.12 -282.22,-434.73 -282.22,-681.31 0,-246.57 94.1,-493.19 282.22,-681.31 188.08,-188.08 434.69,-282.18 681.27,-282.18 246.57,0 493.19,94.1 681.31,282.18zm-246.33 681.31c0,-111.29 -42.5,-222.62 -127.41,-307.57 -84.95,-84.91 -196.28,-127.41 -307.57,-127.41 -111.29,0 -222.62,42.5 -307.57,127.41 -84.91,84.95 -127.41,196.28 -127.41,307.57 0,111.29 42.5,222.62 127.41,307.57 84.95,84.91 196.28,127.41 307.57,127.41 111.29,0 222.62,-42.5 307.57,-127.41 84.91,-84.95 127.41,-196.28 127.41,-307.57z"/>
   <polygon class="fil2" points="4420.97,7198.14 4505.31,7472.73 4779.9,7557.07 4505.31,7641.45 4420.97,7916 4336.6,7641.45 4062.05,7557.07 4336.6,7472.73 "/>
   <polygon class="fil2" points="6207.45,7550.46 6272.55,7762.29 6484.38,7827.35 6272.55,7892.45 6207.45,8104.28 6142.4,7892.45 5930.57,7827.35 6142.4,7762.29 "/>
   <polygon class="fil2" points="5047.23,5195.6 5089.4,5332.86 5226.7,5375.03 5089.4,5417.2 5047.23,5554.45 5005.06,5417.2 4867.81,5375.03 5005.06,5332.86 "/>
   <polygon class="fil2" points="9015.75,9986.66 9100.13,10261.26 9374.68,10345.59 9100.13,10429.97 9015.75,10704.52 8931.41,10429.97 8656.82,10345.59 8931.41,10261.26 "/>
   <polygon class="fil2" points="10024.36,11591.51 10086.34,11793.24 10288.08,11855.23 10086.34,11917.21 10024.36,12118.91 9962.38,11917.21 9760.68,11855.23 9962.38,11793.24 "/>
   <polygon class="fil2" points="8547.71,11675.76 8589.88,11813.06 8727.17,11855.23 8589.88,11897.4 8547.71,12034.65 8505.54,11897.4 8368.29,11855.23 8505.54,11813.06 "/>
   <path class="fil3" d="M8518.54 13401.45c19.69,-2.01 39.26,-4.14 58.86,-6.36 -19.61,2.22 -39.17,4.35 -58.86,6.36zm58.91 -6.32c19.61,-2.22 39.13,-4.64 58.66,-7.06 -300.97,-35.15 -505.58,-77.98 -505.58,-77.98 -224.14,-672.37 -751.53,-593.32 -751.53,-593.32 148.33,-963 -711.99,-1344.81 -711.99,-1344.81 145.05,-962.46 1595.53,-2638.02 1595.53,-2638.02 -198.91,-198.91 -397.82,-397.82 -596.72,-596.72 0,0 -1675.56,1450.48 -2638.02,1595.53 0,0 -381.82,-860.28 -1344.81,-711.99 0,0 79.09,-527.4 -593.32,-751.49 0,0 -66.29,-317.05 -101.73,-742.35l-449.79 -449.83c-94.84,408.73 -144.93,834.56 -144.97,1272.12 0.04,1548.27 627.57,2950.02 1642.21,3964.66 1014.64,1014.64 2416.43,1642.21 3964.7,1642.21 375.38,0 742.1,-36.88 1096.84,-107.23l-460.78 -460.7c-19.53,2.42 -39.09,4.76 -58.7,6.97z"/>
  </g>
 </g>
</svg>
