<?xml version="1.0" encoding="UTF-8"?>
<!DOCTYPE svg PUBLIC "-//W3C//DTD SVG 1.1//EN" "http://www.w3.org/Graphics/SVG/1.1/DTD/svg11.dtd">
<!-- Creator: CorelDRAW 2018 (64-Bit) -->
<svg xmlns="http://www.w3.org/2000/svg" xml:space="preserve" width="40mm" height="40mm" version="1.1" style="shape-rendering:geometricPrecision; text-rendering:geometricPrecision; image-rendering:optimizeQuality; fill-rule:evenodd; clip-rule:evenodd"
viewBox="0 0 255.68 255.68"
 xmlns:xlink="http://www.w3.org/1999/xlink">
 <defs>
  <style type="text/css">
   <![CDATA[
    .fil0 {fill:#04549C}
    .fil1 {fill:white}
   ]]>
  </style>
 </defs>
 <g id="图层_x0020_1">
  <metadata id="CorelCorpID_0Corel-Layer"/>
  <g>
   <path class="fil0" d="M131.93 61.76l42.72 0c-7.01,-22.01 -17.41,-39.65 -29.82,-50.3 -4.23,-0.61 -8.53,-1 -12.89,-1.15l-0.01 51.46zm-68.83 52.14l12.55 0c5.19,0 9.13,1.46 11.84,4.39 2.7,2.92 4.06,6.98 4.06,12.17 0,5.38 -1.35,9.46 -4.06,12.26 -2.7,2.8 -6.71,4.2 -12.03,4.2l-12.36 0 0 -33.01zm12.64 27.17c1.32,0 2.58,-0.43 3.77,-1.27 1.2,-0.85 2.16,-2.07 2.9,-3.68 0.74,-1.6 1.11,-3.47 1.11,-5.61 0,-2.04 -0.35,-3.88 -1.06,-5.5 -0.71,-1.62 -1.66,-2.9 -2.85,-3.84 -1.19,-0.94 -2.48,-1.41 -3.87,-1.41l-4.86 0 0 21.32 4.86 0zm22.97 -27.17l12.55 0c5.19,0 9.13,1.46 11.84,4.39 2.7,2.92 4.06,6.98 4.06,12.17 0,5.38 -1.35,9.46 -4.06,12.26 -2.7,2.8 -6.71,4.2 -12.03,4.2l-12.36 0 0 -33.01zm12.64 27.17c1.32,0 2.58,-0.43 3.77,-1.27 1.2,-0.85 2.16,-2.07 2.9,-3.68 0.74,-1.6 1.11,-3.47 1.11,-5.61 0,-2.04 -0.35,-3.88 -1.06,-5.5 -0.71,-1.62 -1.66,-2.9 -2.85,-3.84 -1.19,-0.94 -2.48,-1.41 -3.87,-1.41l-4.86 0 0 21.32 4.86 0zm30.89 -19.81l-0.28 0 0 25.66 -7.64 0 0 -33.01 12.4 0 7.88 26.08 0.61 0 0 -26.08 7.64 0 0 33.01 -12.69 0 -7.92 -25.66zm40.61 26.22c-0.35,0.03 -0.88,0.05 -1.6,0.05 -4.24,0 -8.02,-0.91 -11.32,-2.74l0 -6.93c1.73,1.07 3.63,1.96 5.71,2.69 2.08,0.72 3.96,1.08 5.66,1.08 1.38,0 2.48,-0.35 3.28,-1.04 0.8,-0.69 1.2,-1.48 1.2,-2.36 0,-1.23 -0.47,-2.35 -1.41,-3.37 -0.94,-1.02 -2.45,-1.85 -4.53,-2.48 -2.39,-0.75 -4.25,-1.52 -5.59,-2.29 -1.34,-0.77 -2.34,-1.74 -3.02,-2.9 -0.68,-1.16 -1.01,-2.64 -1.01,-4.43 0,-1.7 0.41,-3.25 1.23,-4.65 0.82,-1.4 2.02,-2.52 3.61,-3.37 1.59,-0.85 3.48,-1.32 5.68,-1.41 0.28,-0.03 0.72,-0.05 1.32,-0.05 1.64,0 3.28,0.16 4.93,0.5 1.65,0.33 3.04,0.75 4.17,1.25l0 6.08c-1.23,-0.53 -2.66,-0.97 -4.29,-1.32 -1.64,-0.35 -3.08,-0.52 -4.34,-0.52 -1.6,0 -2.83,0.28 -3.68,0.85 -0.85,0.57 -1.27,1.35 -1.27,2.36 0,0.91 0.46,1.73 1.37,2.45 0.91,0.72 2.33,1.41 4.24,2.07 2.3,0.66 4.17,1.41 5.61,2.24 1.45,0.83 2.58,1.92 3.4,3.25 0.82,1.34 1.23,3.01 1.23,5.02 0,1.92 -0.44,3.62 -1.32,5.09 -0.88,1.48 -2.12,2.63 -3.7,3.47 -1.59,0.83 -3.44,1.3 -5.54,1.39zm-157.83 -76.8c-8.75,15.71 -14.02,33.65 -14.71,52.82l20.64 0 0 -5.13c0,-12.8 10.48,-23.28 23.28,-23.28l7.33 0c1.19,-8.52 2.82,-16.69 4.86,-24.41l-41.4 0 -0 0zm45.49 24.41l52.5 0 0 -24.41 -47.64 0c-2.04,7.72 -3.67,15.89 -4.86,24.41zm61.42 0l50.17 0c-1.19,-8.52 -2.82,-16.69 -4.86,-24.41l-45.31 0 0 24.41zm98.71 -24.41l-44.45 0c2.04,7.72 3.67,15.89 4.86,24.41l9.64 0c12.81,0 23.28,10.48 23.28,23.28l0 5.13 21.4 0c-0.69,-19.13 -5.95,-37.09 -14.72,-52.82l-0 0zm14.71 61.75l-21.38 0 0 8.18c0,12.81 -10.48,23.28 -23.28,23.28l-10.09 0c-1.15,7.52 -2.66,14.74 -4.48,21.62l44.24 0 -0.08 0.14 15.08 -53.22zm-63.7 31.46l-49.73 0 0 21.62 45.24 0c1.82,-6.87 3.33,-14.1 4.48,-21.62zm-58.65 0l-52.05 0c1.15,7.52 2.66,14.75 4.48,21.62l47.57 0 0 -21.62zm-112.68 -31.46c0.74,19.24 6.09,37.29 15,53.08l-15 -53.08zm15 53.08l41.17 0c-1.82,-6.87 -3.33,-14.1 -4.48,-21.62l-7.77 0c-12.8,0 -23.28,-10.48 -23.28,-23.28l0 -8.18 -20.63 0 15 53.08zm158.28 -123.75l41.54 0c-16.04,-23.57 -40.42,-41.01 -68.89,-48.07 11.32,10.8 20.81,27.54 27.36,48.07zm41.33 132.46l-0.14 0.21 -41.27 0c-6.47,20.2 -15.8,36.71 -26.92,47.47 28.2,-7.09 52.36,-24.36 68.33,-47.68zm-93 51.16c4.48,-0.15 8.9,-0.56 13.25,-1.2 12.21,-10.64 22.45,-28.07 29.39,-49.75l-42.64 0 0 50.94 0 0.01zm-8.92 -0.03l0 -50.92 -44.96 0c6.81,21.27 16.79,38.45 28.7,49.13 5.31,0.96 10.74,1.57 16.27,1.79zm-53.91 -50.92l-38.2 0c15.17,22.04 37.66,38.66 63.96,46.33 -10.61,-10.77 -19.52,-26.83 -25.76,-46.33zm-38.57 -132.67l38.49 0c6.31,-19.82 15.38,-36.1 26.18,-46.93 -26.6,7.68 -49.4,24.5 -64.67,46.93zm92.47 -51.43c-5.4,0.22 -10.71,0.8 -15.91,1.73 -12.1,10.71 -22.25,28.1 -29.13,49.7l45.04 0 -0.01 -51.43zm4.84 -10.33c-70.6,0 -127.84,57.24 -127.84,127.84 0,70.6 57.24,127.84 127.84,127.84 70.6,0 127.84,-57.24 127.84,-127.84 0,-70.6 -57.24,-127.84 -127.84,-127.84z"/>
  </g>
  <path class="fil1" d="M183.52 194.43c-6.47,20.2 -15.8,36.71 -26.92,47.47 28.12,-7.07 52.21,-24.26 68.19,-47.47l-41.27 0zm-120.42 -80.53l12.55 0c5.19,0 9.13,1.46 11.84,4.39 2.7,2.92 4.06,6.98 4.06,12.17 0,5.38 -1.35,9.46 -4.06,12.26 -2.7,2.8 -6.71,4.2 -12.03,4.2l-12.36 0 0 -33.01zm12.64 27.17c1.32,0 2.58,-0.43 3.77,-1.27 1.2,-0.85 2.16,-2.07 2.9,-3.68 0.74,-1.6 1.11,-3.47 1.11,-5.61 0,-2.04 -0.35,-3.88 -1.06,-5.5 -0.71,-1.62 -1.66,-2.9 -2.85,-3.84 -1.19,-0.94 -2.48,-1.41 -3.87,-1.41l-4.86 0 0 21.32 4.86 0zm22.97 -27.17l12.55 0c5.19,0 9.13,1.46 11.84,4.39 2.7,2.92 4.06,6.98 4.06,12.17 0,5.38 -1.35,9.46 -4.06,12.26 -2.7,2.8 -6.71,4.2 -12.03,4.2l-12.36 0 0 -33.01zm12.64 27.17c1.32,0 2.58,-0.43 3.77,-1.27 1.2,-0.85 2.16,-2.07 2.9,-3.68 0.74,-1.6 1.11,-3.47 1.11,-5.61 0,-2.04 -0.35,-3.88 -1.06,-5.5 -0.71,-1.62 -1.66,-2.9 -2.85,-3.84 -1.19,-0.94 -2.48,-1.41 -3.87,-1.41l-4.86 0 0 21.32 4.86 0zm30.89 -19.81l-0.28 0 0 25.66 -7.64 0 0 -33.01 12.4 0 7.88 26.08 0.61 0 0 -26.08 7.64 0 0 33.01 -12.69 0 -7.92 -25.66zm40.61 26.22c-0.35,0.03 -0.88,0.05 -1.6,0.05 -4.24,0 -8.02,-0.91 -11.32,-2.74l0 -6.93c1.73,1.07 3.63,1.96 5.71,2.69 2.08,0.72 3.96,1.08 5.66,1.08 1.38,0 2.48,-0.35 3.28,-1.04 0.8,-0.69 1.2,-1.48 1.2,-2.36 0,-1.23 -0.47,-2.35 -1.41,-3.37 -0.94,-1.02 -2.45,-1.85 -4.53,-2.48 -2.39,-0.75 -4.25,-1.52 -5.59,-2.29 -1.34,-0.77 -2.34,-1.74 -3.02,-2.9 -0.68,-1.16 -1.01,-2.64 -1.01,-4.43 0,-1.7 0.41,-3.25 1.23,-4.65 0.82,-1.4 2.02,-2.52 3.61,-3.37 1.59,-0.85 3.48,-1.32 5.68,-1.41 0.28,-0.03 0.72,-0.05 1.32,-0.05 1.64,0 3.28,0.16 4.93,0.5 1.65,0.33 3.04,0.75 4.17,1.25l0 6.08c-1.23,-0.53 -2.66,-0.97 -4.29,-1.32 -1.64,-0.35 -3.08,-0.52 -4.34,-0.52 -1.6,0 -2.83,0.28 -3.68,0.85 -0.85,0.57 -1.27,1.35 -1.27,2.36 0,0.91 0.46,1.73 1.37,2.45 0.91,0.72 2.33,1.41 4.24,2.07 2.3,0.66 4.17,1.41 5.61,2.24 1.45,0.83 2.58,1.92 3.4,3.25 0.82,1.34 1.23,3.01 1.23,5.02 0,1.92 -0.44,3.62 -1.32,5.09 -0.88,1.48 -2.12,2.63 -3.7,3.47 -1.59,0.83 -3.44,1.3 -5.54,1.39zm-152.32 -85.72l38.49 0c6.31,-19.82 15.38,-36.1 26.18,-46.93 -26.6,7.68 -49.4,24.5 -64.67,46.93zm92.47 -51.43c-5.4,0.22 -10.71,0.8 -15.91,1.73 -12.1,10.71 -22.25,28.1 -29.13,49.7l45.04 0 -0.01 -51.43zm8.94 -0.03l-0.01 51.46 42.72 0c-7.01,-22.01 -17.41,-39.65 -29.82,-50.3 -4.23,-0.61 -8.53,-1 -12.89,-1.15zm24.31 3.39c11.32,10.8 20.81,27.54 27.36,48.07l41.54 0c-16.04,-23.57 -40.42,-41.01 -68.89,-48.07zm-145.93 109.82l20.64 0 0 -5.13c0,-12.8 10.48,-23.28 23.28,-23.28l7.33 0c1.19,-8.52 2.82,-16.69 4.86,-24.41l-41.4 0c-8.75,15.71 -14.02,33.65 -14.71,52.82zm65.06 -52.82c-2.04,7.72 -3.67,15.89 -4.86,24.41l52.5 0 0 -24.41 -47.64 0zm56.56 0l0 24.41 50.17 0c-1.19,-8.52 -2.82,-16.69 -4.86,-24.41l-45.31 0zm113.44 52.82c-0.69,-19.13 -5.95,-37.09 -14.73,-52.82l-44.45 0c2.04,7.72 3.67,15.89 4.86,24.41l9.64 0c12.81,0 23.28,10.48 23.28,23.28l0 5.13 21.4 0zm-0.01 8.92l-21.39 0 0 8.18c0,12.81 -10.48,23.28 -23.28,23.28l-10.09 0c-1.15,7.52 -2.66,14.74 -4.48,21.62l44.24 0c8.9,-15.79 14.26,-33.84 15,-53.08zm-68.19 53.08c1.82,-6.87 3.33,-14.1 4.48,-21.62l-49.73 0 0 21.62 45.24 0zm-54.17 0l0 -21.62 -52.05 0c1.15,7.52 2.66,14.75 4.48,21.62l47.57 0zm-56.52 0c-1.82,-6.87 -3.33,-14.1 -4.48,-21.62l-7.77 0c-12.8,0 -23.28,-10.48 -23.28,-23.28l0 -8.18 -20.63 0c0.74,19.24 6.09,37.29 15,53.08l41.17 0zm2.61 8.92l-38.2 0c15.17,22.04 37.66,38.66 63.96,46.33 -10.61,-10.77 -19.52,-26.83 -25.76,-46.33zm8.95 0c6.81,21.27 16.79,38.45 28.7,49.13 5.31,0.96 10.74,1.57 16.27,1.79l0 -50.92 -44.96 0zm53.89 50.95c4.48,-0.15 8.9,-0.56 13.25,-1.2 12.21,-10.64 22.45,-28.07 29.39,-49.75l-42.64 0 0 50.95z"/>
 </g>
</svg>
