<?xml version="1.0" encoding="UTF-8"?>
<!DOCTYPE svg PUBLIC "-//W3C//DTD SVG 1.1//EN" "http://www.w3.org/Graphics/SVG/1.1/DTD/svg11.dtd">
<!-- Creator: CorelDRAW 2018 (64-Bit) -->
<svg xmlns="http://www.w3.org/2000/svg" xml:space="preserve" width="40mm" height="7.0304mm" version="1.1" style="shape-rendering:geometricPrecision; text-rendering:geometricPrecision; image-rendering:optimizeQuality; fill-rule:evenodd; clip-rule:evenodd"
viewBox="0 0 16000 2812.16"
 xmlns:xlink="http://www.w3.org/1999/xlink">
 <defs>
  <style type="text/css">
   <![CDATA[
    .fil0 {fill:#0B58AD}
   ]]>
  </style>
 </defs>
 <g id="图层_x0020_1">
  <metadata id="CorelCorpID_0Corel-Layer"/>
  <path class="fil0" d="M1475.32 217.28l-983.56 0 -491.76 2333.12c0,0 53.72,240.2 217.24,240.2 161.28,0 2310.24,287.04 2721.96,-1235.2 385.44,-1425.04 -1463.88,-1338.12 -1463.88,-1338.12zm834.88 1097.96c-165.8,935.52 -452.92,1117.36 -789.12,1223.76 -393.44,124.68 -880.68,57.16 -880.68,57.16l480.4 -2207.32c34.28,4.6 538.64,9.16 649.56,24.08 308.8,42.28 657.6,236.68 539.84,902.32zm1303.8 -1017.88c0,0 -476.92,2195.88 -491.8,2275.92 -14.84,80.08 42.32,217.32 137.24,217.32l411.72 0 548.96 -2493.24 -606.12 0zm3167.96 45.76l-68.56 205.84c0,0 -1091.12,-324.8 -1395.28,91.48 -217.32,297.4 396.8,590.16 480.28,629.04 156.72,72.08 980.12,282.52 834.92,812.04 -138.4,507.8 -735.4,705.64 -1360.96,709.08 -625.64,3.44 -1292.36,0 -1292.36,0l34.28 -171.56c0,0 785.72,30.88 1269.48,0 483.76,-30.92 611.84,-176.12 651.88,-388.84 36.64,-197.84 -18.28,-366.04 -697.64,-629 -450.56,-175 -651.84,-460.96 -606.12,-754.88 33.16,-209.28 311.08,-504.36 846.32,-594.72 701.04,-117.76 1303.76,91.52 1303.76,91.52zm2115.8 2115.8l-45.72 217.32c0,0 -191,69.76 -503.24,102.92 -255.04,27.44 -606.12,10.28 -983.56,-160.12 -556.96,-251.6 -669.04,-912.64 -441.44,-1393 200.16,-422.04 383.12,-599.32 761.68,-791.44 387.68,-196.72 729.64,-215.04 812.04,-217.32 264.16,-5.68 1352.96,0 1441,0 88.04,0 202.44,53.76 183,183 -19.44,129.24 -249.32,1452.48 -285.92,1692.64 -37.76,251.6 186.44,385.44 480.32,388.88 293.92,3.4 658.76,-53.8 800.6,-594.72 113.2,-432.28 308.8,-1475.36 308.8,-1475.36l617.52 0c0,0 -396.8,2233.64 -400.24,2264.52 -3.44,30.88 -42.32,80.04 -91.48,80.04l-527.24 0 81.2 -366c0,0 -182.96,404.88 -949.24,400.32 -766.24,-4.6 -1014.44,-332.84 -972.12,-812.04 43.44,-491.76 297.36,-1566.84 297.36,-1566.84 0,0 -940.12,-93.76 -1429.6,171.52 -387.68,210.52 -627.92,717.16 -571.84,1098 118.92,804 683.88,930.92 1052.16,892.04 173.88,-18.28 365.96,-114.36 365.96,-114.36zm3533.96 -2047.2l-34.28 228.72 1418.16 -11.4c0,0 -1513.08,1486.8 -1658.36,1624 -145.24,137.24 -160.08,537.56 -160.08,537.56l2253.04 0 11.4 -194.44 -1624 0c0,0 -45.72,-57.16 102.92,-160.12 148.72,-102.88 1514.24,-1387.28 1532.52,-1406.72 100.64,-107.52 149.84,-239.04 160.12,-354.56 14.88,-171.56 0,-263.04 0,-263.04l-2001.44 0zm2779.16 -411.72l80.04 1990.04 297.36 45.68 411.72 -1944.2 -789.12 -91.52zm22.88 2413.2c-3.44,11.4 0,331.64 0,331.64l343.08 22.88 22.88 -354.52c0,0 -362.56,-11.48 -365.96,0z" p-id="19573"/>
 </g>
</svg>
