<?xml version="1.0" encoding="UTF-8"?>
<!DOCTYPE svg PUBLIC "-//W3C//DTD SVG 1.1//EN" "http://www.w3.org/Graphics/SVG/1.1/DTD/svg11.dtd">
<!-- Creator: CorelDRAW 2018 (64-Bit) -->
<svg xmlns="http://www.w3.org/2000/svg" xml:space="preserve" width="40mm" height="40mm" version="1.1" style="shape-rendering:geometricPrecision; text-rendering:geometricPrecision; image-rendering:optimizeQuality; fill-rule:evenodd; clip-rule:evenodd"
viewBox="0 0 842.11 842.11"
 xmlns:xlink="http://www.w3.org/1999/xlink"
 t="1733467942090"
 p-id="17326">
 <defs>
  <style type="text/css">
   <![CDATA[
    .fil1 {fill:#DF6C0C}
    .fil0 {fill:#F08705}
    .fil2 {fill:white}
   ]]>
  </style>
 </defs>
 <g id="图层_x0020_1">
  <metadata id="CorelCorpID_0Corel-Layer"/>
  <g id="draw.io.svg">
   <path class="fil0" d="M842.11 806.17c0,19.84 -16.09,35.93 -35.56,35.93l-770.62 0c-19.84,0 -35.93,-16.09 -35.93,-35.56l0 -770.62c0,-19.84 16.09,-35.93 35.56,-35.93l770.62 0c19.84,0 35.93,16.09 35.93,35.56l0 770.62z" p-id="17327"/>
   <path class="fil1" d="M842.11 806.17c0,19.84 -16.09,35.93 -35.56,35.93l-517.99 0 -167.67 -170.29 104.42 -170.29 309.52 -384.37 307.27 316.26 0 372.77 0 0z" p-id="17328"/>
   <path class="fil2" d="M690.9 470.83l-88.7 0 -93.57 -159.81c21.33,-4.49 36.68,-23.2 36.31,-44.91l0 -120.14c0,-25.45 -20.21,-46.03 -45.66,-46.03l-156.44 0c-25.45,0 -46.04,20.21 -46.04,45.66l0 120.52c0,21.71 14.97,40.42 36.31,44.91l-93.57 159.81 -88.33 0c-25.45,0 -46.04,20.21 -46.04,45.66l0 120.52c0,25.45 20.21,46.04 45.66,46.04l156.44 0c25.45,0 46.04,-20.21 46.04,-45.66l0 -120.52c0,-25.45 -20.21,-46.03 -45.66,-46.03l-15.34 0 92.82 -158.69 72.24 0 93.19 158.69 -15.35 0c-25.45,0 -46.04,20.21 -46.04,45.66l0 120.52c0,25.45 20.21,46.04 45.66,46.04l156.44 0c25.45,0 46.04,-20.21 46.04,-45.66l0 -120.52c0,-25.45 -20.21,-46.03 -45.66,-46.03l-0.75 0z" p-id="17329"/>
  </g>
 </g>
</svg>
