<?xml version="1.0" encoding="UTF-8"?>
<!DOCTYPE svg PUBLIC "-//W3C//DTD SVG 1.1//EN" "http://www.w3.org/Graphics/SVG/1.1/DTD/svg11.dtd">
<!-- Creator: CorelDRAW 2018 (64-Bit) -->
<svg xmlns="http://www.w3.org/2000/svg" xml:space="preserve" width="40mm" height="40.0001mm" version="1.1" style="shape-rendering:geometricPrecision; text-rendering:geometricPrecision; image-rendering:optimizeQuality; fill-rule:evenodd; clip-rule:evenodd"
viewBox="0 0 16000 16000.04"
 xmlns:xlink="http://www.w3.org/1999/xlink"
 enable-background="new 0 0 300 300">
 <defs>
  <style type="text/css">
   <![CDATA[
    .fil1 {fill:#0058CC}
    .fil0 {fill:white}
   ]]>
  </style>
 </defs>
 <g id="图层_x0020_1">
  <metadata id="CorelCorpID_0Corel-Layer"/>
  <g id="focalboard.svg">
   <g id="Layer_2" display="none">
    <rect class="fil0" x="0" y="0.02" width="16000" height="16000" display="inline"/>
   </g>
   <g id="Layer_1">
    <g>
     <path class="fil1" d="M9700.84 3032.48c-3178.24,-870.12 -6790.2,825.4 -7950.52,4252.8 -1168.32,3451.32 682.4,7196.28 4133.6,8364.6 3451.36,1168.32 7196.28,-682.36 8364.64,-4133.6 954.68,-2820.16 -116.04,-5697.88 -2252.96,-7341.44l-115.52 1222.68 -0.2 0.16c1162.44,1228.64 1684.08,2997 1085.52,4765.24 -843.8,2492.6 -3626.16,3802.88 -6214.64,2926.6 -2588.52,-876.28 -4002.8,-3607.28 -3159,-6099.84 746.68,-2205.76 3011.4,-3442.6 5206.4,-3168.96l-0.08 -0.24 902.76 -788 0 0zm-1549.96 4138.48c867.4,-167 1753.52,691.2 1446.28,1598.72 -214.36,633.28 -921.24,966.24 -1578.96,743.56 -657.72,-222.64 -1017.04,-916.56 -802.64,-1549.84 144.04,-425.68 510.68,-715.64 935.32,-792.44l0 0zm-322.4 -1241c-448.28,81.04 -865.96,277.04 -1207.84,566.72 -326.08,276.24 -581.96,638.84 -727.56,1068.92 -220.6,651.56 -145.24,1335.92 154.92,1915.56 302.76,584.56 834.52,1062.8 1523.52,1296.08 688.64,233.12 1401.72,176.12 1997.72,-104.56 590.24,-277.96 1065.64,-775.8 1286.28,-1427.52 139.24,-411.32 159.04,-816.84 86.24,-1195.24 -52.76,-274.2 -154.4,-535.52 -294.72,-775.84l255.76 -1281.84c47.44,46.88 93.68,94.96 138.6,144.16 439.16,481.6 755.08,1074.96 880.4,1726.12 104.12,540.8 76.36,1118.8 -121.32,1702.88 -311.16,919.08 -978.4,1619.6 -1805.6,2009.2 -821.52,386.88 -1801,466.56 -2743.48,147.56 -942.32,-318.96 -1671.92,-977.48 -2089.64,-1784.16 -420.36,-811.68 -524.76,-1773.36 -213.64,-2692.56 205.56,-607.28 567.2,-1119.56 1028.28,-1510.08 471.88,-399.8 1049.52,-671 1670.72,-784.36l-0.2 -1.04c441.52,-84.96 884,-78.56 1308.48,3.88l-899.56 944.2c-73.84,7.16 -147.72,17.76 -221.52,31.96l-5.84 0 0 -0.04z"/>
     <polygon class="fil1" points="10811.32,2874.2 10634.4,2066.44 11707.64,0 12364.48,1105.52 13649.6,1061.04 12490.48,3080.52 11666.56,3386.04 8815.08,8605.2 7940.48,8128.88 "/>
    </g>
   </g>
  </g>
 </g>
</svg>
