<?xml version="1.0" encoding="UTF-8"?>
<!DOCTYPE svg PUBLIC "-//W3C//DTD SVG 1.1//EN" "http://www.w3.org/Graphics/SVG/1.1/DTD/svg11.dtd">
<!-- Creator: CorelDRAW 2018 (64-Bit) -->
<svg xmlns="http://www.w3.org/2000/svg" xml:space="preserve" width="40mm" height="40mm" version="1.1" style="shape-rendering:geometricPrecision; text-rendering:geometricPrecision; image-rendering:optimizeQuality; fill-rule:evenodd; clip-rule:evenodd"
viewBox="0 0 1454.55 1454.55"
 xmlns:xlink="http://www.w3.org/1999/xlink">
 <defs>
  <style type="text/css">
   <![CDATA[
    .fil1 {fill:#049F87}
    .fil3 {fill:#1B14C1}
    .fil2 {fill:#F12A2A}
    .fil4 {fill:white}
    .fil0 {fill:white}
   ]]>
  </style>
 </defs>
 <g id="图层_x0020_1">
  <metadata id="CorelCorpID_0Corel-Layer"/>
  <g id="_2103794663168">
   <rect class="fil0" transform="matrix(-3.01009E-14 0.376742 -0.376742 -3.01009E-14 1454.55 -2.69773E-05)" width="3860.85" height="3860.85"/>
   <path class="fil1" d="M1226.04 780.25l-23.2 85.54c0,0 69.6,15.95 69.6,92.79 0,76.84 0,123.24 0,123.24 0,0 1.45,97.87 -97.87,97.87 -99.32,0 -930.1,0 -930.1,0 0,0 51.47,-39.15 15.95,-74.67 -35.52,-35.52 -76.48,14.14 -76.48,14.14l-77.93 77.93c0,0 -29.36,27.91 0,57.27 29.36,29.36 79.56,79.56 79.56,79.56 0,0 38.6,52.38 74.85,16.13 36.25,-36.25 -15.95,-81.2 -15.95,-81.2l930.1 0c0,0 187.04,-1.45 187.04,-187.04l0 -123.24c0,0 0,-139.18 -135.56,-178.33z"/>
   <path class="fil2" d="M1226.04 674.29l-23.2 -85.54c0,0 69.6,-15.95 69.6,-92.79 0,-76.84 0,-123.24 0,-123.24 0,0 1.45,-97.87 -97.87,-97.87 -99.32,0 -930.1,0 -930.1,0 0,0 51.47,39.15 15.95,74.67 -35.52,35.52 -76.48,-14.14 -76.48,-14.14l-77.93 -77.93c0,0 -29.36,-27.91 0,-57.27 29.36,-29.36 79.56,-79.56 79.56,-79.56 0,0 38.6,-52.38 74.85,-16.13 36.25,36.25 -15.95,81.2 -15.95,81.2l930.1 0c0,0 187.04,1.45 187.04,187.04l0 123.24c0,0 0,139.18 -135.56,178.33z"/>
   <path class="fil3" d="M1170.94 817.95c0,0 -37.69,231.99 -303.75,303.75 0,0 68.87,-100.77 74.67,-225.46 0,0 127.59,-5.8 229.08,-78.29z"/>
   <path class="fil3" d="M1170.94 636.59c0,0 -37.69,-231.99 -303.75,-303.75 0,0 68.87,100.77 74.67,225.46 0,0 127.59,5.8 229.08,78.29z"/>
   <path class="fil3" d="M949.11 607.6c6.37,77.42 6.37,161.93 0,239.35 240.68,-44.95 233.43,-119.68 233.43,-119.68 0,0 7.25,-74.73 -233.43,-119.68z"/>
   <path class="fil3" d="M894.74 903.5c0,0 -98.59,450.91 -216.03,95.69l0 -95.69 216.03 0z"/>
   <path class="fil3" d="M894.74 551.05c0,0 -98.59,-450.91 -216.03,-95.69l0 95.69 216.03 0z"/>
   <path class="fil3" d="M685.23 598.17c106.56,-15.23 215.31,0 215.31,0 13.53,84.29 13.53,173.91 0,258.2 0,0 -108.75,15.23 -215.31,0 0,-86.07 0,-172.14 0,-258.2z"/>
   <path class="fil3" d="M683.05 1123.16c0,0 -60.89,-11.6 -104.39,-36.24 0,0 44.22,-7.25 63.8,-40.6 0,0 6.52,39.87 40.6,76.84z"/>
   <path class="fil3" d="M683.05 331.39c0,0 -60.89,11.6 -104.39,36.24 0,0 44.22,7.25 63.8,40.6 0,0 6.52,-39.87 40.6,-76.84z"/>
   <path class="fil3" d="M93.67 635.85l543.71 0 0 182.84 -543.71 0c0,-60.95 0,-121.89 0,-182.84z"/>
   <path class="fil3" d="M93.67 863.64l543.71 0 0 84.09c0,0 -5.8,96.42 -96.42,96.42 -90.62,0 -341.45,0 -341.45,0 0,0 -104.76,8.7 -104.76,-104.75l-1.09 -75.76z"/>
   <path class="fil3" d="M93.67 590.91l543.71 0 0 -84.09c0,0 -5.8,-96.42 -96.42,-96.42 -90.62,0 -341.45,0 -341.45,0 0,0 -104.76,-8.7 -104.76,104.75l-1.09 75.76z"/>
   <rect class="fil4" transform="matrix(3.01009E-14 -0.376742 -0.376742 -3.01009E-14 546.763 999.926)" width="244.38" height="123.15" rx="61.58" ry="61.58"/>
   <rect class="fil4" transform="matrix(-3.01009E-14 0.376742 -0.376742 -3.01009E-14 546.763 454.62)" width="244.38" height="123.15" rx="61.58" ry="61.58"/>
   <rect class="fil4" transform="matrix(3.01009E-14 -0.376742 -0.376742 -3.01009E-14 456.147 999.926)" width="244.38" height="123.15" rx="61.58" ry="61.58"/>
   <rect class="fil4" transform="matrix(-3.01009E-14 0.376742 -0.376742 -3.01009E-14 456.147 454.62)" width="244.38" height="123.15" rx="61.58" ry="61.58"/>
   <rect class="fil4" transform="matrix(3.01009E-14 -0.376742 -0.376742 -3.01009E-14 365.529 999.926)" width="244.38" height="123.15" rx="61.58" ry="61.58"/>
   <rect class="fil4" transform="matrix(-3.01009E-14 0.376742 -0.376742 -3.01009E-14 365.529 454.62)" width="244.38" height="123.15" rx="61.58" ry="61.58"/>
   <path class="fil4" d="M546.76 750.29c0,-15.35 0,-30.69 0,-46.04 0,-30.37 -46.4,-30.37 -46.4,0l0 46.04c0,30.37 46.4,30.37 46.4,0z"/>
   <path class="fil4" d="M456.15 750.29c0,-15.35 0,-30.69 0,-46.04 0,-30.37 -46.4,-30.37 -46.4,0l0 46.04c0,30.37 46.4,30.37 46.4,0z"/>
   <path class="fil4" d="M365.53 750.29c0,-15.35 0,-30.69 0,-46.04 0,-30.37 -46.4,-30.37 -46.4,0l0 46.04c0,30.37 46.4,30.37 46.4,0z"/>
  </g>
 </g>
</svg>
