<?xml version="1.0" encoding="UTF-8"?>
<!DOCTYPE svg PUBLIC "-//W3C//DTD SVG 1.1//EN" "http://www.w3.org/Graphics/SVG/1.1/DTD/svg11.dtd">
<!-- Creator: CorelDRAW 2018 (64-Bit) -->
<svg xmlns="http://www.w3.org/2000/svg" xml:space="preserve" width="40mm" height="25.0927mm" version="1.1" style="shape-rendering:geometricPrecision; text-rendering:geometricPrecision; image-rendering:optimizeQuality; fill-rule:evenodd; clip-rule:evenodd"
viewBox="0 0 1454.55 912.46"
 xmlns:xlink="http://www.w3.org/1999/xlink"
 t="1733465006313"
 p-id="28770">
 <defs>
  <style type="text/css">
   <![CDATA[
    .fil0 {fill:#609926}
    .fil1 {fill:white}
   ]]>
  </style>
 </defs>
 <g id="图层_x0020_1">
  <metadata id="CorelCorpID_0Corel-Layer"/>
  <g id="gitea.svg">
   <path class="fil0" d="M1385.33 0c0,0 -310.49,26.41 -503.16,26.41 -192.67,0 -544.38,-26.41 -544.38,-26.41l-205.53 0c-73.09,0 -132.26,59.17 -132.26,132.26l0 154.28c0,184.22 143.53,336.56 327.4,347.48l82.07 4.93c49.13,108.13 109.37,205.71 177.17,273.51 71.33,0 295.52,-6.69 295.52,-6.69l254.32 0c292.71,-253.96 318.07,-812.77 318.07,-836.38 0,-23.6 -31,-69.39 -69.21,-69.39zm-1053.17 554.77c-141.6,-8.45 -252.55,-126.28 -252.55,-268.05l0 -154.28c0,-29.06 23.77,-52.84 52.84,-52.84l136.32 0c1.41,88.76 20.25,202.19 53.19,318.95l26.07 157.27 -15.85 -1.06zm562.52 -308.2l-39.8 -33.11 0 -185.45 39.8 0 0 218.56z" p-id="28771"/>
   <path class="fil1" d="M1118.16 370.37l-232.83 -115.88 -40.33 81.19c4.58,6.87 6.87,15.15 6.52,23.6l95.28 47.37c32.4,16.03 55.12,57.06 21.84,123.81l-51.6 103.91c10.39,11.8 13.03,29.06 5.64,43.85 -9.86,19.72 -33.64,27.65 -53.36,17.96 -19.72,-9.69 -27.65,-33.64 -17.96,-53.36 5.64,-11.27 15.85,-18.84 27.48,-21.13l54.24 -108.84c8.28,-16.56 24.3,-56.53 -3.88,-70.62l-98.97 -49.31c-4.93,2.47 -10.21,4.05 -15.85,4.4l-75.2 151.11c7.57,11.45 8.98,26.41 2.47,39.63 -9.87,19.72 -33.64,27.65 -53.36,17.96 -19.73,-9.69 -27.65,-33.64 -17.96,-53.36 6.51,-13.21 19.37,-21.13 33.11,-22.02l75.2 -151.11c-7.57,-11.45 -8.98,-26.41 -2.46,-39.63 6.52,-13.21 19.37,-21.13 33.11,-22.01l40.33 -81.19 -55.48 -27.48c-25.19,-12.5 -56.01,-2.29 -68.51,23.07l-161.15 323.7c-12.5,25.19 -2.29,56.01 23.07,68.51l324.06 161.15c25.19,12.5 56,2.29 68.51,-23.07l161.14 -323.7c12.51,-25.19 2.11,-55.83 -23.07,-68.51z" p-id="28772"/>
  </g>
 </g>
</svg>
