<?xml version="1.0" encoding="UTF-8"?>
<!DOCTYPE svg PUBLIC "-//W3C//DTD SVG 1.1//EN" "http://www.w3.org/Graphics/SVG/1.1/DTD/svg11.dtd">
<!-- Creator: CorelDRAW 2018 (64-Bit) -->
<svg xmlns="http://www.w3.org/2000/svg" xml:space="preserve" width="40.0002mm" height="14.9444mm" version="1.1" style="shape-rendering:geometricPrecision; text-rendering:geometricPrecision; image-rendering:optimizeQuality; fill-rule:evenodd; clip-rule:evenodd"
viewBox="0 0 842.11 314.62"
 xmlns:xlink="http://www.w3.org/1999/xlink">
 <defs>
  <style type="text/css">
   <![CDATA[
    .fil0 {fill:#00ACD7}
   ]]>
  </style>
 </defs>
 <g id="图层_x0020_1">
  <metadata id="CorelCorpID_0Corel-Layer"/>
  <g id="go.svg">
   <g>
    <g>
     <g>
      <g>
       <path class="fil0" d="M63.55 95.27c-1.64,0 -2.05,-0.82 -1.23,-2.05l8.61 -11.07c0.82,-1.23 2.87,-2.05 4.51,-2.05l146.37 0c1.64,0 2.05,1.23 1.23,2.46l-6.97 10.66c-0.82,1.23 -2.87,2.46 -4.1,2.46l-148.42 -0.41z"/>
      </g>
     </g>
    </g>
    <g>
     <g>
      <g>
       <path class="fil0" d="M1.64 132.99c-1.64,0 -2.05,-0.82 -1.23,-2.05l8.61 -11.07c0.82,-1.23 2.87,-2.05 4.51,-2.05l186.96 0c1.64,0 2.46,1.23 2.05,2.46l-3.28 9.84c-0.41,1.64 -2.05,2.46 -3.69,2.46l-193.93 0.41z"/>
      </g>
     </g>
    </g>
    <g>
     <g>
      <g>
       <path class="fil0" d="M100.86 170.71c-1.64,0 -2.05,-1.23 -1.23,-2.46l5.74 -10.25c0.82,-1.23 2.46,-2.46 4.1,-2.46l82 0c1.64,0 2.46,1.23 2.46,2.87l-0.82 9.84c0,1.64 -1.64,2.87 -2.87,2.87l-89.38 -0.41z"/>
      </g>
     </g>
    </g>
    <g>
     <g id="CXHf1q_3_">
      <g>
       <g>
        <path class="fil0" d="M526.45 87.88c-25.83,6.56 -43.46,11.48 -68.88,18.04 -6.15,1.64 -6.56,2.05 -11.89,-4.1 -6.15,-6.97 -10.66,-11.48 -19.27,-15.58 -25.83,-12.71 -50.84,-9.02 -74.21,6.15 -27.88,18.04 -42.23,44.69 -41.82,77.9 0.41,32.8 22.96,59.86 55.35,64.37 27.88,3.69 51.25,-6.15 69.7,-27.06 3.69,-4.51 6.97,-9.43 11.07,-15.17 -14.76,0 -33.21,0 -79.13,0 -8.61,0 -10.66,-5.33 -7.79,-12.3 5.33,-12.71 15.17,-34.03 20.91,-44.69 1.23,-2.46 4.1,-6.56 10.25,-6.56 20.91,0 97.99,0 149.24,0 -0.82,11.07 -0.82,22.14 -2.46,33.21 -4.51,29.52 -15.58,56.58 -33.62,80.36 -29.52,38.95 -68.06,63.14 -116.85,69.7 -40.18,5.33 -77.49,-2.46 -110.29,-27.06 -30.34,-22.96 -47.56,-53.3 -52.07,-91.02 -5.33,-44.69 7.79,-84.87 34.85,-120.13 29.11,-38.13 67.65,-62.32 114.8,-70.93 38.54,-6.97 75.44,-2.46 108.65,20.09 21.73,14.35 37.31,34.03 47.56,57.81 2.46,3.69 0.82,5.74 -4.1,6.97z"/>
       </g>
       <g>
        <path class="fil0" d="M662.17 314.62c-37.31,-0.82 -71.34,-11.48 -100.04,-36.08 -24.19,-20.91 -39.36,-47.56 -44.28,-79.13 -7.38,-46.33 5.33,-87.33 33.21,-123.82 29.93,-39.36 66.01,-59.86 114.8,-68.47 41.82,-7.38 81.18,-3.28 116.85,20.91 32.39,22.14 52.48,52.07 57.81,91.43 6.97,55.35 -9.02,100.45 -47.15,138.99 -27.06,27.47 -60.27,44.69 -98.4,52.48 -11.07,2.05 -22.14,2.46 -32.8,3.69zm97.58 -165.64c-0.41,-5.33 -0.41,-9.43 -1.23,-13.53 -7.38,-40.59 -44.69,-63.55 -83.64,-54.53 -38.13,8.61 -62.73,32.8 -71.75,71.34 -7.38,31.98 8.2,64.37 37.72,77.49 22.55,9.84 45.1,8.61 66.83,-2.46 32.39,-16.81 50.02,-43.05 52.07,-78.31z"/>
       </g>
      </g>
     </g>
    </g>
   </g>
  </g>
 </g>
</svg>
