<?xml version="1.0" encoding="UTF-8"?>
<!DOCTYPE svg PUBLIC "-//W3C//DTD SVG 1.1//EN" "http://www.w3.org/Graphics/SVG/1.1/DTD/svg11.dtd">
<!-- Creator: CorelDRAW 2018 (64-Bit) -->
<svg xmlns="http://www.w3.org/2000/svg" xml:space="preserve" width="40mm" height="39.9999mm" version="1.1" style="shape-rendering:geometricPrecision; text-rendering:geometricPrecision; image-rendering:optimizeQuality; fill-rule:evenodd; clip-rule:evenodd"
viewBox="0 0 842.11 842.1"
 xmlns:xlink="http://www.w3.org/1999/xlink"
 xmlns:svg="http://www.w3.org/2000/svg">
 <defs>
  <style type="text/css">
   <![CDATA[
    .fil0 {fill:black}
    .fil4 {fill:#1D98DC;fill-rule:nonzero}
    .fil3 {fill:#71CAEE;fill-rule:nonzero}
    .fil1 {fill:#888E93;fill-rule:nonzero}
    .fil2 {fill:#DDCBA2;fill-rule:nonzero}
    .fil5 {fill:white;fill-rule:nonzero}
   ]]>
  </style>
 </defs>
 <g id="图层_x0020_1">
  <metadata id="CorelCorpID_0Corel-Layer"/>
  <g id="gotify.svg">
   <g id="g1478">
    <path id="path883" class="fil0" d="M310.48 841.01c-35.31,-3.41 -86.38,-13.33 -113.62,-22.07 -25.99,-8.33 -54.65,-24.68 -75.37,-42.99 -5.24,-4.63 -6.03,-4.81 -11.01,-2.59 -18.67,8.34 -24.48,9.83 -38.42,9.84 -29.81,0.02 -61.99,-18.02 -70.27,-39.39 -2.31,-5.98 -2.35,-7.63 -0.27,-12.99 4.54,-11.72 16.88,-12.23 29.76,-1.25 9.4,8.02 17.22,11.05 28.43,11 10.08,-0.04 21.53,-4.31 25.52,-9.51 1.78,-2.32 1.57,-4.45 -1.19,-12.01 -6.2,-16.95 -9.09,-37.62 -8.19,-58.61 1.03,-24.08 4.8,-40.01 14.08,-59.61l7.22 -15.25 -15.23 -13.1c-9.05,-7.78 -16.36,-15.65 -18.01,-19.39 -2.71,-6.13 -2.66,-6.54 2.09,-16.3 7,-14.41 13.3,-21.15 19.09,-20.43 3.7,0.46 7.5,4.55 17.95,19.3 7.29,10.29 14.23,18.71 15.42,18.71 2.34,0 37.73,-38.44 50.44,-54.77 11.37,-14.63 22.95,-34.69 28.15,-48.82 4.21,-11.41 4.55,-14.36 4.54,-38.83 -0.01,-24.54 -0.52,-28.87 -7.05,-59.34 -11.77,-54.91 -12.96,-64.16 -13,-100.42 -0.03,-37.47 2.67,-54.29 13.39,-83.15 3.35,-9.01 5.68,-17.1 5.17,-17.97 -0.5,-0.87 -5.31,-3.47 -10.68,-5.77 -18.13,-7.76 -29.39,-14.58 -30.79,-18.67 -1.77,-5.17 0.44,-13.67 7.87,-30.12 7.95,-17.64 14.87,-24.17 25.59,-24.17 10.15,0 25.88,5.65 38.46,13.81 5.32,3.45 10.42,6.28 11.34,6.28 0.92,0 5.54,-3.75 10.28,-8.34 18.03,-17.46 64.1,-46.4 81.26,-51.04 5.91,-1.6 9.1,-5.86 10.44,-13.92 3.33,-20.03 19.84,-24.1 54.12,-13.35 13.31,4.17 15.28,4.29 51.97,3.26 52.52,-1.49 85.73,2.74 126.25,16.07 43.15,14.19 79.88,40.65 108.17,77.9l9.65 12.71 13.96 0.82c10.92,0.64 16.11,1.96 23.82,6.06 12.04,6.4 27.16,23.3 34.02,38.01 3.12,6.68 6.72,11.53 9.88,13.29 9.76,5.44 14.84,27.63 8.53,37.27 -2.37,3.62 -2.85,7.6 -2.45,20.04 0.54,16.82 -2.53,33.04 -8.23,43.47 -4.2,7.68 -4.15,9.93 0.33,14.22 4.53,4.34 9.84,16.56 9.89,22.75 0.07,9.38 -8.24,23.37 -18.57,31.21l-9.75 7.41 -0.9 16.7c-0.49,9.19 -0.64,16.99 -0.33,17.35 0.32,0.36 8.96,-0.67 19.2,-2.28 22.95,-3.61 38.11,-3.81 40.64,-0.52 1.03,1.33 2.79,6.75 3.93,12.05 1.62,7.58 3.34,10.65 8.09,14.47 8.77,7.05 10.15,9.47 10.21,17.94 0.04,5.58 -1.11,9.12 -4.31,13.2l-4.36 5.58 4.34 33.36c6.73,51.71 9.8,87.47 10.07,117.42 0.31,34.7 0.26,34.8 -20.34,41.64 -45.08,14.95 -157.85,51.29 -182.56,58.84 -27.59,8.42 -34.96,12.28 -34.96,18.33 0,1.24 3.81,3.61 8.46,5.27 16.93,6.06 23.18,21.42 21.66,53.24 -1.07,22.41 -5.67,37.51 -13.97,45.82 -6.58,6.58 -10.19,7.3 -15.72,3.13 -5.61,-4.24 -7.77,-15.71 -6.54,-34.85 0.94,-14.7 0.69,-17.17 -2.16,-20.95 -2.76,-3.67 -5.07,-4.39 -15.96,-4.99l-12.74 -0.69 -7.36 7.27c-36.39,35.97 -90.69,61.47 -150.67,70.72 -22.89,3.53 -75.2,4.96 -98.7,2.69l-0 0zm103.9 -8.79c64.25,-11.78 109.55,-34.89 148.79,-75.92 18.13,-18.95 37.29,-44.03 35.29,-46.19 -0.64,-0.68 -16.05,2.68 -34.25,7.48 -38.5,10.14 -50.18,11.91 -54.33,8.23 -9.58,-8.51 -38.88,-104.87 -55.73,-183.29 -2.59,-12.05 -5.44,-22.94 -6.35,-24.19 -0.9,-1.25 -3.31,-2.28 -5.36,-2.28 -8.09,0 -21.74,-5.93 -28.27,-12.29 -6.94,-6.75 -11.02,-13.66 -13.44,-22.73 -2.52,-9.48 1.52,-7.11 7.1,4.17 6.13,12.39 13.23,18.57 26.14,22.76 23.21,7.53 61.75,-3.91 61.75,-18.32 0,-8.23 -3.89,-9.2 -18.25,-4.54 -15.85,5.14 -27.8,5.43 -36.53,0.91 -7.04,-3.65 -10.72,-8.55 -11.6,-15.43 -0.83,-6.49 2.88,-6.65 5.34,-0.24 2.34,6.09 6.81,7.52 6.81,2.18 0,-5.48 5.02,-8.85 22.05,-14.8 31.42,-10.97 143.29,-39.92 234.7,-60.73l18.64 -4.24 0 -14.57 0 -14.57 -10.66 -1.27c-18.37,-2.18 -30.6,-14.41 -32.09,-32.1 -1.17,-13.9 8.24,-28.71 24.49,-38.51 1.82,-1.1 2.92,-4.64 3.24,-10.46 0.75,-13.75 11,-25.13 24.79,-27.51 3.65,-0.63 7.07,-2.35 7.59,-3.83 1.49,-4.18 -5.85,-41.33 -12.24,-61.89 -7.02,-22.63 -16.77,-43.98 -29.45,-64.5 -10.57,-17.12 -36.54,-46.54 -51.25,-58.05 -34.12,-26.71 -78.22,-43.45 -130.68,-49.61 -21.22,-2.49 -68.03,-2.48 -89.11,0.02 -64.46,7.65 -128.2,35.31 -166.19,72.1 -7.19,6.97 -8.53,9.21 -7.69,12.84 0.56,2.42 0.54,4.4 -0.06,4.4 -0.59,0 -5.06,-3.41 -9.93,-7.59 -12.49,-10.71 -28.66,-18.25 -41.53,-19.38 -9.54,-0.83 -11.11,-0.47 -15,3.43 -7.68,7.72 -20.11,37.28 -18.07,42.99 1.38,3.87 20.05,13.08 45.89,22.62 11.39,4.21 20.71,8.37 20.71,9.26 0,2.41 -5.47,1.95 -13.67,-1.17 -9.13,-3.47 -9.83,-2.8 -16.73,15.85 -10.3,27.82 -12.67,42.72 -12.75,80.04 -0.07,37.36 0.62,42.95 12.15,97.68 18.34,87.04 10.98,113.3 -51.52,183.87 -43.13,48.69 -55.85,69.11 -63.45,101.8 -4.67,20.08 -3.85,54.46 1.73,73.34 4.38,14.79 6.92,17.64 11.2,12.54 3.13,-3.73 7.62,-4.92 7.62,-2.03 0,0.89 -3.62,5.77 -8.05,10.85 -18.97,21.77 -45.55,24.06 -67.96,5.85 -4.99,-4.05 -10.84,-7.37 -13.01,-7.37 -4.46,0 -9.27,4.38 -9.27,8.44 0,8.74 13.71,24.03 27.76,30.95 32.81,16.17 66.87,11.63 85.72,-11.44 7.97,-9.75 11.06,-9.03 5.55,1.29 -2.08,3.9 -3.78,8.17 -3.78,9.5 0,5.87 30.87,27.73 54.43,38.55 25.36,11.65 76.7,24.08 117.59,28.47 10.25,1.1 21.31,2.33 24.57,2.73 15.81,1.95 77.94,-0.7 96.6,-4.12l-0 0zm92.89 -451.3c-30.95,-5.3 -54.42,-16.75 -70.91,-34.58 -12.71,-13.74 -20.16,-27.84 -25.66,-48.55 -5.32,-20 -5.33,-56.99 -0.02,-78.06 5.73,-22.73 15.97,-42.09 30.72,-58.11 10.76,-11.69 15.64,-15.38 30.59,-23.18 23.41,-12.2 33.8,-15.03 59.72,-16.25 32.14,-1.52 51.73,4.06 72.81,20.73 19.15,15.15 37.97,47.47 45.54,78.24 4.72,19.19 5.22,53.05 1.03,70.29 -10.55,43.38 -40.4,74.15 -83.35,85.89 -15.53,4.25 -45.99,6.04 -60.48,3.56l0 0zm63.82 -9.98c19.64,-6.24 33.04,-14.03 45.6,-26.52 26.56,-26.4 37.84,-66.21 30.91,-109.01 -9.04,-55.8 -41.15,-96.93 -83.25,-106.62 -5.59,-1.29 -17.79,-2.29 -27.11,-2.23 -49.64,0.34 -94.28,27.41 -112.36,68.14 -10.49,23.63 -12.85,35.28 -12.94,63.9 -0.05,18 0.73,27.85 2.9,36.52 10.82,43.11 39.83,70.08 85.37,79.37 20.33,4.15 51.57,2.58 70.87,-3.55zm-10.12 -85.58c-7.93,-3.93 -11.43,-9.4 -12.31,-19.22 -1.05,-11.81 1.88,-20.72 9.08,-27.53 4.91,-4.64 7.32,-5.57 14.47,-5.57 7.46,0 9.32,0.79 14.19,6.04 10.48,11.29 11.71,30.94 2.63,41.89 -3.87,4.67 -6.11,5.68 -13.8,6.24 -5.5,0.4 -11.22,-0.35 -14.27,-1.86l-0 -0zm21.91 -22.32c3.15,-3.39 3.51,-11.92 0.63,-15.02 -1.12,-1.2 -4.02,-2.19 -6.44,-2.19 -5.53,0 -8.47,3.09 -8.47,8.89 0,9.19 8.75,14.28 14.28,8.32l0 -0zm-398.03 -141.78c-5.99,-9.22 -1.14,-19.68 9.13,-19.68 10.96,0 42.45,18.88 38.53,23.1 -0.6,0.64 -3.98,-0.89 -7.51,-3.41 -16.32,-11.64 -29.54,-16.96 -34.7,-13.99 -2.85,1.64 -3.18,3.12 -2.22,9.98 1.26,9.06 0.6,9.88 -3.23,4l0 0zm432.2 692.89c12.48,-13.44 16.41,-63.8 6.16,-78.94 -3.24,-4.79 -11.52,-9.94 -19.19,-11.95 -3.93,-1.03 -5.63,0.44 -15.68,13.52 -6.2,8.07 -11.27,15.08 -11.27,15.57 0,0.49 2.86,1.4 6.36,2.03 18.89,3.37 20.76,6.45 20.76,34.25 0,11.89 0.79,23.21 1.75,25.16 2.18,4.38 7.23,4.55 11.1,0.37l0 0zm-61.48 -99.92c34.13,-8.78 93.03,-26.59 167.2,-50.52 89.87,-29.01 105.12,-34.35 105.09,-36.82 -0.04,-3.08 -106.39,-80.63 -116.05,-84.62 -1.15,-0.47 -7.32,5.96 -13.71,14.3 -15.16,19.77 -18.92,23.39 -24.24,23.35 -2.43,-0.01 -13.45,-3.3 -24.48,-7.3 -11.04,-4 -20.35,-7.28 -20.68,-7.28 -2.87,0 -107.95,152.99 -106.64,155.26 1.16,2.02 0.15,2.21 33.53,-6.38l0 -0zm-10.3 -40.42c17.03,-24.7 41.12,-59.25 53.53,-76.78 12.41,-17.53 22.31,-32.72 21.98,-33.76 -0.32,-1.04 -8.95,-5.57 -19.18,-10.07 -10.23,-4.5 -38.31,-17.24 -62.41,-28.31l-43.81 -20.13 -9.57 4.58c-5.26,2.52 -14.33,5.58 -20.16,6.79 -8.52,1.77 -10.59,2.88 -10.59,5.64 0,4.8 15.55,69.96 24.56,102.9 14.86,54.36 28.81,94.03 33.06,94.03 0.9,0 15.56,-20.21 32.59,-44.91l-0 0zm291.51 -61.13c3.32,-20.44 -7.51,-130.54 -19.2,-195.22 -4.39,-24.31 -4.75,-25.58 -7.17,-25.47 -1.1,0.05 -12.68,16.63 -25.72,36.84 -13.04,20.21 -34.28,52.4 -47.2,71.53l-23.48 34.78 3.98 3.32c2.19,1.82 28.17,20.57 57.73,41.66 29.56,21.09 54.23,39.18 54.81,40.19 2.13,3.71 4.97,0.24 6.25,-7.63l0 0zm-727.58 -42.56c5.5,-7.47 6.43,-11.05 3.39,-13.08 -1.01,-0.67 -7.15,-8.94 -13.64,-18.37 -6.49,-9.43 -12.88,-17.14 -14.2,-17.14 -3.29,0 -8,5.78 -13.39,16.47 -3.77,7.47 -4.22,9.67 -2.61,12.91 4.04,8.13 29.77,29.63 33.06,27.63 1.19,-0.72 4.51,-4.51 7.39,-8.41l0 -0zm573.26 -2.49c8.32,-9.36 27.53,-36.23 53.55,-74.88 27.74,-41.22 69.85,-105.8 69.85,-107.13 0,-9.69 -269.72,51.71 -341.48,77.73 -18.69,6.78 -20.78,9.57 -11.01,14.71 7.42,3.91 12.85,4.05 22.03,0.56 17.6,-6.69 28.47,-0.59 26.33,14.78l-1.05 7.53 42.01 19.34c68.93,31.73 123.16,54.15 131.06,54.19 1.44,0.01 5.36,-3.07 8.71,-6.83zm148.5 -140.64c0.6,-4.39 -2.36,-11.36 -4.83,-11.36 -1.84,0 -2.11,6.11 -0.55,12.4 1.25,5.03 4.63,4.37 5.37,-1.04zm-96.63 -51.35c0.28,-7.44 -0.18,-14.26 -1.03,-15.16 -0.84,-0.91 -3.45,-1.13 -5.81,-0.49 -3.53,0.95 -4.41,2.48 -5.05,8.77 -0.43,4.19 -0.43,10.74 -0.01,14.56 0.73,6.54 1.08,6.91 6.08,6.39l5.31 -0.56 0.5 -13.52zm12.23 8.01c2.84,-3.69 4.41,-27.37 1.92,-29.02 -1.03,-0.69 -3.41,-0.36 -5.29,0.73 -3,1.73 -3.43,3.8 -3.43,16.52 0,11.13 0.55,14.54 2.33,14.54 1.28,0 3.29,-1.24 4.47,-2.77l0 0zm-16.05 -31.1c13.15,-3.68 26.58,-10.36 34.62,-17.21 13.52,-11.54 15.69,-29.4 5,-41.29 -6.61,-7.35 -9.59,-7.85 -10.98,-1.87 -0.56,2.4 -3.26,6.68 -5.99,9.5 -4.18,4.31 -6.75,5.26 -16.03,5.89 -9.81,0.67 -12.3,0.1 -22.17,-5.15 -12.5,-6.63 -14.34,-6.37 -24.8,3.52 -8.16,7.72 -11.99,18.37 -9.78,27.18 5.13,20.45 22.45,27.16 50.14,19.41l-0 0zm17.73 -58.56c5.75,-6.02 5.72,-18.78 -0.06,-25.42 -9,-10.32 -26.04,-9.75 -34.56,1.16 -7.18,9.2 -5.33,19.2 4.59,24.76 12.51,7.02 23.01,6.84 30.03,-0.5zm22.88 -27.17c4.83,-10.4 5.08,-12.06 4.98,-32.87 -0.3,-62.53 -30.2,-112.29 -67.46,-112.29 -4,0 -7.74,0.49 -8.3,1.1 -0.56,0.6 1.65,6.15 4.92,12.32 14.82,28.04 25.41,59.56 31.16,92.78 4.71,27.2 4.09,25.59 11.63,30.21 4.73,2.91 7.48,6.39 9.75,12.36 2.01,5.3 4.08,8.14 5.7,7.82 1.4,-0.27 4.83,-5.42 7.63,-11.44l-0 0zm-396.56 -246.7c23.96,-6.15 22.88,-5.78 22.88,-7.83 0,-2.84 -24.92,-8.02 -33.57,-6.97 -9.37,1.14 -15.58,7.61 -15.58,16.23 0,4.91 0.46,5.45 3.81,4.47 2.1,-0.62 12.2,-3.27 22.45,-5.9l0 0z"/>
    <path id="path911" class="fil1" d="M733.39 299.54c-4.47,-0.42 -8.32,-1.6 -13.14,-4.02 -3.21,-1.61 -5.2,-3.01 -7,-4.94 -2.02,-2.16 -3.23,-4.51 -3.74,-7.27 -0.26,-1.4 -0.24,-3.5 0.04,-4.95 0.72,-3.69 2.68,-7.29 5.66,-10.37 3.19,-3.31 7.49,-5.57 12.14,-6.4 2.14,-0.38 5.16,-0.46 7.1,-0.19 4.28,0.6 7.99,2.18 11.11,4.72 3.75,3.06 5.79,6.69 6.65,11.83 0.19,1.11 0.21,1.44 0.21,3.47 0.01,2.37 -0.05,2.99 -0.4,4.72 -0.28,1.35 -0.73,2.75 -1.32,4.03 -1.02,2.22 -2.27,3.79 -4.37,5.49 -2.4,1.94 -5.19,3.18 -8.33,3.69 -1,0.16 -3.74,0.28 -4.61,0.2l0 0z"/>
    <path id="path919" class="fil2" d="M707.13 355.51c-13.32,-1 -22.07,-7.69 -25.96,-19.85 -0.59,-1.83 -1,-3.57 -1.19,-4.99 -0.21,-1.59 -0.09,-5.33 0.24,-7.06 0.86,-4.59 3.11,-9.43 6.28,-13.52 2.93,-3.77 8.94,-9.19 12.06,-10.89 1.57,-0.85 2.79,-1.18 4.39,-1.18 2.81,0 5.01,0.83 12.31,4.62 8.38,4.36 10.99,5.17 16.74,5.16 2.51,0 5.06,-0.14 8.16,-0.44 5.61,-0.55 8.25,-1.45 10.98,-3.71 1.14,-0.95 3.31,-3.27 4.36,-4.66 1.97,-2.64 3.09,-4.75 3.84,-7.25 0.33,-1.11 0.64,-1.89 0.93,-2.34 1.53,-2.35 3.97,-1.42 8.43,3.2 2.75,2.84 4.51,5.35 5.84,8.28 5.3,11.67 1.27,25.6 -10.09,34.92 -11.73,9.63 -32.16,17.85 -48.48,19.51 -2.36,0.24 -6.84,0.33 -8.83,0.19z"/>
    <path id="path931" class="fil3" d="M325.81 835.9c-40.32,-1.79 -99.48,-13.09 -135.12,-25.8 -22.93,-8.18 -55.47,-27.57 -65.66,-39.12l-3.65 -4.13 3.31 -7.7c1.82,-4.23 3.31,-8.28 3.31,-9 0,-2.94 -3.8,-0.95 -8.78,4.61 -13.46,15.01 -25.72,20.48 -46.2,20.6 -23.12,0.14 -42.52,-7.49 -56.4,-22.18 -9.45,-10 -11.57,-15.69 -7.78,-20.88 1.48,-2.03 4.03,-3.68 5.66,-3.68 1.64,0 7.73,3.24 13.55,7.19 14.58,9.92 21.26,12.09 34.74,11.29 15.75,-0.94 27.46,-7.93 38.57,-23.05 3.13,-4.25 3.82,-6.15 2.7,-7.36 -1.12,-1.21 -2.61,-0.76 -5.76,1.75 -5.73,4.57 -7.78,2.92 -11.63,-9.37 -6.93,-22.08 -7,-58.39 -0.17,-82.31 7.82,-27.38 19,-44.47 61.06,-93.27 11.33,-13.15 23.74,-28.11 27.57,-33.23 26.89,-35.97 35.51,-63.39 31.99,-101.82 -1.47,-16.09 -3.84,-29.53 -14.35,-81.59 -4.79,-23.71 -4.82,-24.05 -4.95,-60.68 -0.16,-41.33 0.82,-50.05 8.17,-72.84 5.83,-18.06 9.67,-26.9 12.14,-27.92 1.07,-0.44 5.94,0.25 10.84,1.53 5.99,1.57 9.34,1.85 10.25,0.87 1.93,-2.08 0.28,-2.95 -24.77,-13.02 -24.12,-9.7 -39.64,-17.5 -40.58,-20.41 -1.75,-5.41 9.49,-32.27 17.19,-41.07 3.42,-3.91 5.28,-4.85 9.46,-4.84 13.88,0.06 32.09,7.99 48.09,20.94 4.41,3.57 8.49,6.49 9.05,6.49 0.57,0 1.03,-2.22 1.03,-4.93 0,-4.22 1.26,-6.17 8.78,-13.6 31.99,-31.58 87.5,-57.37 146.88,-68.25 21.33,-3.91 75.73,-5.48 101.38,-2.94 48.16,4.78 93.71,20.57 127.21,44.09 12.5,8.78 29.26,25.36 44.37,43.91 27.53,33.79 46.66,79.48 54.78,130.88 2.45,15.49 2.33,15.93 -4.64,17.57 -1.84,0.43 -6.53,2.37 -10.42,4.32 -8.36,4.18 -14.25,12.91 -15.69,23.26 -1.32,9.48 -1.45,9.69 -9.43,15.62 -21.18,15.71 -24.45,41.77 -7.25,57.63 5.38,4.96 16.2,9.6 22.49,9.63 9.3,0.05 9.57,0.48 9.57,15.22 0,11.58 -0.33,13.56 -2.35,14.19 -1.29,0.4 -16.83,4.07 -34.53,8.15 -82.6,19.05 -187.12,46.4 -215.47,56.38 -17.69,6.23 -22.26,8.93 -23.41,13.85 -1.07,4.61 -2.85,4.33 -5.6,-0.89 -1.26,-2.39 -3.41,-4.33 -4.81,-4.33 -2.12,-0.01 -2.4,0.77 -1.78,4.93 2.56,17 21.13,23.07 47.51,15.55 14.17,-4.04 16.17,-3.99 18.07,0.51 2.12,5.01 -1.66,10.32 -10.9,15.32 -9.03,4.88 -19.19,7.04 -33.21,7.04 -18.71,0 -31.74,-6.64 -39.35,-20.06 -5.6,-9.87 -9.41,-14.75 -10.8,-13.82 -3.19,2.12 4.28,19.24 11.73,26.87 6.13,6.28 16.67,12.2 23.99,13.48 11.55,2.02 11.04,1.58 13.85,11.97 1.45,5.36 5.08,20.47 8.06,33.58 13.52,59.46 35.09,131.99 46.44,156.11 5.08,10.79 7.87,12.2 20.3,10.2 5.64,-0.9 20.79,-4.26 33.68,-7.47 12.89,-3.2 23.66,-5.57 23.94,-5.27 0.99,1.07 -1.24,18.37 -2.37,18.37 -0.63,0 -1.15,1.19 -1.15,2.66 0,3.08 -26.11,30.95 -38.73,41.33 -4.7,3.87 -14.29,10.8 -21.3,15.41l-12.75 8.37 -6.45 -3.52c-11.08,-6.05 -26.04,-10.78 -34.07,-10.78 -13.09,0 -18.75,5.28 -28.29,26.4 -3.15,6.97 -5.93,13.29 -6.17,14.05 -1.48,4.65 -70.4,10.58 -105.04,9.05l0 0zm214.88 -454.05c27.34,-2.29 46.99,-8.82 65.29,-21.7 35.33,-24.85 52.17,-65.48 47.85,-115.42 -1.68,-19.39 -4.08,-29.8 -10.65,-46.23 -14.72,-36.79 -37.97,-61.83 -66.89,-72.02 -19.75,-6.96 -61.87,-6.14 -83.04,1.62 -13.82,5.07 -34.69,16.69 -43.16,24.04 -24.56,21.31 -40.05,53.69 -43.21,90.35 -3.25,37.61 3.94,70.29 20.7,94.12 16.97,24.13 47.13,40.63 82.63,45.18 12.31,1.58 12.32,1.58 30.48,0.06l0 -0zm-351.95 -265.08c-0.73,-7.61 -0.64,-7.88 2.9,-8.84 5.25,-1.42 13.15,1.47 26.55,9.71 13.5,8.31 19.23,9.04 11.91,1.51 -6.87,-7.06 -25.65,-16.53 -34.3,-17.31 -6.44,-0.57 -7.65,-0.23 -10.71,3.07 -4.19,4.51 -4.44,10.04 -0.74,16.56 3.66,6.47 5.29,4.73 4.39,-4.71l-0 -0z"/>
    <path id="path933" class="fil4" d="M301 833.41c-35.93,-4.27 -81.21,-13.88 -105.95,-22.5 -27.34,-9.52 -69.23,-34.76 -71.72,-43.2 -0.41,-1.4 0.46,-5.4 1.93,-8.9 5.36,-12.71 3.2,-13.02 -9.39,-1.35 -11.13,10.32 -14.62,12.38 -25.69,15.19 -17.2,4.37 -39.8,1.57 -56.05,-6.93 -10.21,-5.34 -24.83,-19.91 -26.26,-26.17 -0.8,-3.49 -0.35,-4.79 2.62,-7.54 4.21,-3.91 4.76,-3.75 20.29,5.89 13.77,8.54 18.93,9.99 32.54,9.09 14.47,-0.95 22.64,-5.21 33.62,-17.53 4.55,-5.1 8.27,-10 8.27,-10.89 0,-2.81 -3.78,-3.32 -6.94,-0.93 -4.73,3.57 -6.41,2.8 -9.31,-4.25 -5.03,-12.24 -6.93,-28.32 -6.16,-51.97 1.5,-45.84 9.72,-62.11 63.56,-125.86 44.05,-52.15 54.55,-69.85 60.21,-101.47 3.79,-21.21 1.86,-40.75 -9.75,-98.22l-7.49 -37.11 -0.62 -36.42c-0.4,-23.27 -0.06,-40.97 0.93,-49 1.64,-13.27 8.8,-38.32 14.27,-49.97 2.89,-6.14 3.75,-6.93 7.6,-6.89 2.39,0.02 7,0.7 10.25,1.5 4.15,1.03 6.35,1 7.36,-0.09 2.05,-2.21 0.97,-2.8 -28.03,-15.16 -14.01,-5.97 -27.89,-12.36 -30.84,-14.2 -4.92,-3.06 -5.34,-3.79 -5.05,-8.88 0.37,-6.39 9.32,-27.2 14.62,-33.99 5.06,-6.47 8.68,-7.6 18.32,-5.72 11.97,2.34 23.4,7.74 36.71,17.36 6.51,4.7 12.28,8.55 12.84,8.56 0.55,0 1.01,-1.76 1.01,-3.91 0,-8.37 28.22,-32.83 54.09,-46.88 34.79,-18.9 79.4,-33.16 116.89,-37.39 8.11,-0.91 30.44,-1.69 49.62,-1.73 29.1,-0.05 37.97,0.45 53.64,3.03 49.61,8.17 91.77,25.79 120.3,50.29 25.9,22.24 50.04,54.14 64.57,85.34 10.97,23.55 23.52,68.8 24.06,86.78l0.27 9.1 -6.95 2.57c-14.93,5.51 -21.54,13.27 -24.66,28.93 -1.27,6.4 -2.37,7.99 -10.32,14.86 -11.47,9.92 -16.4,19.47 -16.4,31.75 0,18.51 12.19,31.41 32.63,34.52 4.34,0.66 8.12,1.45 8.41,1.76 1.29,1.39 2.13,14.44 1.31,20.32 -0.88,6.33 -1.06,6.53 -7.21,8.05 -3.47,0.86 -24.16,5.78 -45.98,10.93 -84.67,19.99 -176.24,44.28 -200.92,53.31 -15.22,5.56 -20.25,8.55 -21.24,12.61 -0.88,3.63 -1.97,3.46 -5.47,-0.87 -3.92,-4.86 -6.96,-4.7 -6.95,0.36 0.01,6.01 4.59,12.87 11.01,16.49 7.32,4.13 22.95,4.41 36.77,0.68 12.61,-3.41 17.13,-2.85 17.67,2.17 1.03,9.55 -19.21,18.96 -41.06,19.08 -22.93,0.13 -32.37,-5.16 -45.85,-25.7 -7.55,-11.51 -10.67,-7.82 -4.62,5.48 6.61,14.53 19.95,25.23 35.63,28.55 4.72,1 8.45,2.64 9.12,4.02 0.62,1.28 4.6,16.96 8.83,34.84 20.39,86.1 42.9,158.42 52.56,168.88 4.43,4.79 4.69,4.87 12.85,3.95 4.58,-0.52 20.43,-5.05 33.71,-8.22 13.27,-3.17 44.32,-12.04 45.24,-12.04 2.55,0 -17.22,23.31 -20.09,30.05 -5.38,12.64 -43.42,42.76 -67.68,57.89l-6.42 4.01c-52.76,26.13 -48.91,22.62 -80.47,28.59 -19.07,5.53 -94.8,8.61 -124.61,5.07l0 0zm245.01 -451.67c64.32,-7.73 104.65,-49.81 108.59,-113.32 3.94,-63.6 -31.39,-126.78 -80.02,-143.06 -11.21,-3.75 -49.07,-4.63 -65.68,-1.52 -22.87,4.28 -48.93,17.96 -64.83,34.02 -21.03,21.24 -33.3,48.15 -37.19,81.54 -5.74,49.29 9.33,93.93 39.54,117.16 27.6,21.22 61.41,29.77 99.58,25.18l-0 0zm-356.54 -264.82l-0.45 -7.43 5.81 -0.45c4.87,-0.38 8.19,0.86 20.41,7.59 14.18,7.81 18.7,9.43 18.7,6.72 0,-5.49 -27.35,-20.62 -38.88,-21.52 -7.1,-0.55 -7.84,-0.31 -10.65,3.54 -3.52,4.81 -3.21,13.34 0.65,17.93 3.43,4.08 4.9,1.95 4.4,-6.38l0 0z"/>
    <path id="path935" class="fil4" d="M98.21 577.24c-8.68,-4.42 -26.56,-20.69 -29.23,-26.59 -0.89,-1.97 -1.03,-2.72 -0.81,-4.24 0.54,-3.64 7.28,-16.27 11.22,-21.05 0.91,-1.1 2.44,-2.41 3.41,-2.92 1.69,-0.88 1.8,-0.89 2.82,-0.17 1.45,1.02 6.52,7.27 10.98,13.53 10.13,14.21 13.37,18.61 15.31,20.78 2.45,2.75 2.61,3.76 1.13,6.92 -2.06,4.37 -10.41,15.02 -11.78,15.02 -0.31,0 -1.68,-0.57 -3.05,-1.27l-0 0z"/>
    <path id="path939" class="fil3" d="M82.08 643.87c0.02,-0.13 0.16,-1.07 0.31,-2.08 0.83,-5.54 2.45,-12.33 4.59,-19.25 7.08,-22.89 18.99,-41.76 46.94,-74.46 3.65,-4.28 7.17,-8.31 12.52,-14.38 3.79,-4.3 6.44,-7.32 8.47,-9.68 2.63,-3.06 2.46,-2.87 2.77,-2.87 0.15,0 0.26,0.03 0.25,0.08 -0.03,0.09 -4.59,5.47 -9.01,10.62 -5.56,6.48 -8.81,10.28 -10.56,12.35 -25.35,29.89 -37.05,46.25 -44.37,62.03 -2.57,5.54 -4.38,10.29 -6.41,16.87 -2.09,6.77 -3.29,12.02 -4.32,19l-0.3 2.01 -0.45 0c-0.45,0 -0.45,-0 -0.41,-0.23l0 -0z"/>
    <path id="path941" class="fil3" d="M100.84 578.61c-0.97,-0.16 -2.5,-0.87 -4.41,-2.05l-0.25 -0.15 -0.01 -0.15c-0,-0.08 -0,-0.15 0,-0.15 0.01,0 0.12,0.07 0.27,0.16 0.96,0.58 1.86,1.06 2.92,1.54 0.87,0.4 1.55,0.66 1.86,0.71 0.2,0.04 0.6,-0.21 1.17,-0.73 1.11,-1 2.94,-3.1 4.86,-5.59 2.18,-2.81 4.13,-5.66 5.24,-7.62 0.67,-1.2 1.23,-2.49 1.41,-3.3 0.08,-0.34 0.09,-0.49 0.1,-0.8 0.01,-0.39 -0.02,-0.59 -0.13,-1.03 -0.01,-0.04 -0.01,-0.04 0.18,-0.04l0.19 -0 0.01 0.05c0.06,0.34 0.05,0.98 -0.03,1.46 -0.31,1.8 -1.51,4.17 -3.78,7.44 -1.94,2.8 -4.32,5.79 -6.32,7.97 -1.26,1.37 -2.08,2.12 -2.46,2.25 -0.17,0.06 -0.52,0.07 -0.8,0.03l0 0z"/>
    <path id="path945" class="fil2" d="M607.79 813.08c-1.14,-1.23 -2.07,-11.95 -2.07,-23.83 0,-24.8 -3.67,-32.21 -17.49,-35.3l-9.65 -2.16 11.31 -14.07c10.35,-12.89 11.99,-13.79 19.44,-10.71 14.02,5.79 18.32,16.8 16.97,43.45 -1.52,29.8 -10.73,51.01 -18.51,42.63z"/>
    <path id="path951" class="fil2" d="M56.73 773.71c-9.34,-1.65 -20.56,-5.97 -27.77,-10.68 -6.84,-4.48 -15.58,-13.14 -18.86,-18.69 -3.31,-5.61 -3.27,-9.04 0.18,-12.75 3.29,-3.55 4.84,-3.3 13.84,2.19 3.44,2.1 10,5.83 14.58,8.29 7.94,4.25 8.76,4.49 17.48,4.9 7.34,0.35 10.63,0.04 16.61,-1.59 9.12,-2.48 14.01,-5.47 21.29,-12.98l5.59 -5.77 6.44 6.66c3.54,3.66 7.21,7.47 8.15,8.46 1.51,1.59 4.14,9.68 4.17,12.84 0.01,1.64 -11.18,11.13 -16.58,14.05 -2.49,1.35 -6.91,3.14 -9.84,4 -7.47,2.18 -25.84,2.73 -35.28,1.06l0 0z"/>
    <path id="path971" class="fil4" d="M349.33 20.39c0,-2.18 2.24,-6.22 4.97,-8.99 4.56,-4.61 6.22,-4.93 20,-3.81 8.27,0.67 16.63,2.19 18.58,3.36 3.81,2.3 4.65,1.96 -24.73,10 -15.89,4.35 -18.82,4.26 -18.82,-0.57z"/>
    <path id="path838" class="fil5" d="M499.72 373.37c-44.17,-10.25 -70.76,-34.09 -82.79,-74.21 -4.47,-14.9 -4.54,-63.29 -0.12,-79.97 12.22,-46.1 47.37,-79.21 94.17,-88.72 41.24,-8.38 72.45,-0.04 98.32,26.29 15.04,15.3 25.16,33.39 32.77,58.55 4.59,15.18 5.37,21.35 5.47,43.37 0.11,23.06 -0.43,27.24 -5.28,41.12 -12.91,36.98 -39.56,61.88 -76.47,71.44 -17.37,4.5 -51.16,5.59 -66.08,2.13l0 0zm86.19 -88.2c9.42,-5.04 12.4,-26.05 5.6,-39.38 -5.45,-10.68 -11.86,-14.55 -21.89,-13.21 -13.87,1.86 -21.59,12.81 -21.45,30.47 0.08,10.87 3.29,17.77 10.02,21.49 5.74,3.18 22.25,3.55 27.72,0.62l0 -0z"/>
    <path id="path840" class="fil5" d="M571.05 260.6c-3.37,-8.79 1.08,-15.33 9.02,-13.25 2.99,0.78 3.65,2.47 3.17,8.13 -0.51,6.06 -1.39,7.24 -5.78,7.75 -3.37,0.39 -5.61,-0.53 -6.42,-2.63z"/>
    <path id="path842" class="fil5" d="M759.18 271.05c-1.47,-3.54 -6.01,-9.55 -10.09,-13.36 -7.07,-6.59 -7.67,-8.16 -12.49,-32.59 -6.05,-30.68 -15.54,-59.95 -26.48,-81.7 -4.41,-8.77 -8.02,-16.86 -8.02,-17.97 0,-3.31 16.19,-2.2 24.68,1.68 10.45,4.79 24.9,20.58 32.37,35.38 9.62,19.05 14.08,38.06 15.38,65.56 1.08,22.68 0.81,25.52 -3.27,34.99 -6.16,14.31 -8.76,16.03 -12.09,8z"/>
    <path id="path844" class="fil5" d="M724.23 374.68c0.52,-11.82 1.03,-13.33 4.53,-13.33 3.5,0 4.01,1.51 4.53,13.33 0.58,13.18 0.52,13.33 -4.53,13.33 -5.06,0 -5.11,-0.15 -4.53,-13.33z"/>
    <path id="path848" class="fil5" d="M640.89 562.01c-30,-12.11 -58.15,-24.43 -107.61,-47.09l-29.62 -13.57 -1.02 -9.78c-0.56,-5.38 -1.71,-10.86 -2.54,-12.17 -2.75,-4.34 -14.23,-5.03 -25.37,-1.52 -9.73,3.07 -11.27,3.09 -18.01,0.28 -4.05,-1.69 -7.37,-4.06 -7.37,-5.27 0,-1.2 3.77,-3.85 8.39,-5.89 38.84,-17.13 280.65,-75.38 333.21,-80.26l14.3 -1.33 -3.65 5.73c-2.01,3.16 -18.22,27.95 -36.02,55.1 -58.07,88.54 -86.34,127.37 -92.7,127.33 -1.85,-0.01 -16.25,-5.22 -32,-11.58l-0 0z"/>
    <path id="path850" class="fil5" d="M822.55 613.29c-3.8,-3.08 -28.24,-20.9 -54.3,-39.61 -26.06,-18.7 -48.56,-35.13 -49.99,-36.49 -2.12,-2.03 5.89,-15.29 44.05,-72.87 39.89,-60.2 50.36,-74.65 50.36,-69.48 0,0.5 2.21,13.6 4.91,29.12 12.3,70.74 22.28,179.71 17.59,191.94 -1.7,4.43 -4.71,3.8 -12.62,-2.61z"/>
    <path id="path852" class="fil5" d="M524.4 718.4c0,-4.04 100.12,-148.64 103.92,-150.1 1.31,-0.5 12.33,2.3 24.48,6.23 26.07,8.43 25.29,8.66 41.98,-12.25 14.34,-17.97 15.87,-19.13 21.32,-16.21 8.7,4.65 81.41,57.13 100.1,72.24l10.44 8.44 -5.5 2.8c-15.33,7.8 -196.31,64.95 -261.03,82.44 -28.37,7.66 -35.71,8.98 -35.71,6.42l-0 0z"/>
    <path id="path854" class="fil5" d="M508.95 712.43c-7.5,-14.16 -25.59,-75.08 -40.82,-137.48 -14.44,-59.17 -14.44,-54.47 0.04,-58.6 6.54,-1.87 14.72,-4.85 18.17,-6.64 3.45,-1.78 7.21,-3.24 8.37,-3.24 1.15,0 29.67,12.58 63.37,27.95 49.14,22.41 61.05,28.57 60.1,31.1 -2.82,7.52 -101.8,148.66 -105,149.72 -1.28,0.42 -3.19,-0.84 -4.23,-2.8l0 0z"/>
   </g>
  </g>
 </g>
</svg>
