<?xml version="1.0" encoding="UTF-8"?>
<!DOCTYPE svg PUBLIC "-//W3C//DTD SVG 1.1//EN" "http://www.w3.org/Graphics/SVG/1.1/DTD/svg11.dtd">
<!-- Creator: CorelDRAW 2018 (64-Bit) -->
<svg xmlns="http://www.w3.org/2000/svg" xml:space="preserve" width="29.501mm" height="40mm" version="1.1" style="shape-rendering:geometricPrecision; text-rendering:geometricPrecision; image-rendering:optimizeQuality; fill-rule:evenodd; clip-rule:evenodd"
viewBox="0 0 484.85 657.4"
 xmlns:xlink="http://www.w3.org/1999/xlink">
 <defs>
  <style type="text/css">
   <![CDATA[
    .fil0 {fill:#5382A1}
    .fil1 {fill:#F8981D}
   ]]>
  </style>
 </defs>
 <g id="图层_x0020_1">
  <metadata id="CorelCorpID_0Corel-Layer"/>
  <g id="java.svg">
   <path class="fil0" d="M156.15 508.4c0,0 -25.12,14.61 17.88,19.55 52.09,5.94 78.72,5.09 136.13,-5.77 0,0 15.09,9.46 36.17,17.66 -128.69,55.15 -291.26,-3.19 -190.18,-31.44z"/>
   <path class="fil0" d="M140.43 436.43c0,0 -28.18,20.86 14.85,25.31 55.65,5.74 99.6,6.21 175.64,-8.43 0,0 10.52,10.66 27.06,16.49 -155.6,45.5 -328.9,3.59 -217.55,-33.37z"/>
   <path class="fil1" d="M273 314.34c31.71,36.51 -8.33,69.36 -8.33,69.36 0,0 80.52,-41.56 43.54,-93.61 -34.53,-48.54 -61.02,-72.66 82.36,-155.81 0,-0 -225.05,56.21 -117.56,180.06z"/>
   <path class="fil0" d="M443.2 561.64c0,0 18.59,15.32 -20.47,27.17 -74.28,22.5 -309.17,29.3 -374.43,0.9 -23.46,-10.2 20.53,-24.36 34.37,-27.34 14.43,-3.13 22.68,-2.55 22.68,-2.55 -26.09,-18.38 -168.61,36.08 -72.4,51.68 262.39,42.55 478.31,-19.16 410.25,-49.86z"/>
   <path class="fil0" d="M168.23 361.85c0,0 -119.48,28.38 -42.31,38.68 32.58,4.36 97.54,3.38 158.04,-1.69 49.45,-4.17 99.1,-13.04 99.1,-13.04 0,0 -17.44,7.47 -30.05,16.08 -121.33,31.91 -355.72,17.07 -288.25,-15.57 57.07,-27.58 103.46,-24.46 103.46,-24.46z"/>
   <path class="fil0" d="M382.57 481.66c123.34,-64.09 66.31,-125.68 26.51,-117.38 -9.76,2.03 -14.11,3.79 -14.11,3.79 0,0 3.62,-5.67 10.54,-8.13 78.75,-27.69 139.3,81.65 -25.42,124.95 0,0 1.91,-1.7 2.48,-3.23z"/>
   <path class="fil1" d="M308.2 0c0,0 68.31,68.33 -64.79,173.4 -106.73,84.29 -24.34,132.34 -0.04,187.25 -62.3,-56.21 -108.02,-105.69 -77.34,-151.74 45.02,-67.6 169.74,-100.38 142.17,-208.91z"/>
   <path class="fil0" d="M180.35 655.33c118.39,7.58 300.19,-4.21 304.5,-60.22 0,0 -8.28,21.24 -97.84,38.1 -101.05,19.02 -225.67,16.8 -299.59,4.61 0,-0 15.13,12.53 92.94,17.51z"/>
  </g>
 </g>
</svg>
