<?xml version="1.0" encoding="UTF-8"?>
<!DOCTYPE svg PUBLIC "-//W3C//DTD SVG 1.1//EN" "http://www.w3.org/Graphics/SVG/1.1/DTD/svg11.dtd">
<!-- Creator: CorelDRAW 2018 (64-Bit) -->
<svg xmlns="http://www.w3.org/2000/svg" xml:space="preserve" width="35.4302mm" height="40mm" version="1.1" style="shape-rendering:geometricPrecision; text-rendering:geometricPrecision; image-rendering:optimizeQuality; fill-rule:evenodd; clip-rule:evenodd"
viewBox="0 0 1469.39 1658.91"
 xmlns:xlink="http://www.w3.org/1999/xlink">
 <defs>
  <style type="text/css">
   <![CDATA[
    .fil0 {fill:#2B937C}
   ]]>
  </style>
 </defs>
 <g id="图层_x0020_1">
  <metadata id="CorelCorpID_0Corel-Layer"/>
  <g id="Jump-Server.svg">
   <path class="fil0" d="M681.52 143.54c-54.7,31.35 -110.11,59.8 -165.48,90.41 -62.71,34.96 -124.63,69.96 -194.63,109.32 148.72,95.47 290.84,186.59 440.97,282.8 -29.15,16.75 -52.46,29.16 -73.61,44.46 -21.86,15.3 -40.06,15.3 -63.41,0.75 -120.27,-72.91 -242.7,-142.17 -361.52,-217.94 -50.31,-32.1 -89.66,-38.65 -139.93,-2.9 -48.85,34.21 -52.5,74.32 -2.2,106.38 24.76,15.34 49.56,30.61 73.62,45.91 131.18,83.11 264.6,161.83 392.12,249.3 79.47,54.66 152.33,52.46 229.6,5.81 70.84,-42.63 145.05,-87.98 215.15,-129.22 26.25,-16.01 52.5,-32.76 83.82,-53.21 -140.68,-90.37 -276.21,-177.09 -416.18,-266.75 24.05,-16.75 43.75,-29.16 61.26,-43.71 23.31,-19.7 43.71,-21.15 71.42,-4.4 117.37,68.51 236.14,134.83 354.96,201.14 80.16,44.5 80.16,43.75 142.13,-23.31 24.05,-26.21 18.25,-63.41 -13.15,-80.17 -188.9,-104.73 -378.39,-208.96 -567.18,-314.67 -24.8,-14.56 -43.75,-13.11 -67.8,0l0.04 0z" p-id="27787"/>
   <path class="fil0" d="M809.76 983.19c-65.57,34.26 -134.83,37.2 -201.89,-2.9 -155.23,-94.02 -311.21,-187.33 -466.49,-281.35 -15.3,-8.71 -30.61,-17.5 -52.46,-30.61 0,59.76 2.2,112.27 -0.75,164.73 -2.16,31.35 9.5,48.85 35.75,63.41 167.63,96.22 334.52,193.89 502.19,290.1 56.11,32.06 118.78,34.26 173.44,5.81 107.87,-55.36 420.53,-248.55 525.54,-309.76 10.2,-5.81 22.56,-18.25 23.3,-27.7 2.2,-61.22 0.75,-123.17 0.75,-188.78 -16.8,9.5 -32.1,18.25 -46.66,26.25 -94.77,54.66 -396.48,240.54 -492.7,290.81l-0.04 -0z" p-id="27788"/>
   <path class="fil0" d="M922.73 1199.68c-46.62,25.51 -93.31,51.01 -141.42,72.91 -53.17,23.31 -107.83,23.31 -160.33,-7.3 -43.72,-26.25 -88.92,-50.31 -132.63,-76.56 -77.97,-47.36 -155.98,-96.22 -233.99,-143.58 -52.46,-32.06 -106.42,-62.67 -164.73,-96.92 0,66.36 -0.71,126.08 0.75,185.13 0,9.46 8.71,21.86 16.75,26.96 172.03,102.77 344.02,206.99 517.5,306.9 57.61,32.76 122.47,35.67 182.98,2.16 104.22,-57.61 427.83,-250.74 530.6,-310.51 8.71,-5.11 21.15,-16.05 21.15,-24.8 2.16,-60.47 0.71,-121.72 0.71,-185.84 -5.81,1.45 -14.55,2.2 -21.15,5.81 -64.86,37.2 -350.57,209.19 -416.18,245.64l0 0z" p-id="27789"/>
   <path class="fil0" d="M739.05 2.9l-4.35 -2.9 -730.34 423.44 -4.35 2.2 0 783.5 734.69 449.77 730.34 -446.79 4.35 -2.91 0 -782.88 -730.34 -423.44zm712.83 1197.53l-717.19 438.78 -717.23 -438.78 0 -764.59 717.23 -415.52 717.19 415.56 0 764.59 0 -0.04z" p-id="27790"/>
  </g>
 </g>
</svg>
