<?xml version="1.0" encoding="UTF-8"?>
<!DOCTYPE svg PUBLIC "-//W3C//DTD SVG 1.1//EN" "http://www.w3.org/Graphics/SVG/1.1/DTD/svg11.dtd">
<!-- Creator: CorelDRAW 2018 (64-Bit) -->
<svg xmlns="http://www.w3.org/2000/svg" xml:space="preserve" width="33.5969mm" height="40mm" version="1.1" style="shape-rendering:geometricPrecision; text-rendering:geometricPrecision; image-rendering:optimizeQuality; fill-rule:evenodd; clip-rule:evenodd"
viewBox="0 0 1350.23 1607.56"
 xmlns:xlink="http://www.w3.org/1999/xlink">
 <defs>
  <style type="text/css">
   <![CDATA[
    .fil0 {fill:#1A1A1A}
    .fil2 {fill:#FFB828}
    .fil1 {fill:white}
   ]]>
  </style>
 </defs>
 <g id="图层_x0020_1">
  <metadata id="CorelCorpID_0Corel-Layer"/>
  <g id="linux-command.svg">
   <path class="fil0" d="M868.17 1532.03c-63.06,-9.39 -127.26,-14.87 -190.91,-15.96 -87.5,0 -143.24,47.74 -278.14,15.87 0,0 -286.59,-167.11 -206.98,-565.08 0,0 8.81,-128.98 175.11,-342.22 58.52,-74.98 91.55,-131.31 71.62,-365.98 0,0 -6.14,-258.67 266.55,-258.67 272.69,0 238.85,262.61 238.85,373.98 0,111.37 55.63,206.98 150.66,318.35 73.59,85.88 190.99,270.6 119.37,445.71 -48.56,119.02 -63.97,302.35 -346.05,393.91l-0.07 0.09z" p-id="21538"/>
   <path class="fil1" d="M510.07 465.62c0,0 0,159.11 -39.75,206.86 -39.75,47.74 -229.81,262.26 -150.66,445.71 23.88,55.74 47.75,334.22 350.1,334.22 302.35,0 413.84,-334.22 413.84,-453.59 0,-151.47 -198.87,-222.86 -254.96,-533.09l-318.58 -0.11zm155.18 -123.31c0.01,61.5 35.66,111.37 79.62,111.37 43.97,-0 79.61,-49.87 79.61,-111.37 0,-61.5 -35.66,-111.37 -79.62,-111.37 -43.96,0 -79.61,49.88 -79.61,111.38l-0 -0z" p-id="21539"/>
   <path class="fil0" d="M705.11 342.31c0,30.78 17.8,55.74 39.76,55.74 21.95,0 39.75,-24.97 39.75,-55.75 0,-30.78 -17.8,-55.74 -39.76,-55.74 -21.95,0 -39.75,24.96 -39.75,55.75l0 -0z" p-id="21540"/>
   <path class="fil1" d="M490.26 342.31c0,57.14 27.61,103.49 61.65,103.49 34.05,0 61.65,-46.34 61.65,-103.49 0,-57.14 -27.61,-103.49 -61.65,-103.49 -34.05,0 -61.65,46.35 -61.65,103.5l0 -0z" p-id="21541"/>
   <path class="fil0" d="M522.01 337.79c0,28.54 13.39,51.69 29.9,51.69 16.51,0 29.9,-23.15 29.9,-51.69 0,-28.55 -13.39,-51.69 -29.9,-51.69 -16.51,0 -29.9,23.14 -29.9,51.69zm-95.49 840.08c0,0 150.66,127.48 63.62,167.11 -87.03,39.63 -230.74,8 -278.14,-230.73 -47.4,-238.73 270.26,-580.96 270.26,-580.96l24.57 0c-0.64,39.92 -8.55,79.55 -23.19,116.7 -25.27,66.29 -160.62,336.89 -136.75,408.51 16.51,45.64 43.88,86.64 79.65,119.36l-0.02 0.01z" p-id="21542"/>
   <path class="fil2" d="M215.6 1540.61c75.91,-1.39 230.85,143.24 302.47,-23.88 1.29,-8.82 1.95,-17.82 1.95,-26.75 0,-42.71 -14.84,-84.16 -41.93,-117.18 -27.09,-33.02 -103.37,-103.37 -127.48,-198.86 -24.11,-95.49 -139.07,-101.98 -159.23,-55.74 -23.87,55.74 -111.37,87.5 -111.37,87.5 0,0 -87.61,31.87 -55.74,143.24 0.82,6.3 1.23,12.68 1.23,19.05 0,23.79 -5.77,47.25 -16.76,68.33 -23.88,47.98 -11.94,107.66 206.86,104.3l-0 0zm632.41 -124.7c-43.57,19.94 -135.36,31.87 -175.11,-47.74 0,0 -31.87,-55.63 0,-135.24 13.33,0.92 26.94,1.41 40.34,1.41 64.94,0 129.54,-11.08 190.76,-32.61 61.23,-21.53 23.87,-159.12 143.24,-95.49 0,0 39.86,31.87 79.61,23.87 39.75,-7.99 135.24,8 135.24,95.49 0,87.5 32.33,76.49 55.74,87.5 25.73,12.29 67.92,82.75 -23.87,111.49 -127.36,39.75 -198.17,157.14 -254.61,182.99l-191.35 -191.66z" p-id="21543"/>
   <path class="fil0" d="M1011.18 998.82c-25.47,24.97 -39.85,59.21 -39.85,94.9 0,22.54 5.74,44.74 16.66,64.44 47.75,95.49 159.23,7.99 159.23,7.99 0,0 111.37,-87.5 31.75,-262.6 -79.61,-175.11 -295.28,-485.69 -295.28,-485.69l-67.33 47.75c0,0 24.33,141.85 127.48,342.22 23.06,44.27 67.33,135.24 67.33,190.99z" p-id="21544"/>
   <path class="fil2" d="M587.14 359.57c-13.8,6.77 -26.09,16.34 -36.04,28.05 -11.06,12.84 -23.54,24.56 -37.08,34.78 -31.75,23.87 -79.5,39.86 23.87,111.48 27.58,20.54 61.09,31.63 95.49,31.63 34.4,0 67.9,-11.09 95.49,-31.63 27.59,-20.54 167.23,-63.74 71.62,-111.48 -86.57,-43.93 -133.97,-100.36 -213.35,-62.82l0 -0.01z" p-id="21545"/>
  </g>
 </g>
</svg>
