<?xml version="1.0" encoding="UTF-8"?>
<!DOCTYPE svg PUBLIC "-//W3C//DTD SVG 1.1//EN" "http://www.w3.org/Graphics/SVG/1.1/DTD/svg11.dtd">
<!-- Creator: CorelDRAW 2018 (64-Bit) -->
<svg xmlns="http://www.w3.org/2000/svg" xml:space="preserve" width="210mm" height="297mm" version="1.1" style="shape-rendering:geometricPrecision; text-rendering:geometricPrecision; image-rendering:optimizeQuality; fill-rule:evenodd; clip-rule:evenodd"
viewBox="0 0 21000 29700"
 xmlns:xlink="http://www.w3.org/1999/xlink">
 <defs>
  <style type="text/css">
   <![CDATA[
    .fil0 {fill:black}
    .fil1 {fill:white}
   ]]>
  </style>
 </defs>
 <g id="图层_x0020_1">
  <metadata id="CorelCorpID_0Corel-Layer"/>
  <path class="fil0" d="M-988.87 19819.84c1104.57,0 2000,895.43 2000,2000 0,1104.57 -895.43,2000 -2000,2000 -1104.57,0 -2000,-895.43 -2000,-2000 0,-1104.57 895.43,-2000 2000,-2000zm958.22 2234.73c80.1,-28.93 126.67,95.54 42.41,128.33 -85.61,33.3 -131.43,-96.17 -42.41,-128.33zm-1597.24 -494.13c267.32,-73.48 331.56,397.34 38.2,495.41 -200.99,67.19 -316.51,-200.41 -179.23,-399.98 43.99,-63.96 82.87,-79.44 141.03,-95.43zm657.65 -9.99c99.23,-32.52 180.23,36.35 201.59,108.23 28.42,95.62 -36.68,179.68 -106.71,202.95 -200.32,66.53 -297.1,-244.92 -94.88,-311.18zm-540.42 -680.95c-18.37,-101.78 -31.91,-145.18 -17.03,-259.15 10.94,-83.85 111.12,-408.6 178.72,-404.16 48.91,3.21 21.12,75.15 87.98,204.75 121.09,234.7 261.35,312.4 461.53,415 290.53,148.92 688.05,325.05 742.04,709.56 16.38,116.71 -3.59,267.5 -68.94,360.64 -41.3,58.86 -20.87,25.31 -24.33,121.24 -8.86,244.76 -181,348.61 -197.37,376.96 30.27,30.31 143.13,81.44 186.73,105.05l0.63 485.67c0.06,84.96 8.78,81.22 -38.83,116.29 -55.74,41.06 -209.43,98.76 -278.93,92.59 -18.26,-1.62 -12.81,3.1 -20.48,-7.61 -11.98,-10.51 -12.79,-158.19 -15.87,-189.51 -6.06,-61.61 -14.48,-115 -27.91,-173.89 -37.54,-164.56 -82.33,-251.36 -96.21,-308.22 -33.44,1.41 -64.57,12.55 -98.26,16.03 -76.95,7.92 -221.34,8.72 -285.19,-17.69 199,-74.66 401.13,-235.98 337.59,-521.18 42.95,-45.35 70.45,-50.99 107.59,-118.06 26.68,-48.17 69.07,-226.63 256.45,-180.85 61.65,15.06 91.94,59.27 121.58,96.95 2.74,-2.51 6.71,1.25 16.68,-28.08 55.34,-162.8 -7.07,-345.93 -109.8,-468.65 -206.32,-246.48 -587.29,-351.56 -801.22,-510.88 -220.88,-164.5 -241.84,-321.47 -280.48,-375.1 -53.5,157.8 -80.47,338.59 7.56,492.91 29.83,52.31 74.7,90.09 84.5,112.04 -136.67,0.64 -273.53,-39.71 -350.96,-108.72 -7.66,74.66 51.82,163.51 88.62,206.49 59.74,69.78 106.36,78.42 192.83,106.16l-33.38 19.43c-163.58,56.11 -301.29,132.9 -401.16,279.97 -128.6,189.36 -178.89,650.6 -178.16,911.32 0.62,222.52 52.46,375.63 178.88,547.07l126.4 146.16c27.9,28.05 28.18,20.23 40.19,50.23 -26.35,-2.3 -85.43,-22.9 -109.88,-33.07 -204.21,-84.95 -326.59,-379.68 -343.43,-593.77 -17.77,-225.94 18.41,-511.42 65.94,-735.59 14.72,-69.42 51.27,-154.6 59.69,-205.45 -4.92,-23.83 -148.26,-89.73 13.75,-167.98 49.6,-23.96 290.17,-200.74 303.56,-221.51 -42.26,-92.53 -131.97,-175.32 -97.07,-363.51 9.18,-49.47 19.79,-83.31 72.28,-86.48 31,5.66 63.19,88.02 143.17,106.6zm-166.67 -247.34c-185.44,42.26 -217.01,238.3 -188.48,399.67 11.07,62.62 37.26,105.11 47.32,152.11l-118.02 87.25c-41.3,27.37 -91.08,40.14 -130.54,70.73 -74.07,57.42 -131.49,164.44 -63.81,280.12 23.7,40.51 -7.6,107.53 -17.91,159.55 -78.54,396.15 -137.48,866.39 59.44,1213.57 88.03,155.18 239.73,307.82 447.45,358.26 44.39,10.78 162.91,5.05 186.55,21.28 36.93,25.36 31.62,43.99 117.92,83.32 101.6,46.3 234.93,53.64 341.81,15.25 158.35,-56.88 121.01,-109.02 198.59,-110.03 156.43,-2.04 335.46,12.69 479.75,-24.45 307.19,-79.06 523.14,-384.88 512.7,-701.01 -6.36,-192.66 -66.89,-246.21 -82.35,-318.42 63.5,-35.66 113.92,-121.06 95.81,-237.86 -16.43,-105.95 -75.06,-136.4 -156.48,-175.57 -1.29,-23.28 17.72,-73.53 23.52,-103.55 24.06,-124.64 27.23,-223.8 -4.3,-349.88 -34.29,-137.06 -112.75,-265.14 -184.18,-342.24 -12.02,-12.98 -21.65,-19.58 -36.23,-35.21 -60.91,-65.3 -184.56,-153.84 -258.59,-196.09l-344.88 -180.72c-142.24,-71.42 -215.58,-122.36 -302.31,-223.48 -156.95,-182.98 -84.22,-277.76 -168.29,-357.95 -54.11,-51.6 -131.65,-60.23 -203.23,-23.07 -50.84,26.39 -90.36,83.02 -120.44,139.94 -30.06,56.88 -57.55,117.29 -79.7,186.52 -22.58,70.54 -45.02,195.4 -51.12,211.96z"/>
  <path class="fil1" d="M-30.65 22054.57c80.1,-28.93 126.67,95.54 42.41,128.32 -85.62,33.31 -131.44,-96.16 -42.41,-128.32zm-1597.24 -494.13c267.32,-73.48 331.56,397.33 38.2,495.41 -200.99,67.19 -316.51,-200.42 -179.23,-399.98 43.99,-63.96 82.87,-79.44 141.03,-95.43zm657.65 -9.99c99.23,-32.52 180.23,36.35 201.59,108.23 28.42,95.62 -36.68,179.69 -106.71,202.95 -200.32,66.53 -297.1,-244.92 -94.88,-311.18zm-540.42 -680.95c-18.37,-101.78 -31.92,-145.18 -17.04,-259.15 10.95,-83.85 111.13,-408.6 178.73,-404.16 48.91,3.22 21.12,75.15 87.98,204.75 121.09,234.7 261.35,312.4 461.53,415 290.53,148.92 688.05,325.05 742.04,709.56 16.38,116.71 -3.59,267.5 -68.94,360.64 -41.3,58.86 -20.87,25.31 -24.34,121.24 -8.85,244.76 -180.99,348.61 -197.36,376.96 30.27,30.31 143.13,81.43 186.73,105.05l0.63 485.67c0.06,84.96 8.78,81.22 -38.83,116.29 -55.74,41.06 -209.43,98.76 -278.93,92.59 -18.26,-1.62 -12.81,3.1 -20.48,-7.61 -11.98,-10.51 -12.8,-158.19 -15.87,-189.51 -6.06,-61.61 -14.48,-114.99 -27.91,-173.89 -37.54,-164.56 -82.33,-251.36 -96.21,-308.22 -33.44,1.41 -64.57,12.56 -98.25,16.02 -76.96,7.93 -221.35,8.73 -285.2,-17.68 199,-74.66 401.14,-235.98 337.59,-521.18 42.95,-45.35 70.45,-51 107.59,-118.06 26.68,-48.17 69.07,-226.63 256.45,-180.85 61.65,15.06 91.95,59.27 121.57,96.95 2.75,-2.51 6.72,1.25 16.69,-28.08 55.34,-162.8 -7.07,-345.93 -109.8,-468.65 -206.32,-246.48 -587.29,-351.56 -801.22,-510.88 -220.88,-164.5 -241.84,-321.47 -280.49,-375.1 -53.49,157.81 -80.46,338.59 7.57,492.91 29.83,52.31 74.7,90.09 84.5,112.04 -136.67,0.64 -273.53,-39.71 -350.96,-108.72 -7.66,74.66 51.81,163.51 88.61,206.49 59.75,69.78 106.37,78.42 192.84,106.16l-33.38 19.43c-163.58,56.11 -301.29,132.9 -401.16,279.97 -128.6,189.36 -178.89,650.6 -178.16,911.32 0.62,222.52 52.46,375.63 178.88,547.07l126.4 146.16c27.9,28.05 28.18,20.23 40.19,50.23 -26.35,-2.3 -85.43,-22.89 -109.88,-33.07 -204.21,-84.95 -326.59,-379.68 -343.43,-593.77 -17.77,-225.94 18.41,-511.42 65.94,-735.59 14.72,-69.42 51.27,-154.6 59.68,-205.45 -4.91,-23.83 -148.25,-89.73 13.76,-167.98 49.6,-23.96 290.17,-200.74 303.56,-221.51 -42.26,-92.53 -131.97,-175.32 -97.07,-363.51 9.18,-49.47 19.79,-83.31 72.28,-86.48 31,5.66 63.19,88.02 143.17,106.6zm-166.66 -247.33c-185.45,42.25 -217.02,238.29 -188.49,399.66 11.07,62.62 37.26,105.11 47.32,152.11l-118.03 87.25c-41.29,27.37 -91.07,40.14 -130.53,70.73 -74.07,57.42 -131.49,164.44 -63.81,280.12 23.7,40.51 -7.6,107.53 -17.91,159.55 -78.54,396.15 -137.48,866.39 59.45,1213.57 88.02,155.18 239.72,307.82 447.44,358.26 44.39,10.78 162.9,5.05 186.55,21.28 36.93,25.36 31.61,43.99 117.92,83.32 101.6,46.3 234.93,53.64 341.81,15.25 158.35,-56.88 121.01,-109.02 198.59,-110.03 156.43,-2.04 335.46,12.69 479.75,-24.45 307.19,-79.06 523.14,-384.88 512.7,-701.01 -6.36,-192.67 -66.89,-246.21 -82.35,-318.42 63.5,-35.66 113.92,-121.06 95.81,-237.86 -16.43,-105.95 -75.06,-136.4 -156.48,-175.57 -1.29,-23.28 17.72,-73.53 23.52,-103.55 24.06,-124.64 27.23,-223.8 -4.3,-349.87 -34.29,-137.07 -112.75,-265.15 -184.18,-342.25 -12.02,-12.97 -21.64,-19.58 -36.22,-35.21 -60.92,-65.3 -184.57,-153.84 -258.6,-196.09l-344.88 -180.72c-142.24,-71.42 -215.58,-122.36 -302.31,-223.48 -156.95,-182.97 -84.21,-277.76 -168.29,-357.95 -54.11,-51.6 -131.65,-60.23 -203.23,-23.07 -50.84,26.39 -90.36,83.02 -120.44,139.95 -30.06,56.87 -57.55,117.28 -79.7,186.5 -22.58,70.55 -45.03,195.4 -51.11,211.98z"/>
  <path class="fil1" d="M-321.44 22211.17c66.62,-78.58 125.41,-295.17 36.28,-392.85 -48.22,-52.84 -134.47,-42.64 -169.56,14.8 -16.67,27.3 -24.72,58.79 -42.21,87.83 -16.7,27.73 -42.56,50.11 -51.21,68.13 167.54,5.38 222.26,71.89 226.7,222.09z"/>
  <path class="fil1" d="M-705.05 22413.17c102.2,4.78 232.33,-78.83 265.21,-129.73 53.33,-82.55 47.84,-205.76 -133.77,-199.67 -2.23,81.2 -11.88,130.71 -40.11,194.28 -11.5,25.9 -24.84,54.15 -41.46,75.28 -17.55,22.31 -33.23,29.69 -49.87,59.84z"/>
 </g>
</svg>
