<?xml version="1.0" encoding="UTF-8"?>
<!DOCTYPE svg PUBLIC "-//W3C//DTD SVG 1.1//EN" "http://www.w3.org/Graphics/SVG/1.1/DTD/svg11.dtd">
<!-- Creator: CorelDRAW 2018 (64-Bit) -->
<svg xmlns="http://www.w3.org/2000/svg" xml:space="preserve" width="40mm" height="40mm" version="1.1" style="shape-rendering:geometricPrecision; text-rendering:geometricPrecision; image-rendering:optimizeQuality; fill-rule:evenodd; clip-rule:evenodd"
viewBox="0 0 593.08 593.08"
 xmlns:xlink="http://www.w3.org/1999/xlink">
 <defs>
  <style type="text/css">
   <![CDATA[
    .fil0 {fill:black}
    .fil1 {fill:white}
   ]]>
  </style>
 </defs>
 <g id="图层_x0020_1">
  <metadata id="CorelCorpID_0Corel-Layer"/>
  <path class="fil0" d="M296.54 0c163.78,0 296.54,132.77 296.54,296.54 0,163.78 -132.77,296.54 -296.54,296.54 -163.78,0 -296.54,-132.77 -296.54,-296.54 0,-163.78 132.77,-296.54 296.54,-296.54zm142.08 331.34c11.88,-4.29 18.78,14.17 6.29,19.03 -12.69,4.94 -19.49,-14.26 -6.29,-19.03zm-236.82 -73.26c39.64,-10.89 49.16,58.91 5.66,73.45 -29.8,9.96 -46.93,-29.71 -26.57,-59.31 6.52,-9.48 12.29,-11.78 20.91,-14.15zm97.51 -1.48c14.71,-4.82 26.72,5.39 29.89,16.05 4.21,14.18 -5.44,26.64 -15.82,30.09 -29.7,9.86 -44.05,-36.31 -14.07,-46.14zm-80.13 -100.96c-2.72,-15.09 -4.73,-21.53 -2.53,-38.42 1.62,-12.43 16.48,-60.58 26.5,-59.92 7.25,0.48 3.13,11.14 13.04,30.36 17.95,34.8 38.75,46.32 68.43,61.53 43.08,22.08 102.02,48.2 110.02,105.21 2.43,17.3 -0.53,39.66 -10.22,53.47 -6.12,8.73 -3.09,3.75 -3.61,17.98 -1.31,36.29 -26.84,51.69 -29.26,55.89 4.49,4.49 21.22,12.08 27.69,15.58l0.09 72.01c0.01,12.6 1.3,12.04 -5.76,17.24 -8.26,6.09 -31.05,14.64 -41.36,13.73 -2.71,-0.24 -1.9,0.46 -3.04,-1.13 -1.78,-1.56 -1.9,-23.45 -2.35,-28.1 -0.9,-9.13 -2.15,-17.05 -4.14,-25.78 -5.57,-24.4 -12.21,-37.27 -14.27,-45.7 -4.96,0.21 -9.57,1.86 -14.57,2.38 -11.41,1.17 -32.82,1.29 -42.29,-2.62 29.51,-11.07 59.48,-34.99 50.05,-77.28 6.37,-6.72 10.45,-7.56 15.95,-17.5 3.96,-7.14 10.24,-33.6 38.02,-26.81 9.14,2.23 13.63,8.79 18.03,14.37 0.41,-0.37 0.99,0.19 2.47,-4.16 8.21,-24.14 -1.05,-51.29 -16.28,-69.49 -30.59,-36.55 -87.08,-52.13 -118.8,-75.75 -32.75,-24.39 -35.86,-47.66 -41.59,-55.62 -7.93,23.4 -11.93,50.2 1.12,73.08 4.42,7.76 11.08,13.36 12.53,16.61 -20.26,0.09 -40.56,-5.89 -52.04,-16.12 -1.14,11.07 7.68,24.24 13.14,30.62 8.86,10.35 15.77,11.63 28.59,15.74l-4.95 2.88c-24.25,8.32 -44.67,19.71 -59.48,41.51 -19.07,28.08 -26.52,96.46 -26.42,135.12 0.09,32.99 7.78,55.69 26.52,81.11l18.74 21.67c4.14,4.16 4.18,3 5.96,7.45 -3.91,-0.34 -12.67,-3.4 -16.29,-4.9 -30.28,-12.6 -48.42,-56.3 -50.92,-88.04 -2.63,-33.5 2.73,-75.83 9.78,-109.07 2.18,-10.29 7.6,-22.92 8.85,-30.46 -0.73,-3.53 -21.98,-13.3 2.04,-24.91 7.35,-3.55 43.02,-29.76 45.01,-32.84 -6.27,-13.72 -19.57,-25.99 -14.39,-53.9 1.36,-7.33 2.93,-12.35 10.72,-12.82 4.6,0.84 9.37,13.05 21.23,15.81zm-24.71 -36.67c-27.5,6.27 -32.18,35.33 -27.95,59.26 1.64,9.28 5.52,15.58 7.02,22.55l-17.5 12.94c-6.12,4.06 -13.5,5.95 -19.36,10.49 -10.98,8.51 -19.5,24.38 -9.46,41.53 3.51,6.01 -1.13,15.94 -2.66,23.66 -11.65,58.74 -20.38,128.46 8.81,179.94 13.05,23.01 35.54,45.64 66.34,53.12 6.58,1.6 24.15,0.75 27.66,3.16 5.48,3.76 4.69,6.52 17.48,12.35 15.06,6.86 34.83,7.95 50.68,2.26 23.48,-8.43 17.94,-16.16 29.45,-16.31 23.19,-0.3 49.74,1.88 71.13,-3.63 45.55,-11.72 77.57,-57.07 76.02,-103.94 -0.94,-28.57 -9.92,-36.51 -12.21,-47.21 9.42,-5.29 16.89,-17.95 14.21,-35.27 -2.44,-15.71 -11.13,-20.22 -23.2,-26.03 -0.19,-3.45 2.63,-10.9 3.49,-15.35 3.57,-18.48 4.04,-33.18 -0.64,-51.88 -5.08,-20.32 -16.72,-39.31 -27.31,-50.74 -1.78,-1.92 -3.21,-2.9 -5.37,-5.22 -9.03,-9.68 -27.36,-22.81 -38.34,-29.07l-51.14 -26.8c-21.09,-10.59 -31.96,-18.14 -44.82,-33.14 -23.27,-27.13 -12.49,-41.18 -24.95,-53.07 -8.02,-7.65 -19.52,-8.93 -30.13,-3.42 -7.54,3.91 -13.4,12.31 -17.86,20.75 -4.46,8.43 -8.53,17.39 -11.82,27.66 -3.35,10.46 -6.68,28.97 -7.58,31.43z"/>
  <path class="fil1" d="M438.62 331.34c11.88,-4.29 18.78,14.17 6.29,19.03 -12.69,4.94 -19.49,-14.26 -6.29,-19.03zm-236.82 -73.26c39.64,-10.89 49.16,58.91 5.66,73.45 -29.8,9.96 -46.93,-29.72 -26.57,-59.31 6.52,-9.48 12.29,-11.78 20.91,-14.15zm97.51 -1.48c14.71,-4.82 26.72,5.39 29.89,16.05 4.21,14.18 -5.44,26.64 -15.82,30.09 -29.7,9.86 -44.05,-36.31 -14.07,-46.14zm-80.13 -100.96c-2.72,-15.09 -4.73,-21.53 -2.53,-38.42 1.62,-12.43 16.48,-60.58 26.5,-59.92 7.25,0.48 3.13,11.14 13.04,30.36 17.95,34.8 38.75,46.32 68.43,61.53 43.08,22.08 102.02,48.2 110.02,105.21 2.43,17.3 -0.53,39.66 -10.22,53.47 -6.12,8.73 -3.09,3.75 -3.61,17.98 -1.31,36.29 -26.84,51.69 -29.26,55.89 4.49,4.49 21.22,12.07 27.69,15.58l0.09 72.01c0.01,12.6 1.3,12.04 -5.76,17.24 -8.26,6.09 -31.05,14.64 -41.36,13.73 -2.71,-0.24 -1.9,0.46 -3.04,-1.13 -1.78,-1.56 -1.9,-23.45 -2.35,-28.1 -0.9,-9.13 -2.15,-17.05 -4.14,-25.78 -5.57,-24.4 -12.21,-37.27 -14.27,-45.7 -4.96,0.21 -9.57,1.86 -14.57,2.38 -11.41,1.18 -32.82,1.29 -42.29,-2.62 29.51,-11.07 59.48,-34.99 50.05,-77.28 6.37,-6.72 10.45,-7.56 15.95,-17.5 3.96,-7.14 10.24,-33.6 38.02,-26.81 9.14,2.23 13.63,8.79 18.03,14.37 0.41,-0.37 1,0.19 2.47,-4.16 8.21,-24.14 -1.05,-51.29 -16.28,-69.49 -30.59,-36.55 -87.08,-52.13 -118.8,-75.75 -32.75,-24.39 -35.86,-47.66 -41.59,-55.62 -7.93,23.4 -11.93,50.2 1.12,73.08 4.42,7.76 11.08,13.36 12.53,16.61 -20.26,0.09 -40.56,-5.89 -52.04,-16.12 -1.14,11.07 7.68,24.24 13.14,30.62 8.86,10.35 15.77,11.63 28.59,15.74l-4.95 2.88c-24.25,8.32 -44.67,19.71 -59.48,41.51 -19.07,28.08 -26.52,96.46 -26.42,135.12 0.09,32.99 7.78,55.69 26.52,81.11l18.74 21.67c4.14,4.16 4.18,3 5.96,7.45 -3.91,-0.34 -12.67,-3.39 -16.29,-4.9 -30.28,-12.6 -48.42,-56.3 -50.92,-88.04 -2.63,-33.5 2.73,-75.83 9.78,-109.07 2.18,-10.29 7.6,-22.92 8.85,-30.46 -0.73,-3.53 -21.98,-13.3 2.04,-24.91 7.35,-3.55 43.02,-29.76 45.01,-32.84 -6.27,-13.72 -19.57,-25.99 -14.39,-53.9 1.36,-7.33 2.93,-12.35 10.72,-12.82 4.6,0.84 9.37,13.05 21.23,15.81zm-24.71 -36.67c-27.5,6.26 -32.18,35.33 -27.95,59.26 1.64,9.28 5.52,15.58 7.02,22.55l-17.5 12.94c-6.12,4.06 -13.5,5.95 -19.35,10.49 -10.98,8.51 -19.5,24.38 -9.46,41.53 3.51,6.01 -1.13,15.94 -2.66,23.66 -11.65,58.74 -20.38,128.46 8.81,179.94 13.05,23.01 35.54,45.64 66.34,53.12 6.58,1.6 24.15,0.75 27.66,3.16 5.48,3.76 4.69,6.52 17.48,12.35 15.06,6.86 34.83,7.95 50.68,2.26 23.48,-8.43 17.94,-16.16 29.45,-16.31 23.19,-0.3 49.74,1.88 71.13,-3.63 45.55,-11.72 77.57,-57.07 76.02,-103.94 -0.94,-28.57 -9.92,-36.51 -12.21,-47.21 9.42,-5.29 16.89,-17.95 14.21,-35.27 -2.44,-15.71 -11.13,-20.22 -23.2,-26.03 -0.19,-3.45 2.63,-10.9 3.49,-15.35 3.57,-18.48 4.04,-33.18 -0.64,-51.88 -5.08,-20.32 -16.72,-39.31 -27.31,-50.75 -1.78,-1.92 -3.21,-2.9 -5.37,-5.22 -9.03,-9.68 -27.37,-22.81 -38.34,-29.07l-51.14 -26.8c-21.09,-10.59 -31.96,-18.14 -44.82,-33.14 -23.27,-27.13 -12.49,-41.18 -24.95,-53.07 -8.02,-7.65 -19.52,-8.93 -30.13,-3.42 -7.54,3.91 -13.4,12.31 -17.86,20.75 -4.46,8.43 -8.53,17.39 -11.82,27.65 -3.35,10.46 -6.68,28.97 -7.58,31.43z"/>
  <path class="fil1" d="M395.5 354.56c9.88,-11.65 18.59,-43.76 5.38,-58.25 -7.15,-7.83 -19.94,-6.32 -25.14,2.19 -2.47,4.05 -3.67,8.72 -6.26,13.02 -2.48,4.11 -6.31,7.43 -7.59,10.1 24.84,0.8 32.95,10.66 33.61,32.93z"/>
  <path class="fil1" d="M338.62 384.51c15.15,0.71 34.45,-11.69 39.32,-19.24 7.91,-12.24 7.09,-30.51 -19.83,-29.61 -0.33,12.04 -1.76,19.38 -5.95,28.81 -1.71,3.84 -3.68,8.03 -6.15,11.16 -2.6,3.31 -4.93,4.4 -7.39,8.87z"/>
 </g>
</svg>
