<?xml version="1.0" encoding="UTF-8"?>
<!DOCTYPE svg PUBLIC "-//W3C//DTD SVG 1.1//EN" "http://www.w3.org/Graphics/SVG/1.1/DTD/svg11.dtd">
<!-- Creator: CorelDRAW 2018 (64-Bit) -->
<svg xmlns="http://www.w3.org/2000/svg" xml:space="preserve" width="34.641mm" height="40mm" version="1.1" style="shape-rendering:geometricPrecision; text-rendering:geometricPrecision; image-rendering:optimizeQuality; fill-rule:evenodd; clip-rule:evenodd"
viewBox="0 0 1040.23 1201.15"
 xmlns:xlink="http://www.w3.org/1999/xlink">
 <defs>
  <style type="text/css">
   <![CDATA[
    .fil0 {fill:#8B489B}
   ]]>
  </style>
 </defs>
 <g id="图层_x0020_1">
  <metadata id="CorelCorpID_0Corel-Layer"/>
  <g id="MeterSphere.svg">
   <path class="fil0" d="M1040.23 300.27l-520.11 -300.27 -520.11 300.22 0 600.71 520.11 300.22 520.11 -300.27 0 -600.66 0 0.05zm-520.11 -249.22l475.88 274.79 0 549.44 -475.88 274.79 -475.92 -274.79 0 -549.44 475.92 -274.79z" p-id="4319"/>
   <path class="fil0" d="M881.07 417.71l0 391.21 -338.88 195.65 0 -391.21 338.88 -195.65 0 0zm-721.96 0l338.84 195.65 0 391.21 -338.84 -195.65 0 -391.21zm83.52 138.63l-45.43 187.55 56.18 39.28 24.02 -130.05 21.41 163.31 40.07 27.25 48.13 -117.97 0 148.19 53.48 36.32 -10.71 -226.84 -69.49 -45.39 -32.07 81.66 -16.06 -114.92 -69.54 -48.39 0 0zm480.52 28.75l-7.04 3.63c-27.22,11.51 -51.84,28.62 -72.1,50.11 -20.04,20.35 -31.23,45.17 -31.76,70.87 0,25.35 12.21,40.39 35.7,43.57l23.58 0.04 81.83 -10.92 2.83 0.01c1.25,-0.25 2.53,-0.38 3.8,-0.38 3.73,0 7.39,1.07 10.53,3.07 3.14,2.22 4.47,5.22 3.85,8.01 -0.86,8.84 -5.26,16.98 -12.16,22.56 -11.46,10.31 -25.44,18.76 -41.23,24.9 -11.94,6.81 -26.28,9.86 -40.61,8.67 -6.59,-1.68 -11.5,-9.16 -13.84,-23.22l0.09 -3.76 -6.19 -4.07 -53.57 22.74 -2.7 4.07 0 5.75c0,32.87 14.33,53.04 40.47,58.83 28.58,2.96 56.98,-2.65 79.71,-15.48 30.11,-12.29 57.31,-30.85 79.71,-54.41 19.11,-20.79 29.64,-45.48 30.12,-70.91 0,-26.1 -13.76,-41.63 -39.55,-45.16l-23.58 -0.05 -77.9 9.02 -5.04 -0.05 -1.33 0.17 -1.41 -0.04c-8.14,-0.14 -11.1,-3.01 -11.1,-8.85 0.13,-8.47 4.08,-16.44 10.75,-21.67 9.25,-7.92 20.22,-14.59 32.47,-19.77 16.81,-7.26 28.84,-9.73 35.3,-7.87 6.37,1.86 11.5,8.01 14.46,18.14l-0.18 2.65 6.19 4.03 52.29 -22.74 2.65 -4.07 0 -5.75c-2.74,-28.31 -15.04,-46.14 -36.09,-51.45 -5.92,-0.86 -11.92,-1.3 -17.91,-1.3 -17.61,0 -35.05,3.78 -51.09,11.04l0.04 0.04zm-203.04 -401.39l338.79 195.61 -338.79 195.7 -338.84 -195.61 338.84 -195.65 0 -0.05z" p-id="4320"/>
  </g>
 </g>
</svg>
