<?xml version="1.0" encoding="UTF-8"?>
<!DOCTYPE svg PUBLIC "-//W3C//DTD SVG 1.1//EN" "http://www.w3.org/Graphics/SVG/1.1/DTD/svg11.dtd">
<!-- Creator: CorelDRAW 2018 (64-Bit) -->
<svg xmlns="http://www.w3.org/2000/svg" xml:space="preserve" width="38.8004mm" height="40mm" version="1.1" style="shape-rendering:geometricPrecision; text-rendering:geometricPrecision; image-rendering:optimizeQuality; fill-rule:evenodd; clip-rule:evenodd"
viewBox="0 0 797.39 822.04"
 xmlns:xlink="http://www.w3.org/1999/xlink">
 <defs>
  <style type="text/css">
   <![CDATA[
    .fil0 {fill:#C62B47}
    .fil2 {fill:#C62B47}
    .fil1 {fill:white}
   ]]>
  </style>
 </defs>
 <g id="图层_x0020_1">
  <metadata id="CorelCorpID_0Corel-Layer"/>
  <g id="_2103790103184">
   <path class="fil0" d="M286.25 373.71c12.81,-42.27 50.85,-76.86 71.22,-98.73 15.4,-16.53 9.85,-15.84 32.39,-28.35l-1.12 75.3 -102.5 51.78zm138.25 -25.19c0.07,-22.28 14.78,-7.98 50.68,-43.2 15.71,-15.41 28.67,-34.78 31.75,-64.97 7.46,-73.16 -51.87,-102.98 -110.72,-173.8 -19.14,-23.03 3.71,-49.85 31.8,-18.91 18.57,20.45 35.77,32.84 69.3,72.23l36.25 38.51c-9.61,-24.39 -69.53,-122.85 -85.35,-139.18 -48.11,-49.66 -113.75,6.92 -86.71,57.21 13.52,25.14 79.94,85.21 94.24,101.45 37.89,43.07 18.43,108.05 -30.88,122.7l-0.15 -116.41c-22.46,8.73 -52.05,29.18 -68.57,43.69 -58.4,51.26 -115.71,128.8 -127.06,211.8l160.78 -79.27c-0.03,50.15 -0.02,100.31 -0.02,150.47 0,84.57 -10.78,65.31 33.54,110.9l1.12 -273.23z"/>
   <path class="fil1" d="M633.01 764.75c6.99,57.81 151.27,54.05 145.21,-7 -5.86,-59.03 -152.66,-54.62 -145.21,7z"/>
   <path class="fil1" d="M388.74 321.94l1.12 -75.3c-22.54,12.51 -17,11.82 -32.39,28.35 -20.37,21.87 -58.41,56.46 -71.22,98.73l102.5 -51.78z"/>
   <path class="fil2" d="M-0 819.15l0.98 -102.4c0,0 -1.39,-23.75 28.58,-8.13 29.97,15.62 72.43,39.35 72.43,39.35 0,0 9.47,6.69 21.05,0 11.59,-6.69 72.76,-39.35 72.76,-39.35 0,0 27.37,-16.5 27.37,8.13 0,24.62 1.22,102.4 1.22,102.4l-43.84 0 0 -49.9c0,0 2.65,-12.17 -18.83,0 -21.48,12.17 -29.65,16.88 -29.65,16.88 0,0 -19.19,11.93 -39.86,0 -20.67,-11.93 -32.92,-16.88 -32.92,-16.88 0,0 -17.67,-13.94 -17.67,0 0,13.93 0,49.9 0,49.9l-41.63 0z"/>
   <rect class="fil2" x="259.45" y="702.19" width="45.53" height="116.96"/>
   <rect class="fil2" x="563.26" y="702.65" width="20.44" height="116.5"/>
   <path class="fil2" d="M343.07 818.32l41.35 0 0 -50.17c0,0 -2.32,-13.47 24.62,0 26.94,13.47 98.02,46.92 98.02,46.92 0,0 13.94,8.83 19.04,0l0 -112.42 -40.88 0 0 51.1c0,0 -0.46,13.47 -25.08,0l-90.58 -45.06c0,0 -26.48,-14.86 -26.48,6.04 0,20.9 0,103.59 0,103.59z"/>
   <path class="fil2" d="M704.48 703.12c51.31,0 92.91,26.62 92.91,59.46 0,32.84 -41.59,59.46 -92.91,59.46 -51.31,0 -92.91,-26.62 -92.91,-59.46 0,-32.84 41.59,-59.46 92.91,-59.46zm1.11 12.79c40.21,0 72.81,20.14 72.81,45 0,24.86 -32.6,45 -72.81,45 -40.21,0 -72.81,-20.14 -72.81,-45 0,-24.86 32.6,-45 72.81,-45z"/>
  </g>
 </g>
</svg>
