<?xml version="1.0" encoding="UTF-8"?>
<!DOCTYPE svg PUBLIC "-//W3C//DTD SVG 1.1//EN" "http://www.w3.org/Graphics/SVG/1.1/DTD/svg11.dtd">
<!-- Creator: CorelDRAW 2018 (64-Bit) -->
<svg xmlns="http://www.w3.org/2000/svg" xml:space="preserve" width="40mm" height="40mm" version="1.1" style="shape-rendering:geometricPrecision; text-rendering:geometricPrecision; image-rendering:optimizeQuality; fill-rule:evenodd; clip-rule:evenodd"
viewBox="0 0 16000 16000"
 xmlns:xlink="http://www.w3.org/1999/xlink">
 <defs>
  <style type="text/css">
   <![CDATA[
    .fil2 {fill:black}
    .fil0 {fill:#0084FF}
    .fil1 {fill:white}
   ]]>
  </style>
 </defs>
 <g id="图层_x0020_1">
  <metadata id="CorelCorpID_0Corel-Layer"/>
  <g id="_2045469100464">
   <path class="fil0" d="M8000 326.52c-4241.44,0 -7673.48,3432.08 -7673.48,7673.48 0,4241.44 3432.04,7673.48 7673.48,7673.48 4241.44,0 7673.48,-3432.04 7673.48,-7673.48 0,-4241.4 -3432.04,-7673.48 -7673.48,-7673.48z" p-id="4276"/>
   <path class="fil1" d="M8000 5257.16c-1516.12,0 -2742.84,1226.76 -2742.84,2742.84 0,1516.08 1226.76,2742.84 2742.84,2742.84 1516.08,0 2742.84,-1226.76 2742.84,-2742.84 0,-1516.08 -1226.72,-2742.84 -2742.84,-2742.84z" p-id="4277"/>
   <path class="fil2" d="M13658.16 2341.84c-1510.2,-1510.12 -3519.6,-2341.84 -5658.16,-2341.84 -2138.56,0 -4147.96,831.72 -5658.16,2341.84 -1510.24,1510.16 -2341.84,3519.6 -2341.84,5658.16 0,2138.56 831.68,4147.96 2341.84,5658.16 1510.2,1510.24 3519.6,2341.84 5658.16,2341.84 2138.56,0 4147.96,-831.68 5658.16,-2341.84 1510.24,-1510.2 2341.84,-3519.6 2341.84,-5658.16 0,-2138.56 -831.68,-4147.92 -2341.84,-5658.16l0 0zm-5658.16 13005.12c-4051.08,0 -7346.96,-3295.88 -7346.96,-7346.96 0,-4051.08 3295.88,-7346.96 7346.96,-7346.96 4051.08,0 7346.96,3295.88 7346.96,7346.96 0,4051.08 -3295.88,7346.96 -7346.96,7346.96z" p-id="4278"/>
   <path class="fil2" d="M11069.36 8000c0,-1692.44 -1376.88,-3069.36 -3069.36,-3069.36 -1692.48,0 -3069.36,1376.92 -3069.36,3069.36 0,1692.44 1376.92,3069.36 3069.36,3069.36 1692.44,0 3069.36,-1376.88 3069.36,-3069.36zm-5485.68 0c0,-1332.4 1083.92,-2416.32 2416.32,-2416.32 1332.4,0 2416.32,1083.92 2416.32,2416.32 0,1332.4 -1083.92,2416.32 -2416.32,2416.32 -1332.4,0 -2416.32,-1083.92 -2416.32,-2416.32z" p-id="4279"/>
   <path class="fil2" d="M8914.28 8000c0,-504.12 -410.12,-914.28 -914.28,-914.28 -504.16,0 -914.28,410.16 -914.28,914.28 0,504.12 410.16,914.28 914.28,914.28 504.12,0 914.28,-410.12 914.28,-914.28zm-1175.48 0c0,-144.04 117.2,-261.2 261.2,-261.2 144,0 261.2,117.2 261.2,261.2 0,144 -117.2,261.2 -261.2,261.2 -144,0 -261.2,-117.2 -261.2,-261.2zm261.2 4244.88c-180.32,0 -326.52,146.2 -326.52,326.52 0,180.36 146.2,326.56 326.52,326.56 1309.28,0 2539.56,-509.2 3464.16,-1433.84 924.6,-924.6 1433.8,-2154.84 1433.8,-3464.16 0,-180.32 -146.2,-326.52 -326.56,-326.52 -180.32,0 -326.52,146.2 -326.52,326.52 0,2340.64 -1904.28,4244.92 -4244.88,4244.92zm6040.8 -4571.4c-180.32,0 -326.52,146.2 -326.52,326.52 0,46.28 -0.56,92.44 -1.64,138.44 -4.24,180.28 138.48,329.92 318.72,334.12l7.88 0.08c176.76,0 322.12,-141.12 326.32,-318.8 1.2,-51.16 1.84,-102.48 1.84,-153.92 -0.08,-180.24 -146.24,-326.44 -326.6,-326.44z" p-id="4280"/>
   <path class="fil2" d="M13985.92 8882.48c-176.76,-35.76 -348.96,78.72 -384.64,255.56 -534.6,2651.68 -2890.28,4576.24 -5601.32,4576.24 -180.32,0 -326.52,146.2 -326.52,326.52 0,180.36 146.2,326.52 326.52,326.52 1479.8,0 2920.88,-517.92 4057.76,-1458.36 1121.88,-928.04 1897.4,-2221.36 2183.76,-3641.88 35.64,-176.76 -78.8,-348.96 -255.56,-384.64l0 0.04zm-5985.92 -5127.36c180.32,0 326.52,-146.2 326.52,-326.52 0,-180.36 -146.2,-326.56 -326.52,-326.56 -1309.28,0 -2539.56,509.16 -3464.16,1433.84 -924.64,924.56 -1433.8,2154.84 -1433.8,3464.12 0,180.32 146.2,326.52 326.52,326.52 180.32,0 326.52,-146.2 326.52,-326.52 0,-2340.6 1904.28,-4244.88 4244.88,-4244.88l0.04 0zm-6031.36 3772.24c-180,-4.36 -329.92,138.48 -334.12,318.72 -1.04,50.24 -1.84,102.32 -1.84,153.6 0,180.32 146.2,326.52 326.52,326.52 180.36,0 326.52,-145.88 326.52,-326.2 0,-46.28 0.56,-92.44 1.64,-138.44 4.24,-180.32 -138.48,-329.92 -318.72,-334.2l0 0z" p-id="4281"/>
   <path class="fil2" d="M8000 2285.72c180.32,0 326.52,-146.2 326.52,-326.52 0,-180.36 -146.2,-326.56 -326.52,-326.56 -1479.8,0 -2920.84,517.92 -4057.72,1458.4 -1121.92,928.04 -1897.44,2221.36 -2183.8,3641.84 -35.6,176.8 78.8,349 255.56,384.64 21.76,4.4 43.52,6.52 64.88,6.52 152.24,0 288.52,-107.08 319.76,-262.08 534.56,-2651.68 2890.28,-4576.24 5601.32,-4576.24z" p-id="4282"/>
  </g>
 </g>
</svg>
