<?xml version="1.0" encoding="UTF-8"?>
<!DOCTYPE svg PUBLIC "-//W3C//DTD SVG 1.1//EN" "http://www.w3.org/Graphics/SVG/1.1/DTD/svg11.dtd">
<!-- Creator: CorelDRAW 2018 (64-Bit) -->
<svg xmlns="http://www.w3.org/2000/svg" xml:space="preserve" width="34.9635mm" height="40mm" version="1.1" style="shape-rendering:geometricPrecision; text-rendering:geometricPrecision; image-rendering:optimizeQuality; fill-rule:evenodd; clip-rule:evenodd"
viewBox="0 0 8129.91 9301.03"
 xmlns:xlink="http://www.w3.org/1999/xlink">
 <defs>
  <style type="text/css">
   <![CDATA[
    .fil34 {fill:#341144}
    .fil37 {fill:#552263}
    .fil24 {fill:#6B297A}
    .fil18 {fill:#73206A}
    .fil25 {fill:#782A8F}
    .fil19 {fill:#853A96}
    .fil33 {fill:#85459A}
    .fil21 {fill:#8F4F9F}
    .fil28 {fill:#9051A0}
    .fil14 {fill:#9B3995}
    .fil26 {fill:#A01664}
    .fil31 {fill:#A41768}
    .fil29 {fill:#B01B4A}
    .fil23 {fill:#B263A7}
    .fil9 {fill:#BBD64B}
    .fil13 {fill:#BD2025}
    .fil27 {fill:#C02026}
    .fil2 {fill:#C47728}
    .fil30 {fill:#C54627}
    .fil12 {fill:#CC3192}
    .fil32 {fill:#D1499A}
    .fil22 {fill:#D24B9B}
    .fil17 {fill:#D31F26}
    .fil5 {fill:#D6E042}
    .fil20 {fill:#D98A26}
    .fil1 {fill:#DDB02A}
    .fil7 {fill:#E22574}
    .fil35 {fill:#EE3F8A}
    .fil11 {fill:#EE438D}
    .fil8 {fill:#EF3839}
    .fil3 {fill:#F15933}
    .fil15 {fill:#F1EB59}
    .fil4 {fill:#F37132}
    .fil36 {fill:#F4805F}
    .fil16 {fill:#F7975F}
    .fil0 {fill:#FAA42F}
    .fil6 {fill:#FCEA3B}
    .fil10 {fill:#FFCF29}
   ]]>
  </style>
 </defs>
 <g id="图层_x0020_1">
  <metadata id="CorelCorpID_0Corel-Layer"/>
  <g id="nginx-proxy-manager.svg">
   <polygon class="fil0" points="33.25,6992.35 33.25,6959.19 -0,6942.57 -0,6975.82 "/>
   <polygon class="fil1" points="-0,5818.65 33.25,5796.49 33.25,5220.69 -0,5204.25 "/>
   <polygon class="fil2" points="-0,6942.57 33.25,6959.19 432.5,6726.62 432.5,6029.07 33.25,5796.49 -0,5818.65 "/>
   <polygon class="fil3" points="1003.77,7556.97 1037.02,7535 1536.13,7828.35 1536.13,7861.72 "/>
   <polygon class="fil4" points="1003.77,7556.97 1037.02,7535 1037.02,7075.48 432.5,6726.62 33.25,6959.19 33.25,6992.35 "/>
   <polygon class="fil5" points="-0,4080.34 33.25,4063.71 33.25,3482.38 -0,3465.66 "/>
   <path class="fil6" d="M-0 5204.25l33.16 16.44 349.37 -199.23c-14.81,-115.08 -22.16,-231.74 -22.16,-347.74 0,-7.67 0,-15.37 0,-23.07 0,-127.47 11.09,-260.38 22.07,-387.55l-349.28 -199.67 -33.16 16.63 0 1124.19z"/>
   <path class="fil0" d="M33.16 5802.03l399.34 227.04 604.52 -343.32 0 0 0 -465.17 -294.05 -171.42c5.65,83.15 22.28,166.09 38.9,249.13l-321.65 188.04c-39.27,-152.35 -65.5,-308.4 -77.8,-465.1l-349.35 199.23 0.09 581.57z"/>
   <path class="fil3" d="M1037.02 7535l0 -459.52 0 0 160.72 -94.1 -5.44 -5.46c77.59,94.03 160.72,182.51 243.97,265.64 138.79,138.89 289.52,267.29 448.91,382.04l-349.37 204.88 -498.79 -293.47zm998.12 -1101.73l404.78 232.48 0 337.7c-124.61,-90.71 -242.5,-193.39 -349.39,-304.49 -64.97,-60.25 -126.68,-125.38 -183.02,-193.65l127.63 -72.04z"/>
   <polygon class="fil7" points="3044.53,8730.88 3044.53,8692.07 2539.88,8404.27 2512.16,8420.9 "/>
   <path class="fil8" d="M2512.16 8420.9l27.72 -16.63 0 -404.29c-230.43,-101.06 -450.8,-228.15 -654.47,-376.18l-349.35 204.86 0 33.34 976.1 558.9z"/>
   <polygon class="fil9" points="-0,2341.84 33.25,2325.21 33.25,2308.68 -0,2325.21 "/>
   <polygon class="fil5" points="-0,3465.66 33.25,3482.38 532.37,3194.46 532.37,2613.22 33.25,2325.21 -0,2341.84 "/>
   <path class="fil10" d="M33.16 4063.43l349.37 199.23c37.92,-345.16 124.38,-685.83 255.17,-1007.56l-105.4 -60.76 -499.14 288.03 0 581.06zm1059.18 365.3l-55.32 -365.3 0 -581.06 -89.08 -49.99c-101.68,255.82 -171.05,524.51 -205.13,797.59l349.53 198.76z"/>
   <path class="fil0" d="M742.97 5049.16l294.05 171.53 499 -287.82 0 -581.34 -499 -288.1 -294.03 166.07c-17.37,138.86 -27.25,280.52 -27.67,420.87 0.77,132.91 10.39,267.06 27.74,398.48l-0.09 0.3z"/>
   <polygon class="fil3" points="1635.89,6029.07 1985.26,5829.65 1985.26,5829.65 2539.88,6150.82 2539.88,6665.65 2040.76,6959.19 1635.89,6726.62 1635.89,6029.07 "/>
   <path class="fil11" d="M2539.88 8404.27l504.74 287.8 504.77 -287.8 0 -116.29c-355.02,-49.5 -693.3,-143.91 -1009.51,-288.01l0 404.29zm1009.51 -476.26l0 -99.66 -504.77 -293.35 -294.03 171.63c254.94,108.4 524.16,183.11 798.8,221.25l0 0.14z"/>
   <polygon class="fil4" points="1635.89,6029.07 1985.26,5829.65 1985.26,5187.53 1536.13,4932.87 1037.02,5220.69 1037.02,5685.74 "/>
   <polygon class="fil12" points="4015.02,9290.05 4048.39,9273.43 4048.39,8692.07 3549.18,8404.27 3044.53,8692.07 3044.53,8730.88 "/>
   <path class="fil13" d="M2750.48 7706.62l294.05 -171.63 0 -575.8 -504.74 -293.54 -499.21 293.54 0 337.7c217.13,166.91 456.89,305.26 709.99,409.71l-0.09 0.02z"/>
   <polygon class="fil14" points="4064.81,9284.5 4048.39,9273.43 4015.02,9290.05 4037.2,9301.03 "/>
   <polygon class="fil15" points="33.25,2325.21 532.37,2613.22 1037.02,2325.21 1037.02,1743.85 1020.39,1738.32 33.25,2308.68 "/>
   <path class="fil6" d="M532.37 3194.55l105.4 60.78c127.47,-315.72 299.38,-603.73 504.74,-869.16l-105.4 -60.97 -504.74 288.01 0 581.34zm415.69 237.55l89.06 49.97 499.02 -287.8 0 -581.06 -83.15 -44.34c-208.95,261.61 -380.02,552.74 -504.67,863.53l-0.26 -0.3z"/>
   <polygon class="fil0" points="1037.02,4063.71 1536.13,4351.53 1985.26,4091.34 1985.26,3471.38 2001.98,3460.19 1536.13,3194.46 1037.02,3482.38 "/>
   <polygon class="fil7" points="3044.53,7535 3549.18,7828.35 4048.39,7535 4048.39,7003.54 4037.2,7008.98 3493.75,6699 3044.53,6959.19 "/>
   <polygon class="fil16" points="1536.13,4932.87 1985.26,5187.53 1985.26,4091.34 1536.13,4351.53 "/>
   <path class="fil12" d="M3549.18 8404.27l499.12 287.8 504.74 -287.8 0 -121.84c-170.53,21.83 -343.65,33.16 -515.77,33.16 0,0 0,0 0,0 -162.63,-0.53 -326.37,-10.14 -487.86,-27.65l-0.23 116.33zm1003.74 -481.79l0 -94.13 -504.74 -293.35 -499.09 293.35 0 99.66c159.05,21.69 320.82,33.25 481.72,33.25 1.72,0 4.28,0 6,0 4.91,0.05 10.86,0.05 15.6,0.05 167.51,0 335.42,-13.07 500.56,-38.81l-0.05 -0.02z"/>
   <polygon class="fil17" points="2539.88,6665.65 3044.53,6959.19 3493.75,6699 2539.88,6150.82 "/>
   <polygon class="fil18" points="4048.39,9273.43 4064.81,9284.5 5051.95,8714.23 5051.95,8692.07 4553.04,8404.27 4048.39,8692.07 "/>
   <polygon class="fil5" points="1020.39,1738.32 1037.02,1743.85 1536.13,1456.05 1536.13,1439.33 "/>
   <path class="fil10" d="M1037.02 2325.21l105.4 60.97c94.13,-116.29 194.09,-221.41 293.84,-326.61 143.28,-143.79 299.91,-276.45 465.94,-393.27l-366.18 -210.32 -499.02 287.8 0.02 581.43zm814.91 -21.97l83.15 44.34 504.74 -288.01 0 -55.32c-124.98,90.8 -242.55,192.97 -349.51,304.45 -83.15,82.94 -160.75,165.86 -238.43,260.2l0.05 -265.66z"/>
   <polygon class="fil0" points="1536.13,3194.46 2001.98,3460.19 2539.88,3150.24 2539.88,2613.22 2040.76,2325.21 1536.13,2613.22 "/>
   <polygon class="fil19" points="5573.32,8415.15 5556.6,8404.27 5051.95,8692.07 5051.95,8714.23 "/>
   <polygon class="fil12" points="4048.39,7535 4553.04,7828.35 5051.95,7535 5051.95,6959.19 4591.83,6687.81 4048.39,7003.54 "/>
   <path class="fil14" d="M4552.92 8404.27l499.02 287.8 504.74 -287.8 0 -415.69c-318.89,144.93 -656.95,244.29 -1003.58,293.75l-0.19 121.94zm1785.63 -1118.87l-282.87 -166.07 -1502.77 709.02 0 94.13c271.78,-44.34 537.81,-116.29 781.87,-221.41l1003.77 -415.66z"/>
   <path class="fil10" d="M1536.02 1456.05l366.2 210.32c198.93,-142.77 413.62,-265.89 637.63,-365.46l0.12 -426.22 -11.18 -5.53 -992.65 570.18 -0.12 16.72z"/>
   <path class="fil20" d="M2040.67 2325.21l499.21 288.01 504.74 -288.01 0 -581.36 -272.17 -154.68c-266.22,105.31 -510.18,249.2 -732.36,415.66l0.58 320.37z"/>
   <path class="fil21" d="M5556.6 8404.27l16.63 10.98 987.12 -570.18 0 -16.72 -366.18 -210.32c-199.86,143.4 -414.15,268.13 -637.82,370.83l0.26 415.41z"/>
   <polygon class="fil4" points="3510.37,2590.85 3044.53,2325.21 2539.88,2613.22 2539.88,3150.24 "/>
   <polygon class="fil22" points="4591.83,6687.81 5051.95,6959.19 5556.6,6665.65 5556.6,6134.17 "/>
   <path class="fil23" d="M5051.95 7535l282.84 166.07c257.96,-108.8 501.35,-252.85 721.06,-426.31l-0.16 -315.56 -499.09 -293.54 -504.74 293.54 0.09 575.8z"/>
   <polygon class="fil10" points="2528.69,869.16 2539.88,874.69 3044.53,586.59 3044.53,570.18 "/>
   <path class="fil0" d="M2772.45 1589.17l271.78 155.07 404.69 -227.04 0 -127.66 22.28 -5.44c-239.18,42.04 -474.47,111.29 -698.55,204.92l-0.19 0.14zm1375.2 -974.65l-1103.13 -27.81 -504.74 287.98 0 426.27c290.24,-127.56 596.48,-219.34 909.29,-271.31l698.58 -415.13z"/>
   <path class="fil24" d="M6194.35 7618.03l366.2 210.32 504.74 -293.35 0 -459.52 -604.71 -348.77 -404.9 232.48 0 315.51c66.71,-44.32 122.03,-94.1 183.21,-143.98l321.44 182.79c-115.5,109.01 -238.25,210.9 -366.09,304.47l0.09 0.05z"/>
   <polygon class="fil25" points="7081.73,7545.99 7065.11,7535 6560.46,7828.35 6560.46,7844.98 "/>
   <polygon class="fil4" points="3044.53,2325.21 3510.37,2590.85 4037.2,2292.05 4048.39,2297.49 4048.39,1860.04 3449.31,1516.81 3044.53,1743.85 "/>
   <polygon class="fil14" points="5556.6,6665.65 6055.81,6959.19 6460.59,6726.62 6460.59,6029.07 6083.62,5813.21 6083.62,5829.65 5556.6,6134.17 "/>
   <polygon class="fil0" points="3044.53,586.59 3449.31,819.19 4048.39,470.4 4048.39,470.4 4048.39,10.98 4037.2,0 3044.53,570.18 "/>
   <polygon class="fil3" points="4048.39,2297.49 4048.39,1860.04 4048.39,1860.04 4652.79,1516.81 4652.79,1516.81 5051.95,1743.85 5051.95,2325.21 4575.11,2602.03 "/>
   <polygon class="fil25" points="7065.11,7535 7081.73,7545.99 8068.85,6975.82 8068.85,6959.19 7663.98,6726.62 7065.11,7075.48 "/>
   <polygon class="fil26" points="6083.62,5204.25 6560.46,4932.87 6560.46,4351.53 6083.62,4074.71 "/>
   <polygon class="fil27" points="5556.6,3166.65 5556.6,2613.22 5051.95,2325.21 4575.11,2602.03 "/>
   <polygon class="fil14" points="6083.62,5813.21 6460.59,6029.07 6460.59,6029.07 7065.11,5685.74 7065.11,5220.69 6560.46,4932.87 6083.62,5204.25 "/>
   <path class="fil3" d="M4652.89 819.19l399.15 -232.5 504.74 288.01 0 437.36c-150.49,-68.6 -306.82,-126.54 -466,-171.86l0 371.13c77.36,22.55 154.19,50.78 227.83,83.1l-266.22 149.44 -399.5 -227.06 0 -697.62z"/>
   <path class="fil28" d="M7131.7 5835c10.51,-17.09 18.04,-35.9 22.18,-55.55 -4.14,19.65 -11.67,38.46 -22.18,55.53l0 0.02zm55.32 -133.21c79.13,-223.25 133.52,-456.56 160.88,-691.81l-260.78 154.89 0 465.17 0.05 -0.09 105.5 60.94 -5.65 10.91zm499.12 271.36l404.9 -232.57 0 -519.88 -399.76 -215.85c-31.51,317.61 -104.57,631.14 -216.18,930.17l5.72 -11.18 205.32 49.32z"/>
   <polygon class="fil29" points="6077.97,3471.38 6560.46,3194.46 6560.46,2613.22 6055.81,2325.21 5556.6,2613.22 5556.6,3166.65 "/>
   <polygon class="fil30" points="4652.79,819.19 5051.95,586.59 4048.39,10.98 4048.39,470.4 "/>
   <polygon class="fil31" points="6083.62,4074.71 6560.46,4351.53 7065.11,4063.71 7065.11,3482.38 6560.46,3194.46 6077.97,3471.38 6083.62,3471.38 "/>
   <path class="fil8" d="M5051.95 2325.21l504.74 288.01 499.12 -288.01 0 -298.98c-224.36,-177.51 -473.24,-323.09 -737.46,-431.64l-266.22 149.44 -0.19 581.17z"/>
   <path class="fil14" d="M6560.34 4932.87l504.77 287.82 260.78 -154.89c17.76,-137.77 27.23,-277.03 27.65,-415.87 -0.44,-145.96 -10.25,-292.84 -27.58,-437.38l-260.96 -149.12 -504.74 287.8 0.09 581.64z"/>
   <path class="fil24" d="M7691.28 5004.84l377.27 215.85 0 0 0 -1157.26 0 0 -382.71 215.85c14.63,114.89 22.28,231.46 22.28,347.37 0,7.63 0,15.93 0,23.58 0,121.73 -5.53,238.01 -16.72,354.32l-0.12 0.28z"/>
   <path class="fil7" d="M6055.69 2325.21l504.77 288.01 60.97 -33.34c-73.25,-95.29 -153.33,-186.49 -238.48,-271.29 -103.24,-99.87 -213.25,-194.51 -327.12,-282.45l-0.14 299.07zm1203.48 55.62l133.12 -72.15 0 -564.83 -504.74 -287.8 -376.99 221.29c47.23,124.59 88.57,253.13 121.94,382.09 104.8,106.85 205.41,220.83 299.07,338.02l327.61 -16.63z"/>
   <polygon class="fil25" points="8068.85,5796.49 8068.85,5802.03 8068.85,5220.69 8068.85,5220.69 "/>
   <path class="fil12" d="M6560.34 3194.55l504.77 287.82 60.94 -33.34c-120.59,-314.17 -291.49,-609.01 -504.74,-869.23l-60.97 33.34 0 581.41zm1441.92 326.42l127.66 -71.94 0 -835.81 -499.19 -288.01 -133.12 72.15c205.9,265.59 376.16,558.69 504.53,869.27l0.12 254.34z"/>
   <path class="fil8" d="M6183.37 1677.35l376.97 -221.29 -1003.74 -581.36 0 437.36c220.62,99.99 430.85,223.15 626.73,365.48l0.05 -0.19z"/>
   <path class="fil23" d="M7064.99 4063.43l260.8 149.33c-36.97,-261.22 -104.57,-518.14 -199.86,-764.15l-60.97 33.37 0.02 581.45zm881.92 365.18l121.94 -365.18 0 -581.06 -504.74 -287.82 -127.68 71.97c127.68,321.16 216.25,658.75 249.62,1013.04l260.87 149.05z"/>
   <rect class="fil19" x="8068.85" y="3482.37" width="0" height="581.35"/>
   <polygon class="fil32" points="7065.11,2325.21 7564.2,2613.22 8068.85,2325.21 7065.11,1743.85 "/>
   <polygon class="fil14" points="7564.2,3194.46 8068.85,3482.38 8068.85,3482.38 8068.85,2325.21 8068.85,2325.21 7564.2,2613.22 "/>
   <polygon class="fil33" points="7663.98,6726.62 8068.85,6959.19 8068.85,6959.19 8068.85,5802.03 8068.85,5796.49 7663.98,6029.07 "/>
   <rect class="fil34" x="8068.85" y="6959.2" width="0" height="16.63"/>
   <polygon class="fil3" points="2994.65,5193.07 3044.53,5220.69 3044.53,5276.2 2994.65,5248.29 "/>
   <polygon class="fil3" points="2994.65,4091.34 3044.53,4063.71 3549.18,4351.53 3549.18,4932.87 3044.53,5220.69 2994.65,5193.07 "/>
   <polygon class="fil7" points="4087.17,5818.65 4048.39,5796.49 3998.4,5829.65 4037.2,5851.81 "/>
   <polygon class="fil8" points="3998.4,5829.65 4048.39,5796.49 4048.39,5220.69 3549.18,4932.87 3044.53,5220.69 3044.53,5276.2 "/>
   <polygon class="fil35" points="4048.39,5796.49 4087.17,5818.65 5051.95,5259.48 5051.95,5220.69 4553.04,4932.87 4048.39,5220.69 "/>
   <polygon class="fil8" points="3549.18,4932.87 4048.39,5220.69 4553.04,4932.87 4553.04,4351.53 4048.39,4063.71 3549.18,4351.53 "/>
   <polygon class="fil7" points="4553.04,4932.87 5051.95,5220.69 5074.32,5209.69 5074.32,4074.71 5051.95,4063.71 4553.04,4351.53 "/>
   <polygon class="fil12" points="5074.32,5209.69 5051.95,5220.69 5051.95,5259.48 5074.32,5248.29 "/>
   <polygon class="fil4" points="2994.65,4091.34 3044.53,4063.71 3044.53,4024.83 2994.65,4052.53 "/>
   <polygon class="fil3" points="3044.53,4063.71 3044.53,4024.83 4015.02,3465.66 4048.39,3482.38 4048.39,4063.71 3549.18,4351.53 "/>
   <polygon class="fil36" points="4070.55,3471.38 4048.39,3482.38 4015.02,3465.66 4037.2,3454.66 "/>
   <polygon class="fil8" points="4048.39,4063.71 4553.04,4351.53 5051.95,4063.71 5051.95,4041.55 4070.55,3471.38 4048.39,3482.38 "/>
   <polygon class="fil7" points="5051.95,4063.71 5074.32,4074.71 5074.32,4052.53 5051.95,4041.55 "/>
   <polygon class="fil4" points="3704.46,1367.37 4048.39,1566.8 4392.02,1367.37 4392.02,968.82 4048.39,769.59 3704.46,968.82 "/>
   <polygon class="fil37" points="6715.65,6577.08 7065.11,6776.5 7408.92,6577.08 7408.92,6178.42 7065.11,5979.28 6715.65,6178.42 "/>
   <polygon class="fil4" points="693.18,6577.08 1037.02,6776.5 1380.83,6577.08 1380.83,6178.42 1037.02,5979.28 693.18,6178.42 "/>
  </g>
 </g>
</svg>
