<?xml version="1.0" encoding="UTF-8"?>
<!DOCTYPE svg PUBLIC "-//W3C//DTD SVG 1.1//EN" "http://www.w3.org/Graphics/SVG/1.1/DTD/svg11.dtd">
<!-- Creator: CorelDRAW 2018 (64-Bit) -->
<svg xmlns="http://www.w3.org/2000/svg" xml:space="preserve" width="40mm" height="40mm" version="1.1" style="shape-rendering:geometricPrecision; text-rendering:geometricPrecision; image-rendering:optimizeQuality; fill-rule:evenodd; clip-rule:evenodd"
viewBox="0 0 1454.55 1454.55"
 xmlns:xlink="http://www.w3.org/1999/xlink">
 <defs>
  <style type="text/css">
   <![CDATA[
    .fil0 {fill:#E5502B}
    .fil1 {fill:white}
   ]]>
  </style>
 </defs>
 <g id="图层_x0020_1">
  <metadata id="CorelCorpID_0Corel-Layer"/>
  <g id="_2103793906560">
   <circle class="fil0" cx="727.27" cy="727.27" r="727.27"/>
   <path class="fil1" d="M383.94 942.28l689 0 89.31 -165.87c-84.92,0 -151.81,31.8 -229.67,38.27 170.39,-254.45 -38.28,-345.04 -38.28,-586.92 -59.21,43.39 -76.56,200.72 -76.56,306.22l-20.92 -55.63c-5.34,-27.65 -2.9,-32.26 -4.76,-59.04 -3.72,-53.75 -10.11,-65.19 -23.47,-104.13 -27.46,-80.04 -52.92,-107.84 -52.92,-215.02 -90.15,60.37 -61.45,180.98 -87.23,270.03 -9.79,33.8 -19.28,51.48 -27.6,87.23 -7.99,19.95 -15.19,34.62 -19.49,35.23 -4.43,0.62 -5.87,-13.42 -6.03,-35.23 0,-88.3 -13.4,-154.47 -63.8,-191.39 0,183.28 -76.56,187.67 -76.56,382.77 0,79.28 36.45,114.19 63.8,165.87 -78.12,-6.5 -134.58,-38.27 -216.91,-38.27l102.07 165.87z"/>
   <polygon class="fil1" points="383.94,1133.67 1060.18,1133.67 1060.18,1018.84 383.94,1018.84 "/>
   <path class="fil1" d="M524.29 1197.46c27.84,217.03 391.07,200.47 395.54,0l-395.54 0z"/>
  </g>
 </g>
</svg>
