<?xml version="1.0" encoding="UTF-8"?>
<!DOCTYPE svg PUBLIC "-//W3C//DTD SVG 1.1//EN" "http://www.w3.org/Graphics/SVG/1.1/DTD/svg11.dtd">
<!-- Creator: CorelDRAW 2018 (64-Bit) -->
<svg xmlns="http://www.w3.org/2000/svg" xml:space="preserve" width="30.4345mm" height="40.0001mm" version="1.1" style="shape-rendering:geometricPrecision; text-rendering:geometricPrecision; image-rendering:optimizeQuality; fill-rule:evenodd; clip-rule:evenodd"
viewBox="0 0 4734.12 6222.06"
 xmlns:xlink="http://www.w3.org/1999/xlink">
 <defs>
  <style type="text/css">
   <![CDATA[
    .fil0 {fill:black}
   ]]>
  </style>
 </defs>
 <g id="图层_x0020_1">
  <metadata id="CorelCorpID_0Corel-Layer"/>
  <g id="ollama.svg">
   <path class="fil0" d="M4226.21 6220.97c99.46,-259.91 74.32,-519.81 -6.97,-777.06 -31.06,-97.98 -74.35,-192.77 -120.89,-284.89 -38.5,-77.22 -35.26,-149.66 21.4,-207.74 163.14,-166.69 204.32,-373.87 215.02,-593.29 10.7,-226.33 -5.88,-448.98 -111.76,-656.15 -19.2,-38.42 -43.03,-74.7 -70.6,-107.59 -70.06,-84.17 -75.97,-196.55 -1.09,-273.77 271.16,-279.07 280.77,-724.85 109.65,-1053.95 -145.49,-279.65 -360.51,-467.63 -681.9,-511.3 -58.84,-8.04 -120.91,1.06 -180.8,6.39 -120.85,10.66 -172.23,-13.35 -223.01,-119.87 -196.27,-410.08 -799.58,-675.31 -1278.21,-362.17 -151.41,99.09 -277.1,214.13 -352.51,379.76 -36.93,82.01 -104.81,117.69 -189.83,102.73 -670.69,-116.6 -1162.23,683.37 -953.12,1251.08 40.71,110.25 111.83,210.91 179.71,308.89 56.2,80.44 63.68,180.56 13.41,255.65 -54.01,80.44 -112.87,162.96 -140.14,253.52 -89.86,296.12 -93.6,595.92 9.61,890.48 25.7,72.95 76.52,140.04 126.21,201.81 67.94,84.17 85.6,149.11 31.58,252.99 -105.88,202.39 -166.88,415.41 -181.29,642.27 -9.08,140.09 13.39,274.81 71.15,403.19l-382.52 0.09c-79.14,-366.42 -31.53,-720.08 105.39,-1065.7 12.3,-30.92 8.51,-79.39 -8.06,-108.14 -220.9,-398.9 -234.24,-818.06 -129.95,-1247.88 24.03,-99.55 74.9,-192.26 106.99,-289.73 9.61,-29.82 10.13,-74.56 -5.91,-99.04 -227.29,-349.9 -243.34,-724.31 -125.69,-1109.92 77.01,-252.41 220.37,-466.54 430.57,-632.18 45.45,-35.65 48.67,-76.7 41.19,-129.4 -51.88,-371.19 -61.54,-741.37 75.43,-1098.73 38.48,-100.64 91.42,-200.77 159.33,-283.85 180.24,-219.44 462.67,-203.43 637.54,20.21 162.05,208.3 216.06,453.76 258.87,704.62 5.34,30.92 9.61,61.78 15.48,103.88 449.26,-262.04 895.32,-264.7 1342.98,-2.66 29.96,-139.03 56.14,-275.39 89.32,-410.13 39.06,-158.16 105.9,-306.76 218.77,-424.98 219.28,-230.09 499.49,-186.43 672.82,87.86 125.69,199.17 187.19,422.34 194.14,654.03 6.39,220.48 -9.08,442.03 -24.62,662.54 -3.22,50.04 3.73,81.42 40.1,110.78 146.03,116.6 263.69,258.29 344.97,425.49 216.06,443.12 234.8,882.49 -31.53,1316.04 -18.18,29.31 -20.87,84.12 -5.91,115.05 206.46,430.85 207.54,872.36 73.28,1320.26 -23.52,78.3 -74.32,148.61 -110.67,223.7 -9.08,18.65 -20.35,44.74 -13.91,60.21 156.7,353.07 193.63,718.97 128.91,1097.66l-381.91 0.02 -1.04 -1.1 0.06 0.02zm-3337.95 -4785.76c109.12,-12.3 205.93,-27.7 303.26,-33.61 106.43,-6.35 148.66,-43.65 146.53,-151.72 -2.13,-103.35 -5.88,-207.23 -14.45,-310 -14.95,-176.81 -65.22,-344.59 -155.6,-497.42 -65.28,-110.3 -109.12,-109.73 -163.14,3.7 -43.83,92.16 -79.69,191.25 -102.73,290.8 -53.45,231.65 -56.11,465.98 -13.88,698.77l0 -0.51zm2965.71 -2.15c0,-180.03 13.86,-361.69 -4.32,-540.06 -14.44,-140.09 -64.18,-277.47 -109.65,-412.77 -15.48,-45.78 -65.24,-80.39 -98.93,-120.33 -35.28,40.47 -79.69,75.6 -103.77,121.95 -128.87,250.34 -152.39,521.92 -142.78,797.26 1.6,51.13 16.57,115.56 95.2,121.44 114.47,8.51 228.89,20.25 364.25,32.53l0 -0.02z" p-id="5312"/>
   <path class="fil0" d="M2330.19 4108.21c-167.93,-2.12 -365.3,-11.73 -554.09,-110.25 -385.6,-202.39 -496.32,-679.59 -225.16,-1019.36 257.76,-322.77 738.06,-454.32 1154.66,-317.95 255.69,83.61 462.67,230.09 567.53,481.46 142.27,341.34 13.35,667.84 -299,840.92 -215.55,119.29 -290.4,125.17 -644.46,125.17l0.53 0zm20.36 -238.58c73.75,0 140.59,5.3 206.4,-1.09 181.31,-17.58 344.45,-80.96 454.63,-232.22 169.01,-232.21 60.96,-468.12 -139.62,-622.55 -309.14,-238.6 -815.59,-217.86 -1101.21,76.13 -213.93,220.48 -154.04,566.69 124.61,699.28 148.19,70.82 301.68,92.69 455.13,80.44l0.06 0.02zm-954.68 -998.05c-0.58,144.3 -117.69,274.24 -245.52,273.72 -131.04,-1.09 -233.2,-96.95 -232.11,-217.82 1.04,-155.5 110.67,-272.15 254.54,-270.55 124.66,1.06 224.12,96.91 223.6,215.16l-0.51 -0.51zm1938.2 0c-1.06,-119.29 96.81,-213.59 223.01,-215.2 141.74,-1.56 254.59,118.27 255.12,270.55 0,120.91 -103.21,217.86 -232.63,218.38 -128.35,0.51 -244.42,-128.91 -245.51,-273.72z" p-id="5313"/>
   <path class="fil0" d="M2364.94 3621.42c-87.68,1.6 -131.57,-45.27 -109.65,-129.4 14.45,-54.91 6.44,-89.01 -42.76,-123.09 -49.75,-34.1 -100.55,-82.01 -55.61,-150.68 41.66,-63.92 103.21,-42.61 163.66,-26.6 26.18,6.91 58.28,3.17 85.54,-3.22 58.33,-14.4 115.51,-28.73 155.15,31.95 40.1,61.77 -1.62,110.25 -44.99,139.56 -60.4,41.52 -68.4,86.25 -53.49,152.3 15.57,68.16 -26.18,107.59 -97.86,108.64l0 0.53 0.02 0.02z" p-id="5314"/>
  </g>
 </g>
</svg>
