<?xml version="1.0" encoding="UTF-8"?>
<!DOCTYPE svg PUBLIC "-//W3C//DTD SVG 1.1//EN" "http://www.w3.org/Graphics/SVG/1.1/DTD/svg11.dtd">
<!-- Creator: CorelDRAW 2018 (64-Bit) -->
<svg xmlns="http://www.w3.org/2000/svg" xml:space="preserve" width="38.9915mm" height="40.0001mm" version="1.1" style="shape-rendering:geometricPrecision; text-rendering:geometricPrecision; image-rendering:optimizeQuality; fill-rule:evenodd; clip-rule:evenodd"
viewBox="0 0 804.45 825.26"
 xmlns:xlink="http://www.w3.org/1999/xlink">
 <defs>
  <style type="text/css">
   <![CDATA[
    .fil0 {fill:none}
    .fil3 {fill:#6FB850}
    .fil5 {fill:#6FB950}
    .fil6 {fill:#75B35B}
    .fil2 {fill:#77C656}
    .fil4 {fill:#85CB65}
    .fil1 {fill:#B1DB9E}
   ]]>
  </style>
 </defs>
 <g id="图层_x0020_1">
  <metadata id="CorelCorpID_0Corel-Layer"/>
  <g id="_2103794656992">
   <path class="fil0" d="M682.23 392.37l42.41 37.47c0,0 7,6.18 7.41,-2.88 0.41,-9.06 -15.23,-33.76 -15.23,-33.76 0,0 1.71,-34.29 -12.97,-68.96 -52.62,-99.51 -143.13,-98.71 -234.89,-68.96l-420.78 -255.27c0,0 307.14,212.45 269.26,594.52 0,0 44.47,223.58 232.21,230.57 187.74,6.99 271.74,-211.63 251.97,-251.98 0,0 -14,153.65 -165.52,164.36"/>
   <path class="fil0" d="M310.13 576.1c0,0 -113.33,-127.74 -273.9,-167.26l183.88 11.53"/>
   <path class="fil0" d="M281 310.56l-281 -68.89c0,0 215.75,85.64 317.44,352.85"/>
   <path class="fil0" d="M630.22 250.67c-134.28,11.96 -240.46,111.32 -246.91,245.86 -10.77,224.92 160.08,318.96 261.25,311.26"/>
   <path class="fil0" d="M699.22 315.91c0,0 -202.65,51.32 -194.04,230.03 16.94,162.74 88.36,199.05 222.62,202.3"/>
   <path class="fil0" d="M682.23 392.37c4.98,3.62 -164.04,-25.07 -163.39,232.81"/>
   <path class="fil0" d="M48.17 0c0,0 265.58,124.25 355.73,407.12"/>
   <ellipse class="fil0" cx="677.69" cy="339.81" rx="11.53" ry="13.03"/>
   <path class="fil1" d="M801.62 573.11c0,0 -14,153.65 -165.52,164.36 26.46,6.88 56.97,9.93 91.69,10.77 60.91,-65.03 85.52,-151.26 73.83,-175.13z"/>
   <path class="fil2" d="M383.31 496.53c-10.77,224.92 160.08,318.96 261.25,311.26 32.79,-14.02 60.53,-35.31 83.23,-59.55 -34.72,-0.84 -65.23,-3.89 -91.69,-10.77 -58.21,-15.13 -96.79,-48.77 -117.26,-118.13 -6.21,-21.03 -10.75,-45.34 -13.67,-73.41 -8.61,-178.71 194.04,-230.03 194.04,-230.03 -19.06,-32.64 -42.57,-53.39 -69,-65.24 -134.28,11.96 -240.46,111.32 -246.91,245.86z"/>
   <path class="fil3" d="M682.3 392.44l-0.07 -0.07c0.03,0.02 0.06,0.05 0.07,0.07zm16.92 -76.53c0,0 -202.65,51.32 -194.04,230.03 2.92,28.07 7.46,52.38 13.67,73.41 1.89,-249.98 166.18,-223.73 163.45,-226.91l42.33 37.4c0,0 7,6.18 7.41,-2.88 0.41,-9.06 -15.23,-33.76 -15.23,-33.76 0,0 1.71,-34.29 -12.97,-68.96 -1.51,-2.86 -3.05,-5.63 -4.62,-8.32zm-21.53 36.93c-6.37,0 -11.53,-5.83 -11.53,-13.03 0,-7.2 5.16,-13.03 11.53,-13.03 6.37,0 11.53,5.83 11.53,13.03 0,7.2 -5.16,13.03 -11.53,13.03z"/>
   <path class="fil4" d="M468.95 255.27l-335.55 -203.57c85.8,60.6 213.37,176.16 270.5,355.42 38,-87.49 124,-147.33 226.31,-156.45 -47.35,-21.24 -104.07,-13.94 -161.26,4.6z"/>
   <path class="fil5" d="M54.37 4.53c29.84,22.48 159.96,128.08 226.62,306.03 30.07,80.26 47.22,175.24 36.44,283.96 0,0 44.47,223.58 232.21,230.57 35.31,1.31 66.94,-5.35 94.91,-17.31 -101.17,7.7 -272.03,-86.34 -261.25,-311.26 1.53,-32.03 8.72,-62.07 20.6,-89.41 -57.13,-179.25 -184.71,-294.81 -270.5,-355.41l-77.75 -47.17 -1.28 0z"/>
   <path class="fil6" d="M281 310.56l-281 -68.89c0,0 215.75,85.64 317.44,352.85 10.78,-108.71 -6.38,-203.7 -36.44,-283.96z"/>
   <path class="fil1" d="M220.11 420.36l-183.88 -11.53c160.57,39.52 273.9,167.26 273.9,167.26 -25.46,-61.66 -56.95,-113.14 -90.02,-155.74z"/>
  </g>
 </g>
</svg>
