<?xml version="1.0" encoding="UTF-8"?>
<!DOCTYPE svg PUBLIC "-//W3C//DTD SVG 1.1//EN" "http://www.w3.org/Graphics/SVG/1.1/DTD/svg11.dtd">
<!-- Creator: CorelDRAW 2018 (64-Bit) -->
<svg xmlns="http://www.w3.org/2000/svg" xml:space="preserve" width="40mm" height="40mm" version="1.1" style="shape-rendering:geometricPrecision; text-rendering:geometricPrecision; image-rendering:optimizeQuality; fill-rule:evenodd; clip-rule:evenodd"
viewBox="0 0 1777.78 1777.78"
 xmlns:xlink="http://www.w3.org/1999/xlink">
 <defs>
  <style type="text/css">
   <![CDATA[
    .fil8 {fill:none}
    .fil7 {fill:black}
    .fil2 {fill:#38447B}
    .fil3 {fill:#71B7CB}
    .fil4 {fill:#79D8EE}
    .fil6 {fill:#80A0D3}
    .fil5 {fill:#80A2D7}
    .fil10 {fill:#A8ECFE}
    .fil14 {fill:#A9CDF8}
    .fil11 {fill:#B4756D}
    .fil9 {fill:#C5F2FE}
    .fil12 {fill:#ECCCC8}
    .fil16 {fill:#F0C001}
    .fil15 {fill:#F29B87}
    .fil0 {fill:#F5D601}
    .fil13 {fill:#FFF7CD}
    .fil1 {fill:black;fill-rule:nonzero}
   ]]>
  </style>
    <clipPath id="id0">
     <rect width="1777.78" height="1777.78"/>
    </clipPath>
 </defs>
 <g id="图层_x0020_1">
  <metadata id="CorelCorpID_0Corel-Layer"/>
  <g id="_2103797417904">
   <g style="clip-path:url(#id0)">
    <image id="Palworld_x0020_Server.png" x="-0" y="0" width="1777.78" height="1777.78" xlink:href="palworld_server_Images\palworld_server_ImgID1.png"/>
   </g>
   <rect class="fil0" width="1777.78" height="1777.78"/>
   <path class="fil1" d="M1.44 1465.6c1.4,0.2 487.96,73.22 491.25,-491.27 -43.43,-140.53 -86.4,-328.31 -54.31,-495.48 32.54,-169.5 141.43,-317.27 402.84,-373.12 174.66,-37.32 329.04,-10.83 448.56,50.04 82.12,41.83 147.84,99.95 192.48,164.84 44.94,65.33 68.55,137.6 66.09,207.22 -2.19,62.2 -25.11,122.15 -72.07,173.03l-0.32 0.33c-4.66,4.95 -34.35,31.27 -124.29,11.7 51.84,38.88 105.93,98.64 46.83,151.63 -42.99,38.54 -99.46,68.05 -144.5,91.58 -41.39,21.63 -71.8,37.52 -69.29,42.83 1.79,3.78 4.95,9.82 9.32,18.19 31.32,59.96 122.15,233.8 160.96,415.07 40.79,4.41 220.1,33.55 94.21,197.79 2.39,20.23 6.31,99.86 -78.11,112.17l-29.2 35.64 -27.12 0 42.71 -52.14c1.67,-2.04 4.1,-3.45 6.93,-3.77 79.16,-9.08 63.49,-92.72 63.45,-92.96 -0.48,-2.83 0.18,-5.85 2.09,-8.28 122.44,-156.08 -83.72,-168.21 -84.31,-168.25 -4.59,-0.32 -8.6,-3.64 -9.56,-8.37 -37.26,-181.14 -129.19,-357.09 -160.6,-417.22 -4.73,-9.06 -8.16,-15.62 -9.73,-18.92 -11.11,-23.46 26.87,-43.31 78.56,-70.31 44.02,-23 99.2,-51.84 140.24,-88.62 72.82,-65.28 -100.54,-154.93 -108.58,-159.04 -4.88,-2.28 -7.28,-7.98 -5.36,-13.12 2.01,-5.41 8.04,-8.16 13.45,-6.15 139.21,52.2 172.88,20.44 176.14,16.83l0.65 -0.78c43.39,-47.01 64.56,-102.28 66.58,-159.58 2.29,-65.06 -20,-132.94 -62.4,-194.59 -42.71,-62.09 -105.8,-117.8 -184.77,-158.03 -115.62,-58.89 -265.18,-84.46 -434.71,-48.24 -251.09,53.65 -355.54,194.79 -386.59,356.55 -31.38,163.48 11.36,348.6 54.22,486.95 0.29,0.99 0.45,2.04 0.45,3.12 -2.41,573.24 -484.28,517.6 -513.63,513.7l0 -10.57 1.44 -10.38z"/>
   <path class="fil2" d="M119.54 1675.73c119.53,78.52 165.92,-63.71 165.92,-63.71 4.44,-200 136.3,-174.81 136.3,-174.81 155.55,32.6 245.93,-45.94 195.56,-189.64 -51.85,-59.26 -116.17,-129.95 -45.93,-200 98.08,-99.55 115.56,-158.52 57.78,-228.15 -136.29,-87.41 -179.47,-165.91 -179.47,-165.91 6.82,112.68 35.12,224.69 63.48,316.23 0.29,0.99 0.45,2.04 0.45,3.12 -1.8,429.29 -272.52,505.88 -420.69,515.65 5.98,128.32 -20.8,120.56 26.6,187.23z"/>
   <path class="fil3" d="M579.54 1473.74c-52.84,61.29 -27.12,172.12 17.04,232.33 96.3,65.19 130.37,-22.22 130.37,-22.22 29.65,-0.41 49.28,-7.61 62.16,-17.84 -177.49,1.16 -205.3,-141.11 -209.57,-192.27z"/>
   <path class="fil4" d="M579.54 1473.74c4.27,51.16 32.08,193.43 209.57,192.27 34.07,-27.1 20.8,-75.49 20.8,-75.49 28.15,-11.85 53.34,-31.11 59.26,-87.41 -100.74,-176.29 -269.63,-47.41 -269.63,-47.41 -7.64,5.35 -14.28,11.4 -20,18.04z"/>
   <path class="fil5" d="M1337.21 1453.52c10.24,90.64 13.37,237.94 -19.7,320.91l0.05 -0.06 39.87 -59.48c85.24,-9.68 59.21,-94.76 59.21,-94.76 125.41,-125.41 -40.19,-160.3 -79.43,-166.6z"/>
   <path class="fil6" d="M458.96 482.79c-10.62,55.31 -12.75,113.1 -9.26,170.72 0,0 39.82,72.4 163.68,155.55 -3.34,-13.22 -6.96,-26.56 -10.89,-39.97 -71.11,-242.96 -60.28,-464.23 193.57,-630.63 -215.54,60.84 -308.16,193.64 -337.09,344.33z"/>
   <path class="fil6" d="M571.39 1047.57c-70.24,70.06 -5.92,140.74 45.93,200 4.08,11.64 7.24,22.86 9.51,33.63 6.65,-16.68 12.87,-34.29 18.62,-52.87 0,0 14.65,-112.58 -3.89,-266.54 -15.04,25.49 -38.36,53.5 -70.16,85.78z"/>
   <path class="fil6" d="M289.92 1561.1c81.52,-11.24 167.28,-44.5 238.48,-120.17 -30.28,5.72 -66.27,4.74 -106.65,-3.72 0,0 -108.09,-20.64 -131.84,123.89z"/>
   <path class="fil6" d="M-0 1526.11c0,0 36.79,14.97 93.38,26.53 0.62,-16.78 0.79,-37.54 -0.45,-64.14 -49.6,3.27 -85.47,-0.96 -92.93,-1.95l0 39.56z"/>
   <circle class="fil7" cx="811.37" cy="530.57" r="37.04"/>
   <ellipse class="fil8" transform="matrix(0.611551 0.160667 -0.258883 1.11538 1118.04 282.801)" rx="251.65" ry="98.78"/>
   <ellipse class="fil8" transform="matrix(0.476103 0.125082 -0.201545 0.868343 1118.04 282.801)" rx="251.65" ry="98.78"/>
   <path class="fil9" d="M998.23 251.32c-11,47.38 33.73,99.87 99.9,117.25 66.17,17.38 128.72,-6.92 139.72,-54.29 11,-47.37 -33.73,-99.87 -99.9,-117.25 -66.17,-17.39 -128.72,6.92 -139.72,54.29z"/>
   <path class="fil10" d="M964.14 242.36c-14.12,60.85 43.33,128.28 128.32,150.61 85,22.33 165.34,-8.89 179.47,-69.74 14.12,-60.85 -43.33,-128.28 -128.32,-150.6 -85,-22.33 -165.34,8.89 -179.47,69.73zm34.08 8.96c11,-47.37 73.55,-71.68 139.72,-54.29 66.17,17.38 110.9,69.88 99.9,117.25 -11,47.37 -73.55,71.68 -139.72,54.29 -66.17,-17.38 -110.9,-69.88 -99.9,-117.25z"/>
   <path class="fil8" d="M947.67 674.27c0,0 105.19,197.91 339.26,194.08 151.11,-23.71 72.91,-127.28 -10.95,-178.45"/>
   <path class="fil11" d="M963.07 698.57c36.89,52.75 141.08,172.76 323.86,169.77 151.11,-23.71 72.91,-127.28 -10.95,-178.45 -4.88,-2.28 -7.28,-7.98 -5.36,-13.12 -150.89,48.98 -283.9,23.51 -307.55,21.8z"/>
   <path class="fil8" d="M1221.57 949.54l-113.92 0c0,0 -56.59,-2.96 -26.81,26.81 29.78,29.77 117.17,94.23 117.17,94.23"/>
   <path class="fil12" d="M1080.84 976.35c29.78,29.77 117.17,94.23 117.17,94.23 -9.05,-18 -16.8,-32.83 -22.53,-43.8 -4.73,-9.06 -8.16,-15.62 -9.73,-18.92 -9.4,-19.85 16.35,-37.12 55.82,-58.32l-113.92 0c0,0 -56.59,-2.96 -26.81,26.81z"/>
   <path class="fil13" d="M888.43 1137.19c130.37,385.19 -26.67,640.59 -26.67,640.59l453 0 2.74 -3.35c0.01,-0.02 0.02,-0.04 0.03,-0.07 33.04,-82.99 29.92,-230.22 19.68,-320.84 -0.37,-3.24 -0.74,-6.42 -1.12,-9.52 -30.46,-148.1 -97.47,-292.73 -138.07,-373.43 0,0 -87.39,-64.46 -117.17,-94.23 -29.78,-29.77 26.81,-26.81 26.81,-26.81l113.92 0c7.17,-3.85 14.8,-7.84 22.74,-11.99 44.02,-23 99.2,-51.84 140.24,-88.62 72.82,-65.28 -100.54,-154.93 -108.58,-159.04 83.86,51.18 162.06,154.75 10.95,178.45 -182.78,2.99 -286.97,-117.03 -323.86,-169.77 -1.9,-0.14 -3.09,-0.12 -3.53,0.1 -5.93,2.96 -201.48,53.33 -71.11,438.52z"/>
   <path class="fil4" d="M963.07 698.57c23.64,1.71 156.65,27.18 307.55,-21.8 2.01,-5.41 8.04,-8.16 13.45,-6.15 139.21,52.2 172.88,20.44 176.14,16.83l0.65 -0.78c43.39,-47.01 64.56,-102.28 66.58,-159.58 2.29,-65.06 -20,-132.94 -62.4,-194.59 -42.71,-62.09 -105.8,-117.8 -184.77,-158.03 -115.62,-58.89 -265.18,-84.46 -434.71,-48.24 -17.18,3.67 -33.67,7.75 -49.5,12.22 -253.84,166.4 -264.68,387.67 -193.57,630.63 3.93,13.42 7.55,26.75 10.89,39.97 5.12,3.44 10.39,6.9 15.8,10.36 39.04,47.05 43.72,89.24 12.39,142.37 18.54,153.96 3.89,266.54 3.89,266.54 -5.75,18.58 -11.97,36.19 -18.62,52.87 18.5,87.59 -21.53,145.23 -98.42,159.73 -71.2,75.67 -156.96,108.93 -238.48,120.17 -2.48,15.1 -4.04,32 -4.46,50.92 0,0 -46.39,142.23 -165.92,63.71 -37.58,-52.84 -28.54,-58.93 -26.16,-123.09 -56.6,-11.56 -93.38,-26.53 -93.38,-26.53l0 251.67 861.76 0c0,0 157.04,-255.4 26.67,-640.59 -130.37,-385.18 65.18,-435.55 71.11,-438.52 0.44,-0.22 1.63,-0.24 3.53,-0.1zm-151.7 -205.04c20.45,0 37.04,16.58 37.04,37.04 0,20.45 -16.58,37.04 -37.04,37.04 -20.45,0 -37.04,-16.58 -37.04,-37.04 0,-20.46 16.58,-37.04 37.04,-37.04zm-211.83 962.17c0,0 168.89,-128.88 269.63,47.41 -5.92,56.3 -31.12,75.56 -59.26,87.41 0,0 13.27,48.39 -20.8,75.49 -12.88,10.24 -32.51,17.44 -62.16,17.84 0,0 -34.08,87.4 -130.37,22.22 -44.16,-60.21 -69.88,-171.04 -17.04,-232.33 5.72,-6.64 12.36,-12.69 20,-18.04zm672.39 -1132.46c-14.12,60.84 -94.47,92.07 -179.47,69.74 -85,-22.33 -142.45,-89.76 -128.32,-150.61 14.12,-60.84 94.47,-92.07 179.47,-69.73 85,22.32 142.45,89.75 128.32,150.6z"/>
   <path class="fil14" d="M1337.21 1453.52c39.24,6.3 204.84,41.2 79.43,166.6 0,0 26.03,85.08 -59.21,94.76l-39.87 59.49 39.92 -48.74c1.67,-2.04 4.1,-3.45 6.93,-3.77 79.16,-9.08 63.49,-92.72 63.45,-92.96 -0.48,-2.83 0.18,-5.85 2.09,-8.28 122.44,-156.08 -83.72,-168.21 -84.31,-168.25 -4.59,-0.32 -8.6,-3.64 -9.56,-8.37 0.38,3.09 0.76,6.27 1.12,9.52z"/>
   <path class="fil15" d="M1107.67 757.63c-57.92,58.07 108.8,104.46 149.59,109.03 9.65,0.56 19.54,0.77 29.67,0.6 98.48,-15.44 99.56,-64.81 65.17,-111.49 -3.36,-4.56 -7.07,-9.1 -11.05,-13.58 -21.76,-19.84 -58.09,-28.25 -58.09,-28.25 0,0 -117.35,-14.39 -175.29,43.69z"/>
   <path class="fil16" d="M535.29 270.01c-475.69,387.15 -0.8,700.76 -211.17,1117.25 91.59,-68.11 167.28,-191.45 168.56,-412.93 -43.43,-140.53 -86.4,-328.31 -54.31,-495.48 14.61,-76.12 44.62,-147.85 96.92,-208.84z"/>
  </g>
 </g>
</svg>
