<?xml version="1.0" encoding="UTF-8"?>
<!DOCTYPE svg PUBLIC "-//W3C//DTD SVG 1.1//EN" "http://www.w3.org/Graphics/SVG/1.1/DTD/svg11.dtd">
<!-- Creator: CorelDRAW 2018 (64-Bit) -->
<svg xmlns="http://www.w3.org/2000/svg" xml:space="preserve" width="40mm" height="39.6388mm" version="1.1" style="shape-rendering:geometricPrecision; text-rendering:geometricPrecision; image-rendering:optimizeQuality; fill-rule:evenodd; clip-rule:evenodd"
viewBox="0 0 413.25 409.52"
 xmlns:xlink="http://www.w3.org/1999/xlink">
 <defs>
  <style type="text/css">
   <![CDATA[
    .fil0 {fill:#009986}
    .fil1 {fill:#F3F2F2}
   ]]>
  </style>
 </defs>
 <g id="图层_x0020_1">
  <metadata id="CorelCorpID_0Corel-Layer"/>
  <g id="_2080245283344">
   <path class="fil0" d="M91 372.82c-0.04,-37.05 -0.31,-73.94 -0.54,-111 -0.31,-48.96 -1.29,-75.5 24.79,-115.06 27.29,-41.4 84.91,-68.45 134.34,-56.91 30.6,7.14 51.55,26.93 63.32,48.29 19.15,34.75 16.56,75.88 -7.09,108.54 -1.62,2.24 -4.09,5.77 -5.8,7.67l-7.23 6.98c-6.78,7.17 -22.82,16.38 -35.61,20.62 -80.94,26.84 -115.23,-66.77 -64.03,-103.44 8.21,-5.88 29.51,-16.35 42.86,-9.66 14.17,7.1 14.47,27.52 1.4,35.44 -6.39,3.88 -15.38,1.48 -21.38,6.34 -5.24,4.25 -9.34,10.94 -7.56,20.08 3.67,18.87 23.32,17.55 37.36,13.11 24.44,-7.73 47.01,-35.85 39.05,-70.1 -14.79,-63.66 -99.36,-58.65 -136.91,-5.15 -20.87,29.73 -18.12,51.85 -18.05,92.43 0.03,18.45 -0.5,101.15 0.66,112.32 54.2,0.9 109.22,0.02 163.51,0.02 30.13,0 47.47,2.6 66.46,-14.82 18.58,-17.04 17.66,-33.68 17.66,-64.79 0,-54.55 -0.06,-109.09 -0.06,-163.64 0,-36.13 5.82,-71.89 -32.98,-89.7 -11.68,-5.36 -23.3,-4.73 -36.82,-4.73l-203.92 0c-16.06,-0.01 -21.63,0.18 -34.91,6.65 -20.38,9.93 -28.96,30.54 -28.94,53.37 0.06,54.54 -0.05,109.09 -0.05,163.64 0,19.76 -2.4,62.26 3.41,78.08 6.31,17.19 24.06,34.45 47.07,35.44z"/>
   <path class="fil1" d="M91 372.82c-23.01,-0.99 -40.75,-18.25 -47.07,-35.44 -5.81,-15.82 -3.41,-58.32 -3.41,-78.08 0,-54.55 0.11,-109.09 0.05,-163.64 -0.02,-22.84 8.56,-43.44 28.94,-53.37 13.28,-6.47 18.86,-6.66 34.91,-6.65l203.92 0c13.52,0 25.14,-0.64 36.82,4.73 38.8,17.82 32.98,53.57 32.98,89.7 0,54.55 0.06,109.09 0.06,163.64 -0,31.12 0.92,47.75 -17.66,64.79 -18.99,17.42 -36.33,14.82 -66.46,14.82 -54.29,0 -109.31,0.89 -163.51,-0.02 -1.16,-11.17 -0.63,-93.87 -0.66,-112.32 -0.07,-40.58 -2.82,-62.7 18.05,-92.43 37.55,-53.5 122.12,-58.51 136.91,5.15 7.96,34.26 -14.61,62.37 -39.05,70.1 -14.03,4.44 -33.69,5.76 -37.36,-13.11 -1.78,-9.14 2.32,-15.83 7.56,-20.08 6,-4.86 14.98,-2.47 21.38,-6.34 13.07,-7.92 12.77,-28.35 -1.4,-35.44 -13.36,-6.69 -34.65,3.78 -42.86,9.66 -51.2,36.67 -16.91,130.28 64.03,103.44 12.78,-4.24 28.83,-13.45 35.61,-20.62l7.23 -6.98c1.71,-1.9 4.18,-5.43 5.8,-7.67 23.66,-32.66 26.24,-73.79 7.09,-108.54 -11.77,-21.35 -32.72,-41.14 -63.32,-48.29 -49.43,-11.54 -107.05,15.51 -134.34,56.91 -26.07,39.55 -25.09,66.1 -24.79,115.06 0.23,37.06 0.5,73.95 0.54,111zm-9.23 36.7l248.4 0c37.86,0 71.6,-29.94 80.4,-65.61l2.67 -16.63 0 -237.49c0,-14.19 -2.66,-25.79 -6.82,-35.98 -3.49,-8.56 -8.02,-16.05 -13.9,-23.03 -1.29,-1.53 -1.21,-1.76 -2.57,-3.3 -3.33,-3.78 -7.22,-6.9 -11.1,-9.88 -4.57,-3.51 -8,-5.67 -13.44,-8.38 -9.04,-4.51 -20.89,-9.23 -34.41,-9.23l-248.4 0c-9.71,0 -22.1,3.15 -28.83,6.42 -21.07,10.24 -35.14,21.82 -45.59,44.21 -1.11,2.37 -1.92,4.57 -2.6,6.63 -5.27,15.97 -5.28,22 -5.23,37.56l0.01 179.59c0,46.23 -6,82.33 30,114.33 12.08,10.74 33.86,20.77 51.39,20.77z"/>
  </g>
 </g>
</svg>
