<?xml version="1.0" encoding="UTF-8"?>
<!DOCTYPE svg PUBLIC "-//W3C//DTD SVG 1.1//EN" "http://www.w3.org/Graphics/SVG/1.1/DTD/svg11.dtd">
<!-- Creator: CorelDRAW 2018 (64-Bit) -->
<svg xmlns="http://www.w3.org/2000/svg" xml:space="preserve" width="40mm" height="22.5mm" version="1.1" style="shape-rendering:geometricPrecision; text-rendering:geometricPrecision; image-rendering:optimizeQuality; fill-rule:evenodd; clip-rule:evenodd"
viewBox="0 0 1777.78 1000"
 xmlns:xlink="http://www.w3.org/1999/xlink"
 xmlns:svg="http://www.w3.org/2000/svg">
 <defs>
  <style type="text/css">
   <![CDATA[
    .fil1 {fill:none}
    .fil3 {fill:black;fill-rule:nonzero}
    .fil2 {fill:#777BB3;fill-rule:nonzero}
    .fil4 {fill:white;fill-rule:nonzero}
    .fil0 {fill:url(#id3)}
   ]]>
  </style>
      <clipPath id="id0">
       <path d="M35.56 500c0,247.91 382.06,448.89 853.33,448.89l0 0c471.28,0 853.34,-200.98 853.34,-448.89l0 0c0,-247.91 -382.06,-448.88 -853.34,-448.88l0 0c-471.28,0 -853.33,200.98 -853.33,448.88z"/>
      </clipPath>
      <clipPath id="id1">
       <path d="M-0 0l1777.78 0 0 1000 -1777.78 0 0 -1000z"/>
      </clipPath>
      <clipPath id="id2">
       <path d="M-0 0l1777.78 0 0 1000 -1777.78 0 0 -1000z"/>
      </clipPath>
  <radialGradient id="id3" gradientUnits="userSpaceOnUse" gradientTransform="matrix(1.56313 -0 -0 -1.56313 461 -1020)" cx="-817.78" cy="-397.77" r="3413.77" fx="-817.78" fy="-397.77">
   <stop offset="0" style="stop-opacity:1; stop-color:#AEB2D5"/>
   <stop offset="0.301961" style="stop-opacity:1; stop-color:#AEB2D5"/>
   <stop offset="0.74902" style="stop-opacity:1; stop-color:#484C89"/>
   <stop offset="1" style="stop-opacity:1; stop-color:#484C89"/>
  </radialGradient>
 </defs>
 <g id="图层_x0020_1">
  <metadata id="CorelCorpID_0Corel-Layer"/>
  <g id="php.svg">
   <g id="g3438">
    <g id="g3440">
     <g>
     </g>
     <g style="clip-path:url(#id0)">
      <g>
       <path id="path3462" class="fil0" d="M35.56 500c0,247.91 382.06,448.89 853.33,448.89l0 0c471.28,0 853.34,-200.98 853.34,-448.89l0 0c0,-247.91 -382.06,-448.88 -853.34,-448.88l0 0c-471.28,0 -853.33,200.98 -853.33,448.88z"/>
      </g>
     </g>
     <path class="fil1" d="M35.56 500c0,247.91 382.06,448.89 853.33,448.89l0 0c471.28,0 853.34,-200.98 853.34,-448.89l0 0c0,-247.91 -382.06,-448.88 -853.34,-448.88l0 0c-471.28,0 -853.33,200.98 -853.33,448.88z"/>
    </g>
    <g id="g3464">
     <g>
     </g>
     <g style="clip-path:url(#id1)">
      <g>
       <path id="path3474" class="fil2" d="M888.89 915.56c452.87,0 820,-186.05 820,-415.56 0,-229.5 -367.13,-415.56 -820,-415.56 -452.87,0 -820,186.06 -820,415.56 0,229.51 367.13,415.56 820,415.56z"/>
      </g>
     </g>
     <polygon class="fil1" points="-0,0 1777.78,0 1777.78,1000 -0,1000 "/>
    </g>
    <g id="g3476">
     <g>
     </g>
     <g style="clip-path:url(#id2)">
      <g id="_2103291143952">
       <path id="path3486" class="fil3" d="M499.18 551.52c37.24,0 65.04,-6.87 82.63,-20.4 17.4,-13.4 29.42,-36.61 35.72,-68.99 5.88,-30.27 3.64,-51.4 -6.65,-62.8 -10.52,-11.65 -33.25,-17.56 -67.57,-17.56l-59.51 0 -32.99 169.76 48.37 0zm-194.64 209.11c-2.76,0 -5.39,-1.24 -7.14,-3.37 -1.76,-2.13 -2.48,-4.94 -1.95,-7.65l87.43 -449.85c0.85,-4.35 4.66,-7.49 9.09,-7.49l188.44 0c59.22,0 103.3,16.08 131.01,47.8 27.86,31.89 36.46,76.46 25.56,132.48 -4.43,22.82 -12.05,44.01 -22.65,62.99 -10.62,19 -24.64,36.57 -41.7,52.25 -20.42,19.11 -43.53,32.97 -68.63,41.12 -24.7,8.05 -56.42,12.13 -94.28,12.13l-76.3 0 -21.79 112.1c-0.85,4.36 -4.66,7.5 -9.09,7.5l-98 0z"/>
       <g>
        <path id="path3490" class="fil4" d="M491.43 391.03l51.88 0c41.42,0 55.81,9.09 60.7,14.51 8.11,9 9.64,27.96 4.43,54.84 -5.86,30.09 -16.72,51.43 -32.28,63.41 -15.93,12.27 -41.84,18.48 -76.98,18.48l-37.14 0 29.39 -151.24zm88.98 -108.02l-188.44 0c-8.87,0 -16.48,6.28 -18.18,14.98l-87.43 449.85c-1.06,5.43 0.37,11.04 3.88,15.31 3.52,4.27 8.76,6.74 14.29,6.74l97.99 0c8.87,0 16.49,-6.28 18.18,-14.98l20.33 -104.61 68.67 0c38.84,0 71.52,-4.24 97.16,-12.59 26.36,-8.56 50.61,-23.08 72.08,-43.16 17.75,-16.33 32.37,-34.67 43.46,-54.5 11.08,-19.84 19.04,-41.96 23.66,-65.75 11.47,-58.96 2.15,-106.18 -27.68,-140.32 -29.54,-33.82 -75.97,-50.97 -137.98,-50.97l0 0zm-140.84 277.78l59.6 0c39.51,0 68.94,-7.44 88.28,-22.33 19.34,-14.89 32.38,-39.74 39.16,-74.56 6.49,-33.44 3.53,-57.03 -8.86,-70.77 -12.41,-13.75 -37.22,-20.62 -74.45,-20.62l-67.14 0 -36.59 188.27 0 0zm140.84 -259.26c56.69,0 98.04,14.88 124.04,44.64 25.99,29.76 33.82,71.29 23.44,124.61 -4.27,21.97 -11.48,42.05 -21.65,60.24 -10.18,18.2 -23.46,34.85 -39.88,49.95 -19.57,18.31 -41.31,31.36 -65.22,39.13 -23.92,7.79 -54.39,11.67 -91.43,11.67l-83.94 0 -23.24 119.6 -97.99 0 87.43 -449.85 188.44 0z"/>
       </g>
       <path id="path3494" class="fil3" d="M961.68 641.03c-2.76,0 -5.39,-1.24 -7.14,-3.37 -1.76,-2.13 -2.48,-4.94 -1.95,-7.65l38.68 -199.04c3.68,-18.93 2.77,-32.52 -2.55,-38.26 -3.26,-3.51 -13.05,-9.39 -42,-9.39l-70.07 0 -48.63 250.22c-0.84,4.35 -4.66,7.49 -9.09,7.49l-97.22 0c-2.76,0 -5.39,-1.24 -7.15,-3.37 -1.76,-2.13 -2.47,-4.94 -1.94,-7.65l87.43 -449.85c0.84,-4.35 4.66,-7.49 9.09,-7.49l97.22 0c2.76,0 5.39,1.23 7.15,3.36 1.76,2.14 2.47,4.94 1.94,7.66l-21.1 108.58 75.38 0c57.42,0 96.36,10.12 119.04,30.95 23.12,21.24 30.33,55.22 21.44,100.98l-40.68 209.34c-0.84,4.35 -4.65,7.49 -9.09,7.49l-98.76 0z"/>
       <g>
        <path id="path3498" class="fil4" d="M906.36 163.4l-97.22 0c-8.87,0 -16.49,6.28 -18.18,14.99l-87.43 449.85c-1.06,5.43 0.37,11.04 3.89,15.31 3.52,4.27 8.76,6.74 14.29,6.74l97.22 0c8.87,0 16.49,-6.28 18.18,-14.99l47.17 -242.73 62.43 0c28.9,0 34.96,6.17 35.21,6.44 1.75,1.89 4.06,10.62 0.25,30.19l-38.68 199.04c-1.06,5.43 0.37,11.04 3.89,15.31 3.52,4.27 8.76,6.74 14.29,6.74l98.76 0c8.87,0 16.49,-6.28 18.18,-14.99l40.68 -209.33c9.54,-49.14 1.38,-86 -24.27,-109.57 -24.47,-22.47 -65.45,-33.4 -125.3,-33.4l-64.15 0 18.96 -97.55c1.05,-5.43 -0.37,-11.04 -3.89,-15.31 -3.52,-4.27 -8.76,-6.74 -14.29,-6.74l0 0zm0 18.52l-23.24 119.6 86.61 0c54.5,0 92.08,9.52 112.77,28.52 20.69,19.01 26.89,49.82 18.62,92.4l-40.68 209.33 -98.77 0 38.68 -199.04c4.4,-22.64 2.78,-38.09 -4.86,-46.32 -7.64,-8.24 -23.91,-12.36 -48.78,-12.36l-77.71 0 -50.08 257.72 -97.22 0 87.43 -449.84 97.22 0z"/>
       </g>
       <path id="path3502" class="fil3" d="M1264.04 551.52c37.24,0 65.04,-6.87 82.63,-20.4 17.4,-13.4 29.42,-36.61 35.72,-68.99 5.88,-30.27 3.64,-51.4 -6.65,-62.8 -10.52,-11.65 -33.25,-17.56 -67.57,-17.56l-59.51 0 -32.99 169.76 48.37 0zm-194.64 209.11c-2.76,0 -5.39,-1.24 -7.14,-3.37 -1.76,-2.13 -2.48,-4.94 -1.95,-7.65l87.44 -449.85c0.85,-4.35 4.66,-7.49 9.09,-7.49l188.44 0c59.23,0 103.3,16.08 131.01,47.8 27.86,31.88 36.45,76.46 25.56,132.48 -4.44,22.82 -12.06,44.01 -22.66,62.99 -10.61,19 -24.64,36.57 -41.7,52.25 -20.42,19.11 -43.53,32.97 -68.63,41.12 -24.7,8.05 -56.42,12.13 -94.28,12.13l-76.3 0 -21.78 112.1c-0.85,4.36 -4.66,7.5 -9.09,7.5l-98 0 0 0z"/>
       <g>
        <path id="path3506" class="fil4" d="M1256.29 391.03l51.88 0c41.42,0 55.81,9.09 60.7,14.51 8.12,9 9.64,27.96 4.43,54.84 -5.86,30.09 -16.72,51.43 -32.28,63.41 -15.93,12.27 -41.84,18.48 -76.98,18.48l-37.14 0 29.39 -151.24zm88.99 -108.02l-188.44 0c-8.87,0 -16.48,6.28 -18.18,14.98l-87.43 449.85c-1.05,5.43 0.37,11.04 3.88,15.31 3.52,4.27 8.76,6.74 14.29,6.74l97.99 0c8.87,0 16.49,-6.28 18.18,-14.98l20.33 -104.61 68.67 0c38.83,0 71.52,-4.24 97.16,-12.59 26.36,-8.56 50.62,-23.09 72.09,-43.16 17.75,-16.33 32.37,-34.66 43.45,-54.49 11.08,-19.84 19.04,-41.96 23.67,-65.75 11.47,-58.96 2.15,-106.18 -27.68,-140.33 -29.54,-33.82 -75.96,-50.96 -137.98,-50.96l0 0zm-140.84 277.78l59.6 0c39.51,0 68.94,-7.44 88.28,-22.33 19.34,-14.89 32.38,-39.74 39.16,-74.56 6.48,-33.44 3.53,-57.03 -8.86,-70.77 -12.41,-13.75 -37.22,-20.62 -74.45,-20.62l-67.14 0 -36.59 188.27 0 0zm140.84 -259.26c56.68,0 98.04,14.88 124.04,44.64 26,29.76 33.82,71.29 23.45,124.61 -4.27,21.97 -11.49,42.05 -21.65,60.24 -10.18,18.2 -23.46,34.85 -39.88,49.95 -19.57,18.31 -41.31,31.36 -65.23,39.13 -23.92,7.79 -54.39,11.67 -91.42,11.67l-83.94 0 -23.24 119.6 -97.99 0 87.43 -449.85 188.44 0 0 0zm0 0l0 0 0 0z"/>
       </g>
      </g>
     </g>
     <polygon class="fil1" points="-0,0 1777.78,0 1777.78,1000 -0,1000 "/>
    </g>
   </g>
  </g>
 </g>
</svg>
