<?xml version="1.0" encoding="UTF-8"?>
<!DOCTYPE svg PUBLIC "-//W3C//DTD SVG 1.1//EN" "http://www.w3.org/Graphics/SVG/1.1/DTD/svg11.dtd">
<!-- Creator: CorelDRAW 2018 (64-Bit) -->
<svg xmlns="http://www.w3.org/2000/svg" xml:space="preserve" width="39.9999mm" height="40mm" version="1.1" style="shape-rendering:geometricPrecision; text-rendering:geometricPrecision; image-rendering:optimizeQuality; fill-rule:evenodd; clip-rule:evenodd"
viewBox="0 0 1777.77 1777.78"
 xmlns:xlink="http://www.w3.org/1999/xlink">
 <defs>
  <style type="text/css">
   <![CDATA[
    .fil3 {fill:none}
    .fil0 {fill:#4F4F4F}
    .fil1 {fill:#A287E9}
    .fil2 {fill:#FFB042}
   ]]>
  </style>
 </defs>
 <g id="图层_x0020_1">
  <metadata id="CorelCorpID_0Corel-Layer"/>
  <g id="_2103793906048">
   <circle class="fil0" cx="888.89" cy="888.89" r="888.89"/>
   <path class="fil1" d="M197.73 964.12c0,0 278.83,16.83 278.83,-208.05 0,-224.88 -278.83,-216.49 -278.83,-216.49 0,0 -136.27,-22.01 -136.27,68.13l0 561.83c0,0 7.33,62.37 62.36,62.37 55.03,0 67.61,-26.73 76,-62.37l-2.09 -205.43zm0.59 -138.87l0 -144.65c0,0 140.46,-5.24 140.46,75.47 0,80.71 -140.46,69.18 -140.46,69.18z"/>
   <path class="fil2" d="M613.87 1169.54l0 -555.56c0,0 16.78,-111.11 118.45,-53.46l163.52 215.94 145.7 -197.07c0,0 30.4,-52.41 76.52,-37.73 46.12,14.67 52.41,58.7 52.41,58.7l0 569.18c0,0 -2.1,65.52 -65.52,65.52 -63.42,0 -71.8,-65.52 -71.8,-65.52l0 -352.2 -76.52 105.87c0,0 -61.84,87 -124.73,0 -62.89,-87 -78.62,-105.87 -78.62,-105.87l0 352.21c0,0 -3.15,69.7 -69.71,69.7 -66.56,0 -69.7,-69.7 -69.7,-69.7z"/>
   <path class="fil2" d="M1449.29 1031.18l142.56 0 0 147.8c0,0 9.43,55.03 67.61,55.03 58.18,0 68.03,-49.64 68.03,-49.64l0 -435.16c0,0 1.68,-209.64 -212.16,-209.64 -213.84,0 -202.31,209.64 -202.31,209.64l0 429.77c0,0 6.29,63.42 63.42,63.42 57.13,0 72.86,-63.42 72.86,-63.42l0 -147.8zm1.04 -141.51l141.51 0 0 -145.7c0,0 -3.15,-70.76 -70.76,-70.76 -67.61,0 -70.76,70.76 -70.76,70.76l0 145.7z"/>
   <path class="fil3" d="M1450.34 889.67l141.51 0 0 -145.7c0,0 -3.15,-70.76 -70.76,-70.76 -67.61,0 -70.76,70.76 -70.76,70.76l0 145.7z"/>
   <path class="fil3" d="M198.32 825.25l0 -144.65c0,0 140.46,-5.24 140.46,75.47 0,80.71 -140.46,69.18 -140.46,69.18z"/>
  </g>
 </g>
</svg>
