<?xml version="1.0" encoding="UTF-8"?>
<!DOCTYPE svg PUBLIC "-//W3C//DTD SVG 1.1//EN" "http://www.w3.org/Graphics/SVG/1.1/DTD/svg11.dtd">
<!-- Creator: CorelDRAW 2018 (64-Bit) -->
<svg xmlns="http://www.w3.org/2000/svg" xml:space="preserve" width="40mm" height="34.2646mm" version="1.1" style="shape-rendering:geometricPrecision; text-rendering:geometricPrecision; image-rendering:optimizeQuality; fill-rule:evenodd; clip-rule:evenodd"
viewBox="0 0 1454.55 1245.99"
 xmlns:xlink="http://www.w3.org/1999/xlink"
 t="1733464686991"
 p-id="17050">
 <defs>
  <style type="text/css">
   <![CDATA[
    .fil3 {fill:#791514}
    .fil0 {fill:#A42122}
    .fil4 {fill:#AD2524}
    .fil1 {fill:#D82F27}
    .fil2 {fill:white}
   ]]>
  </style>
 </defs>
 <g id="图层_x0020_1">
  <metadata id="CorelCorpID_0Corel-Layer"/>
  <g id="Redis.svg">
   <path class="fil0" d="M1396.59 960.6c-77.28,40.64 -479.68,205.86 -564.96,250.5 -85.28,44.64 -133.24,43.97 -200.53,11.99 -67.29,-31.98 -495.01,-205.2 -572.29,-241.84 -38.64,-18.65 -58.63,-33.98 -58.63,-48.63l0 -147.24c0,0 556.96,-121.25 646.91,-153.23 89.94,-31.98 121.25,-33.31 197.87,-5.33 76.61,27.98 533.64,110.59 609.6,137.91l0 144.57c0,13.32 -17.99,30.64 -57.96,51.3z" p-id="17051"/>
   <path class="fil1" d="M1396.59 813.36c-77.28,40.64 -479.68,205.86 -564.96,250.5 -85.28,44.64 -133.24,43.97 -200.53,11.99 -67.29,-31.98 -495.01,-205.2 -572.29,-241.84 -77.28,-36.64 -78.61,-61.96 -2.67,-91.94 75.95,-29.98 501,-196.53 590.94,-228.52 89.94,-31.98 121.25,-33.31 197.87,-5.33 76.61,27.98 475.68,187.21 551.64,214.52 75.95,27.32 77.95,50.63 0,90.61l0 -0z" p-id="17052"/>
   <path class="fil0" d="M1396.59 720.76c-77.28,40.64 -479.68,205.87 -564.96,250.5 -85.28,44.64 -133.24,43.97 -200.53,11.99 -67.29,-31.98 -495.01,-205.2 -572.29,-241.84 -38.64,-18.66 -58.63,-33.98 -58.63,-48.63l0 -147.24c0,0 556.96,-121.25 646.91,-153.23 89.94,-31.98 121.25,-33.31 197.87,-5.33 76.61,27.98 533.64,110.6 609.6,137.91l0 144.56c0,13.33 -17.99,30.65 -57.96,51.3z" p-id="17053"/>
   <path class="fil1" d="M1396.59 574.19c-77.28,40.64 -479.68,205.87 -564.96,250.5 -85.28,44.64 -133.24,43.97 -200.53,11.99 -67.29,-31.98 -495.01,-205.2 -572.29,-241.84 -77.28,-36.64 -78.61,-61.96 -2.67,-91.94 75.95,-29.98 501,-197.21 590.94,-229.19 89.94,-31.98 121.25,-33.31 197.87,-5.33 76.61,27.98 475.68,187.21 550.97,214.53 75.28,27.32 78.61,50.63 0.67,91.27l0 0z" p-id="17054"/>
   <path class="fil0" d="M1396.59 472.26c-77.28,40.64 -479.68,205.86 -564.96,250.5 -85.28,44.64 -133.24,43.97 -200.53,11.99 -67.29,-31.97 -495.01,-205.2 -572.29,-241.84 -38.64,-18.65 -58.63,-33.98 -58.63,-48.63l0 -147.24c0,0 556.96,-121.25 646.91,-153.23 89.94,-31.98 121.25,-33.31 197.87,-5.33 76.61,27.98 532.98,110.59 608.93,137.91l0 144.57c0,13.32 -17.32,30.64 -57.29,51.3l0 0z" p-id="17055"/>
   <path class="fil1" d="M1396.59 325.69c-77.28,40.64 -479.68,205.86 -564.96,250.5 -85.28,44.64 -133.24,43.97 -200.53,11.99 -67.29,-31.98 -495.01,-205.87 -572.29,-242.51 -77.28,-36.64 -78.61,-61.96 -2.67,-91.94 75.95,-29.98 501,-196.54 590.94,-228.52 89.94,-31.97 121.25,-33.31 197.87,-5.33 76.61,27.98 475.68,187.21 551.64,214.52 75.95,27.32 77.95,50.63 0,91.28l0 -0z" p-id="17056"/>
   <path class="fil2" d="M917.57 183.78l-125.92 13.33 -27.98 67.96 -45.97 -75.95 -145.24 -12.67 108.59 -39.31 -32.64 -59.96 101.27 39.31 95.94 -31.31 -25.99 61.96 97.93 36.64 0 0zm-161.89 329.12l-235.18 -97.27 337.11 -51.97 -101.93 149.24z" p-id="17057"/>
   <path class="fil2" d="M250.01 291.71c0,38.63 80.55,69.95 179.88,69.95 99.33,0 179.88,-31.32 179.88,-69.95 0,-38.63 -80.55,-69.95 -179.88,-69.95 -99.33,0 -179.88,31.32 -179.88,69.95l-0 0z" p-id="17058"/>
   <polygon class="fil3" points="1066.13,202.44 1266,281.05 1066.8,360.33 1066.14,202.44 " p-id="17059"/>
   <polygon class="fil4" points="845.62,289.71 1066.14,202.44 1066.8,360.33 1044.82,368.32 " p-id="17060"/>
  </g>
 </g>
</svg>
