<?xml version="1.0" encoding="UTF-8"?>
<!DOCTYPE svg PUBLIC "-//W3C//DTD SVG 1.1//EN" "http://www.w3.org/Graphics/SVG/1.1/DTD/svg11.dtd">
<!-- Creator: CorelDRAW 2018 (64-Bit) -->
<svg xmlns="http://www.w3.org/2000/svg" xml:space="preserve" width="40mm" height="40mm" version="1.1" style="shape-rendering:geometricPrecision; text-rendering:geometricPrecision; image-rendering:optimizeQuality; fill-rule:evenodd; clip-rule:evenodd"
viewBox="0 0 1777.78 1777.78"
 xmlns:xlink="http://www.w3.org/1999/xlink">
 <defs>
  <style type="text/css">
   <![CDATA[
    .fil0 {fill:#0071FF}
    .fil1 {fill:white}
   ]]>
  </style>
 </defs>
 <g id="图层_x0020_1">
  <metadata id="CorelCorpID_0Corel-Layer"/>
  <g id="rustdesk.svg">
   <path class="fil0" d="M277.77 0l1222.23 0c153.39,0 277.77,124.39 277.77,277.77l0 1222.23c0,153.36 -124.39,277.75 -277.77,277.75l-1222.23 0.02c-153.36,-0.02 -277.75,-124.41 -277.75,-277.8l-0.02 -1222.21c0.02,-153.39 124.41,-277.77 277.8,-277.77z"/>
   <path class="fil1" d="M713.13 1527.8c-137.78,-29.4 -255.52,-106.37 -346.62,-226.62 -92.47,-122.06 -131.97,-262.43 -121.95,-433.36 31.56,-293.98 225.97,-506.08 472.59,-570.83 21.37,-4.68 39.6,-16.42 59.51,-6.26 15.26,7.77 28.58,21.19 34.16,34.37 5.92,14 8.9,102.11 4.71,139.04 -5.1,44.85 -18.37,58.88 -69.06,72.94 -140.91,48.34 -228.05,161.51 -254.57,289.26 -22.76,140.64 13.98,283.15 102.07,373.23 42.5,42.63 84.96,67.51 146.35,85.73 40.99,12.18 63.49,27.3 71.28,47.89 5.15,13.59 7.73,108.96 3.7,136.4 -6.3,42.88 -8.07,46.44 -27.47,55.31 -23.83,10.9 -35.11,11.34 -74.67,2.9l-0.02 0zm240.4 1.36c-14.66,-6.65 -26.9,-22.91 -31.89,-42.37 -0.63,-44.6 -11.21,-122.1 4.83,-158.21 8.9,-19.57 22.05,-28.43 58.94,-39.81 100.83,-31.06 178.22,-94.24 221.9,-181.16 52.66,-104.8 56.32,-261.61 8.57,-369.66 -43.4,-98.25 -121.83,-166.95 -230.2,-201.64 -42.06,-13.46 -56.9,-24.02 -61.48,-43.65 -4.75,-20.43 -6.8,-94.19 -3.72,-133.77 3.23,-41.55 5.92,-47.37 29.2,-63.14 17.56,-11.88 26,-11.59 81.66,2.73 174.07,47.77 312.75,159.27 393.59,316.12 87.68,175.56 90.98,408.23 8.25,581.48 -81.7,171.09 -239.83,296.36 -420.13,332.77 -38.74,7.83 -43,7.85 -59.55,0.33l0.02 0z"/>
  </g>
 </g>
</svg>
