<?xml version="1.0" encoding="UTF-8"?>
<!DOCTYPE svg PUBLIC "-//W3C//DTD SVG 1.1//EN" "http://www.w3.org/Graphics/SVG/1.1/DTD/svg11.dtd">
<!-- Creator: CorelDRAW 2018 (64-Bit) -->
<svg xmlns="http://www.w3.org/2000/svg" xml:space="preserve" width="38.4907mm" height="40mm" version="1.1" style="shape-rendering:geometricPrecision; text-rendering:geometricPrecision; image-rendering:optimizeQuality; fill-rule:evenodd; clip-rule:evenodd"
viewBox="0 0 12872.38 13377.14"
 xmlns:xlink="http://www.w3.org/1999/xlink">
 <defs>
  <style type="text/css">
   <![CDATA[
    .fil1 {fill:black}
    .fil3 {fill:#676867}
    .fil2 {fill:#EC6E62}
    .fil0 {fill:#FFC966}
   ]]>
  </style>
 </defs>
 <g id="图层_x0020_1">
  <metadata id="CorelCorpID_0Corel-Layer"/>
  <g id="_2103790127024">
   <path class="fil0" d="M1211.53 9752.73l4830.92 0 945.16 0 4673.24 0c666.35,0 1211.53,-545.19 1211.53,-1211.53l0 -6557.34c0,0 -90.86,-787.51 -908.64,-787.51 -817.78,0 -5330.65,0 -5330.65,0 0,0 -561.04,76.12 -893.53,-499.74 -332.49,-575.89 -696.61,-696.61 -954.06,-696.61l-3573.97 0c-666.35,0 -1211.53,545.19 -1211.53,1211.53l0 7329.67c0,666.35 545.19,1211.53 1211.53,1211.53z"/>
   <path class="fil1" d="M2582.66 5081.2c0,0 -15.12,-620.9 -802.63,-620.9 -787.48,0 -787.48,424.02 -787.48,560.33 0,136.28 -45.45,681.46 764.77,681.46 0,0 477.03,-37.82 477.03,371.05 0,408.87 -477.03,318.01 -477.03,318.01 0,0 -477.06,79.83 -477.06,-340.72l-287.71 0c0,0 -83.31,681.46 764.77,681.46 848.08,0 832.89,-658.76 832.89,-658.76 0,0 68.19,-636.05 -832.89,-658.76 0,0 -454.32,68.09 -454.32,-393.76 0,0 0,-219.62 477.03,-219.62 477.06,0 454.32,280.18 454.32,280.18l348.31 0z"/>
   <polygon class="fil1" points="4400.07,4535.99 2923.54,4535.99 2923.54,6648.6 3241.58,6648.6 3241.58,5838.38 4271.35,5838.38 4271.35,5505.23 3241.58,5505.23 3241.58,4816.17 4400.07,4816.17 "/>
   <polygon class="fil1" points="6202.24,4816.17 6202.24,4528.43 4574.24,4528.43 4574.24,4816.17 5187.59,4816.17 5187.59,6648.6 5513.19,6648.6 5513.19,4816.17 "/>
   <path class="fil1" d="M7542.4 4528.43l-1052.51 0 0 2120.18 325.6 0 0 -666.38 726.91 0c0,0 530.04,-30.27 530.04,-726.88 0,-696.65 -530.04,-726.91 -530.04,-726.91zm-726.91 287.74l673.91 0c0,0 295.3,0 295.3,405.09 0,405.09 -295.3,405.09 -295.3,405.09l-673.91 0 0 -810.19z"/>
   <path class="fil1" d="M10094.12 5179.63c0,0 0,-696.61 -878.34,-696.61 -878.38,0 -885.93,696.61 -885.93,696.61l0 942.69c0,0 37.89,617.15 885.93,617.15 848.04,0 878.34,-689.06 878.34,-689.06l0 -545.19 -878.34 0 -3.78 333.16 564.11 0 0 283.93c0,0 -15.15,261.26 -560.33,261.26 -545.19,0 -552.74,-261.26 -552.74,-261.26l0 -942.69c0,0 7.56,-408.91 552.74,-408.91 545.19,0 567.89,408.91 567.89,408.91l310.45 0z"/>
   <path class="fil1" d="M11850.8 5906.54c0,-464.19 -334.96,-840.49 -748.22,-840.49 -413.25,0 -748.22,376.3 -748.22,840.49 0,464.19 334.96,840.49 748.22,840.49 413.25,0 748.22,-376.3 748.22,-840.49zm-745.81 -461.91c215.34,0 389.94,211.86 389.94,473.25 0,261.36 -174.61,473.22 -389.94,473.22 -215.37,0 -389.98,-211.86 -389.98,-473.22 0,-261.39 174.61,-473.25 389.98,-473.25z"/>
   <circle class="fil2" cx="6509.32" cy="12127.77" r="1249.37"/>
   <path class="fil3" d="M3596.68 12614.94l1761.8 0c-63.44,-149.69 -98.52,-314.33 -98.52,-487.16 0,-165.07 32.04,-322.69 90.16,-466.93l-1753.44 0c-262.36,0 -477.03,214.67 -477.03,477.06 0,262.36 214.67,477.03 477.03,477.03z"/>
   <path class="fil3" d="M7660.15 12614.94l1676.12 0c262.36,0 477.03,-214.67 477.03,-477.03 0,-262.39 -214.67,-477.06 -477.03,-477.06l-1667.76 0c58.16,144.24 90.2,301.86 90.2,466.93 0,172.83 -35.11,337.47 -98.56,487.16z"/>
   <path class="fil3" d="M6509.31 10878.39c169.42,0 330.98,33.71 478.3,94.81l0 -1220.46 -945.16 0 0 1215.81c144.24,-58.16 301.79,-90.16 466.86,-90.16z"/>
  </g>
 </g>
</svg>
