<?xml version="1.0" encoding="UTF-8"?>
<!DOCTYPE svg PUBLIC "-//W3C//DTD SVG 1.1//EN" "http://www.w3.org/Graphics/SVG/1.1/DTD/svg11.dtd">
<!-- Creator: CorelDRAW 2018 (64-Bit) -->
<svg xmlns="http://www.w3.org/2000/svg" xml:space="preserve" width="40mm" height="37.9667mm" version="1.1" style="shape-rendering:geometricPrecision; text-rendering:geometricPrecision; image-rendering:optimizeQuality; fill-rule:evenodd; clip-rule:evenodd"
viewBox="0 0 16000 15186.68"
 xmlns:xlink="http://www.w3.org/1999/xlink">
 <defs>
  <style type="text/css">
   <![CDATA[
    .fil2 {fill:#4DCAED}
    .fil9 {fill:#94A2C1}
    .fil4 {fill:#B7BDD2}
    .fil6 {fill:#D1D1E0}
    .fil7 {fill:url(#id0)}
    .fil8 {fill:url(#id1)}
    .fil3 {fill:url(#id2)}
    .fil5 {fill:url(#id3)}
    .fil0 {fill:url(#id4)}
    .fil1 {fill:url(#id5)}
   ]]>
  </style>
  <linearGradient id="id0" gradientUnits="userSpaceOnUse" x1="-39773.96" y1="24454.44" x2="-39735.56" y2="24454.44">
   <stop offset="0" style="stop-opacity:1; stop-color:#A7B1CD"/>
   <stop offset="0.458824" style="stop-opacity:1; stop-color:#C8CBDC"/>
   <stop offset="1" style="stop-opacity:1; stop-color:#D1D2E0"/>
  </linearGradient>
  <linearGradient id="id1" gradientUnits="userSpaceOnUse" x1="-43042.28" y1="24552.72" x2="-43001.32" y2="24552.72">
   <stop offset="0" style="stop-opacity:1; stop-color:#B7BDD2"/>
   <stop offset="1" style="stop-opacity:1; stop-color:#607BB6"/>
  </linearGradient>
  <linearGradient id="id2" gradientUnits="userSpaceOnUse" x1="-46763.44" y1="31779.24" x2="-46710.08" y2="31779.24">
   <stop offset="0" style="stop-opacity:1; stop-color:#22B2E7"/>
   <stop offset="1" style="stop-opacity:1; stop-color:#177A9E"/>
  </linearGradient>
  <linearGradient id="id3" gradientUnits="userSpaceOnUse" x1="-43042" y1="24527.72" x2="-43001.08" y2="24527.72">
   <stop offset="0" style="stop-opacity:1; stop-color:#4B69B6"/>
   <stop offset="1" style="stop-opacity:1; stop-color:#435EA5"/>
  </linearGradient>
  <linearGradient id="id4" gradientUnits="userSpaceOnUse" xlink:href="#id3" x1="-46763.52" y1="31779.32" x2="-46710.2" y2="31779.32">
  </linearGradient>
  <linearGradient id="id5" gradientUnits="userSpaceOnUse" x1="-43042.12" y1="24552.64" x2="-43001.16" y2="24552.64">
   <stop offset="0" style="stop-opacity:1; stop-color:#5773BB"/>
   <stop offset="1" style="stop-opacity:1; stop-color:#3A5290"/>
  </linearGradient>
 </defs>
 <g id="图层_x0020_1">
  <metadata id="CorelCorpID_0Corel-Layer"/>
  <g id="teamspeak.svg">
   <g>
    <g>
     <circle class="fil0" cx="3115.65" cy="7995.91" r="3115.66"/>
    </g>
    <g>
     <path class="fil1" d="M3115.64 4880.24c1719.56,0 3115.68,1396.12 3115.68,3115.68 0,1719.56 -1396.12,3115.68 -3115.68,3115.68 -1719.56,0 -3115.64,-1396.12 -3115.64,-3115.68 0,-1719.56 1396.12,-3115.68 3115.64,-3115.68zm0 196.52c1613.12,0 2919.16,1310.16 2919.16,2919.16 0,1609 -1310.16,2919.12 -2919.16,2919.12 -1609,0 -2919.12,-1306.04 -2919.12,-2919.12 0,-1613.12 1306.04,-2919.16 2919.12,-2919.16z"/>
    </g>
    <g>
     <circle class="fil2" cx="3115.65" cy="7995.91" r="2333.68"/>
    </g>
    <g>
     <circle class="fil3" cx="3115.65" cy="7995.91" r="2141.24"/>
    </g>
    <g>
     <circle class="fil4" cx="3115.65" cy="7995.91" r="1604.91"/>
    </g>
    <g>
     <path class="fil5" d="M6841.36 2296.84c85.96,53.2 163.76,110.52 229.28,171.96 827,765.6 1232.32,1518.92 1461.6,2562.92 200.6,925.28 298.88,1371.56 -188.32,1707.28 -655.08,454.44 700.08,2399.2 966.2,2960.08 -348,446.28 -806.52,438.08 -1044,560.92 -135.12,69.6 -77.8,323.44 -57.32,519.96 20.48,192.4 196.52,311.16 102.36,462.64 -86,135.12 -417.6,143.28 -556.8,233.36 139.2,151.48 442.16,302.96 401.2,499.48 -32.72,151.48 -372.56,126.92 -507.68,470.84 -69.56,184.24 -32.72,528.16 -180.12,704.2 -221.08,262.04 -450.36,380.76 -777.88,413.52 -176.08,20.48 -352.12,0 -519.96,-53.24 -544.56,-180.12 -1052.2,-438.08 -1506.68,-757.4 188.36,32.76 388.96,61.4 605.96,85.96 622.28,69.6 933.48,8.2 1232.32,-343.92 126.92,-151.48 98.28,-454.44 159.68,-618.2 114.64,-302.96 417.6,-282.48 446.28,-413.52 36.84,-171.96 -233.36,-307.04 -352.12,-438.08 126.92,-81.88 413.52,-90.08 491.32,-204.72 85.96,-131 -69.6,-237.44 -90.08,-405.32 -20.48,-171.96 -69.6,-397.12 49.12,-458.52 212.88,-110.56 614.12,-102.36 921.2,-495.4 -233.36,-495.4 -1424.76,-2202.68 -847.48,-2603.88 425.76,-294.8 339.8,-687.84 163.76,-1502.6 -200.64,-921.16 -560.92,-1580.32 -1285.56,-2255.88 -155.6,-143.28 -388.96,-266.12 -646.88,-356.16 417.6,-196.56 867.96,-348.04 1330.6,-446.28z"/>
    </g>
    <g>
     <path class="fil6" d="M8159.68 2186.28c122.84,4.08 245.64,12.28 372.56,20.48 3197.56,290.68 5555.8,3119.76 5265.12,6317.28 -266.12,2947.84 -2698.08,5183.24 -5580.36,5285.6 40.96,-32.76 81.88,-65.52 118.72,-106.44 245.64,-253.84 294.8,-556.84 335.72,-872.08 20.48,-159.68 139.2,-167.84 241.56,-229.28 438.08,-253.84 253.84,-839.28 253.84,-839.28 126.92,-98.28 221.08,-241.56 249.76,-401.24 40.92,-221.08 -110.56,-413.52 -143.32,-667.36 61.44,-16.36 122.84,-36.84 184.24,-53.2 495.4,-163.76 1170.92,-556.8 917.12,-1089.04 -282.52,-589.56 -679.64,-1146.4 -937.6,-1760.52 -102.32,-241.56 -216.96,-483.12 -176.04,-704.2 483.12,-348 581.36,-908.88 511.76,-1420.68 -192.4,-1346.96 -708.28,-2567.04 -1613.08,-3480.04z"/>
    </g>
    <g>
     <path class="fil7" d="M9498.48 3041.96c781.96,294.8 1498.44,741.04 2075.72,1338.8 1101.36,1138.16 1756.4,2792.24 1437.08,4335.72 -298.88,1461.64 -1568.08,2677.6 -2407.4,3050.16 -401.2,180.16 -728.76,151.48 -724.64,102.36 4.08,-49.12 53.2,-151.48 302.96,-454.44 900.72,-1084.96 1432.96,-2673.52 638.68,-3909.96 -159.68,-249.72 -356.2,-462.64 -577.28,-642.76 180.16,-335.72 208.8,-728.76 159.68,-1101.36 -131,-990.76 -429.88,-1911.96 -904.8,-2718.52z"/>
    </g>
    <g>
     <path class="fil8" d="M7864.88 4.08c-2829.04,1543.52 -4749.24,4544.52 -4749.24,7991.84 0,544.52 49.16,1080.84 139.2,1600.8 -45,4.12 -94.16,8.2 -139.2,8.2 -884.32,0 -1604.88,-720.56 -1604.88,-1604.92 0,-2661.2 974.4,-5101.32 2587.48,-6972.36 1117.72,-634.6 2399.2,-1003.08 3766.64,-1023.56z"/>
    </g>
    <g>
     <path class="fil9" d="M4094.16 1019.44c1154.56,-650.96 2489.28,-1019.44 3905.84,-1019.44 4413.52,0 7995.92,3582.4 7995.92,7995.92 0,4274.32 -3881.28,8212.88 -9649.96,6951.88l-12.28 -12.28c3451.36,368.48 5997.96,-1039.92 7373.6,-3095.2l8.16 -12.28c736.96,-1097.24 1166.84,-2415.56 1166.84,-3836.24l0 0c0,-3799.36 -3087,-6882.28 -6886.36,-6882.28 -2489.28,0 -4667.36,1322.4 -5879.24,3304 454.44,-1252.84 1125.88,-2403.28 1977.48,-3394.08z"/>
    </g>
    <g>
     <path class="fil4" d="M8004.08 0c4413.52,0 7995.92,3582.4 7995.92,7995.92 0,1711.36 -622.28,3373.6 -1740,4663.24 974.4,-1301.92 1547.6,-2915.04 1547.6,-4663.24 -4.12,-4307.08 -3496.44,-7799.4 -7803.52,-7799.4 -1576.24,0 -3046.04,466.72 -4270.2,1273.28 118.72,-151.48 237.48,-302.96 364.4,-446.28 487.2,-274.28 1007.16,-499.48 1547.6,-667.32l4.08 0 57.32 -16.4 0 0 61.4 -16.36 61.44 -16.4 0 0 57.32 -16.36 4.08 0 57.32 -16.36c20.48,-4.12 40.96,-12.28 61.4,-16.4l57.32 -16.36 8.2 -4.08 53.24 -12.32 8.2 0 61.4 -12.28 61.4 -12.28 8.2 0 49.12 -12.28 12.28 -4.08 53.24 -12.28 4.08 0 61.44 -12.28 4.08 0 53.24 -12.32 12.28 -4.08 49.12 -8.2 12.28 -4.08 57.32 -12.28 57.32 -8.2 12.28 -4.08 45.04 -8.2 16.4 -4.08 49.12 -8.2 8.2 0 61.4 -8.2 8.2 0 53.16 -8.16 16.36 -4.08 45.04 -4.12 16.4 0 57.32 -8.2 57.32 -8.16 16.36 0 45.04 -4.12 20.48 0 45.04 -4.08 12.28 0 57.32 -4.08 12.28 0 45.04 -4.12 20.48 0 40.92 -4.08 16.4 0 61.4 -4.08 61.44 -4.08 16.36 0 40.96 0 20.44 0 45.04 0 12.28 0 61.44 0 12.28 0 45.04 0 20.44 0 40.96 0 20.48 0 73.64 -16.4z"/>
    </g>
   </g>
  </g>
 </g>
</svg>
