<?xml version="1.0" encoding="UTF-8"?>
<!DOCTYPE svg PUBLIC "-//W3C//DTD SVG 1.1//EN" "http://www.w3.org/Graphics/SVG/1.1/DTD/svg11.dtd">
<!-- Creator: CorelDRAW 2018 (64-Bit) -->
<svg xmlns="http://www.w3.org/2000/svg" xml:space="preserve" width="34.6676mm" height="40mm" version="1.1" style="shape-rendering:geometricPrecision; text-rendering:geometricPrecision; image-rendering:optimizeQuality; fill-rule:evenodd; clip-rule:evenodd"
viewBox="0 0 650.81 750.92"
 xmlns:xlink="http://www.w3.org/1999/xlink">
 <defs>
  <style type="text/css">
   <![CDATA[
    .fil0 {fill:black}
   ]]>
  </style>
 </defs>
 <g id="图层_x0020_1">
  <metadata id="CorelCorpID_0Corel-Layer"/>
  <path id="tiktok" class="fil0" d="M569.77 160.6c-5.05,-2.6 -10.02,-5.52 -14.78,-8.61 -13.88,-9.15 -26.67,-20.04 -37.96,-32.24 -28.32,-32.4 -38.89,-65.26 -42.79,-88.27l0.15 -0.01c-3.25,-19.1 -1.91,-31.46 -1.7,-31.46l-128.96 0 0 498.68c0,6.69 0,13.31 -0.28,19.85 0,0.81 -0.08,1.56 -0.13,2.44 0,0.36 0,0.74 -0.08,1.11 0,0.09 0,0.19 0,0.28 -2.76,36.33 -23.43,68.92 -55.1,86.92 -16.22,9.22 -34.56,14.08 -53.22,14.08 -0.04,0 -0.11,0 -0.14,0 -60.09,0 -108.78,-49 -108.78,-109.5 0,-60.51 48.7,-109.5 108.78,-109.5 0.02,0 0.08,0 0.1,0 11.33,0 22.63,1.8 33.4,5.3l0.16 -131.31c-10.16,-1.3 -20.46,-1.97 -30.69,-1.97 -56.27,0 -110.79,19.83 -153.9,55.98 -22.18,19.28 -40.94,42.39 -55.21,68.1 -5.44,9.39 -25.98,47.1 -28.47,108.31 -1.56,34.74 8.87,70.74 13.85,85.62l0 0.31c3.13,8.76 15.25,38.66 35.01,63.86 15.9,20.18 34.77,37.97 55.86,52.68l0 -0.31 0.31 0.31c62.42,42.43 131.65,39.65 131.65,39.65 11.98,-0.49 52.12,0 97.71,-21.6 50.56,-23.95 79.34,-59.63 79.34,-59.63 18.38,-21.3 33.03,-45.66 43.22,-71.86 11.67,-30.68 15.56,-67.47 15.56,-82.17l0.01 -264.54c1.56,0.94 22.4,14.72 22.4,14.72 0,0 30.02,19.24 76.85,31.77 33.6,8.92 78.87,10.79 78.87,10.79l0 -128.02c-15.86,1.72 -48.07,-3.29 -81.05,-19.73z"/>
 </g>
</svg>
