<?xml version="1.0" encoding="UTF-8"?>
<!DOCTYPE svg PUBLIC "-//W3C//DTD SVG 1.1//EN" "http://www.w3.org/Graphics/SVG/1.1/DTD/svg11.dtd">
<!-- Creator: CorelDRAW 2018 (64-Bit) -->
<svg xmlns="http://www.w3.org/2000/svg" xml:space="preserve" width="40mm" height="9.3942mm" version="1.1" style="shape-rendering:geometricPrecision; text-rendering:geometricPrecision; image-rendering:optimizeQuality; fill-rule:evenodd; clip-rule:evenodd"
viewBox="0 0 16000 3757.68"
 xmlns:xlink="http://www.w3.org/1999/xlink">
 <defs>
  <style type="text/css">
   <![CDATA[
    .fil1 {fill:#007AFF}
    .fil2 {fill:#4D4D4D}
    .fil0 {fill:#999999}
   ]]>
  </style>
 </defs>
 <g id="图层_x0020_1">
  <metadata id="CorelCorpID_0Corel-Layer"/>
  <g id="_2103785024048">
   <polygon class="fil0" points="5969.04,1050.92 5969.04,3757.68 6773.24,2866.12 6773.24,1050.92 "/>
   <polygon class="fil1" points="7035.8,0 7035.8,3757.68 7394.04,3757.68 7394.04,1050.92 7903.6,1050.92 7903.6,0 "/>
   <polygon class="fil2" points="7903.6,3248.16 8337.36,2814.36 9280.68,3757.68 10100.84,2937.52 9157.56,1994.2 10100.84,1050.92 7903.6,1050.92 7394.04,1050.92 7394.04,3757.68 "/>
   <path class="fil0" d="M10339.64 1050.92l0 2706.76 2706.8 0 0 -2706.76 -2706.8 0zm883.68 907.56l955.32 0 0 955.36 -955.32 0 0 -955.36z"/>
   <path class="fil0" d="M13293.2 1050.92l0 2706.76 2706.8 0 0 -2706.76 -2706.8 0zm875.72 907.56l955.36 0 0 955.36 -955.36 0 0 -955.36z"/>
   <polygon class="fil0" points="4790.88,1050.92 4790.88,2897.88 3843.48,1950.44 2959.76,2834.16 2959.76,1050.92 2052.24,1050.92 2052.24,3757.68 2959.76,3757.68 3843.48,2874 4727.16,3757.68 5666.56,2818.28 5666.56,1050.92 "/>
   <polygon class="fil0" points="5977.12,0 5977.12,796.12 6773.24,796.12 6773.24,0 "/>
   <polygon class="fil0" points="-0,143.32 -0,3757.68 905.8,3757.68 1797.44,2866.04 898.72,2866.04 898.72,1990.32 1797.44,1990.32 1797.44,1035 889.88,1035 889.88,143.32 "/>
  </g>
 </g>
</svg>
