<?xml version="1.0" encoding="UTF-8"?>
<!DOCTYPE svg PUBLIC "-//W3C//DTD SVG 1.1//EN" "http://www.w3.org/Graphics/SVG/1.1/DTD/svg11.dtd">
<!-- Creator: CorelDRAW 2018 (64-Bit) -->
<svg xmlns="http://www.w3.org/2000/svg" xml:space="preserve" width="40mm" height="40mm" version="1.1" style="shape-rendering:geometricPrecision; text-rendering:geometricPrecision; image-rendering:optimizeQuality; fill-rule:evenodd; clip-rule:evenodd"
viewBox="0 0 1454.55 1454.55"
 xmlns:xlink="http://www.w3.org/1999/xlink">
 <defs>
  <style type="text/css">
   <![CDATA[
    .fil4 {fill:black}
    .fil0 {fill:#003343}
    .fil2 {fill:#406070}
    .fil3 {fill:#ACBFC7}
    .fil1 {fill:white}
   ]]>
  </style>
 </defs>
 <g id="图层_x0020_1">
  <metadata id="CorelCorpID_0Corel-Layer"/>
  <g id="_2045470264496">
   <path class="fil0" d="M727.27 0c401.66,0 727.27,325.61 727.27,727.27 0,401.66 -325.61,727.27 -727.27,727.27 -401.66,0 -727.27,-325.61 -727.27,-727.27 0,-401.66 325.61,-727.27 727.27,-727.27zm3.4 1232l-319.89 0 -13.47 109.3 333.36 0 333.36 0 -13.47 -109.3 -319.89 0zm-62.45 -347.06l62.45 0 62.45 0 0 -59.05 0 -105.67 0 -27.97 -62.45 0 -62.45 0 0 27.97 0 105.67 0 59.05zm373.25 -277.41l-310.8 -151.25 -310.8 151.25 18.65 0 292.15 0 292.15 0 18.65 0zm-612.28 468.28l301.48 0 301.48 0 164.2 -91.17 -26.93 0 0 -63.2 -146.6 0 -292.15 0 -292.15 0 -146.6 0 0 63.2 -26.93 0 164.2 91.17zm593.64 -89.1l-198.91 0 0 -54.91 198.91 0 0 54.91zm10.36 0l0 -54.91 126.91 0 0 54.91 -126.91 0zm-395.75 0l-198.91 0 0 -54.91 198.91 0 0 54.91zm-209.27 -54.91l0 54.91 -126.91 0 0 -54.91 126.91 0zm302.51 54.91l-82.88 0 0 -54.91 82.88 0 82.88 0 0 54.91 -82.88 0zm-3.4 -975.64c395.55,0 716.2,320.65 716.2,716.2 0,395.55 -320.65,716.2 -716.2,716.2 -395.55,0 -716.2,-320.65 -716.2,-716.2 0,-395.55 320.65,-716.2 716.2,-716.2z"/>
   <path class="fil1" d="M730.67 618.92l-292.15 0 0 38.94 0 218.23 0 45.35 292.15 0 292.15 0 0 -45.35 0 -218.23 0 -38.94 -292.15 0zm300.97 467.77l-300.97 0 -300.97 0 -18.92 135.2 319.89 0 319.89 0 -18.92 -135.2zm-300.97 264.44l-333.36 0 -1.72 11.07c99.16,51.91 211.99,81.27 331.68,81.27 122.22,0 237.29,-30.61 337.96,-84.6l-1.21 -7.74 -333.36 0zm93.24 -419.33l0 54.91 198.91 0 0 -54.91 -198.91 0zm-176.12 0l0 54.91 82.88 0 82.88 0 0 -54.91 -82.88 0 -82.88 0zm-209.27 54.91l198.91 0 0 -54.91 -198.91 0 0 54.91zm21.76 -322.94l0 -26.19 156.44 0 0 68.65 0 130.91 0 63.57 -156.44 0 0 -29.37 0 -207.57zm179.23 48.65l0 -74.84 91.17 0 91.17 0 0 74.84 0 119.75 0 52.77 0 15.78 -91.17 0 -91.17 0 0 -15.78 0 -52.77 0 -119.75zm205.13 -6.19l0 -68.65 156.44 0 0 26.19 0 207.57 0 29.37 -156.44 0 0 -63.57 0 -130.91z"/>
   <path class="fil2" d="M844.63 706.23l156.44 -42.46 0 -26.19 -156.44 0 0 68.65zm576.66 -156.52c-78.99,-309.66 -359.76,-538.64 -694.02,-538.64 -333.63,0 -613.99,228.13 -693.57,536.91l404.82 109.88 0 -38.94 0 -11.4 -18.65 0 310.8 -151.25 310.8 151.25 -18.65 0 0 11.4 0 38.94 398.47 -108.15zm-992.1 526.1l-164.2 -91.17 26.93 0 0 -63.2 146.6 0 0 -45.35 -388.44 84.91c59.93,173.65 184.76,317.05 345.51,401.2l1.72 -11.07 0 -9.84 13.47 -109.3 0 -10.1 18.92 -135.2 300.97 0 300.97 0 18.92 135.2 0 10.1 13.47 109.3 0 9.84 1.21 7.74c158.14,-84.8 280.74,-227.25 339.71,-399.25l-382.12 -83.53 0 45.35 146.6 0 0 63.2 26.93 0 -164.2 91.17 -301.48 0 -301.48 0zm-127.94 -89.1l126.91 0 0 -54.91 -126.91 0 0 54.91zm731.93 -54.91l0 54.91 126.91 0 0 -54.91 -126.91 0zm-32.12 -60.46l-156.44 -34.2 0 63.57 156.44 0 0 -29.37zm-207.95 -45.46l0 59.05 28.72 0 0 -52.77 -28.72 -6.28zm-124.89 59.05l0 -59.05 -28.72 6.28 0 52.77 28.72 0zm-51.51 -47.79l-156.44 34.2 0 29.37 156.44 0 0 -63.57zm0 -130.91l0 -68.65 -156.44 0 0 26.19 156.44 42.46zm51.51 -13.99l62.45 0 62.45 0 0 27.97 28.72 -7.8 0 -74.84 -91.17 0 -91.17 0 0 74.84 28.72 7.8 0 -27.97z"/>
   <path class="fil3" d="M1022.83 657.86l0 218.23 382.12 83.53c24.97,-72.86 38.53,-151.03 38.53,-232.35 0,-61.29 -7.7,-120.79 -22.18,-177.56l-398.47 108.15zm-584.31 218.23l0 -218.23 -404.82 -109.88c-14.77,57.3 -22.63,117.38 -22.63,179.29 0,81.84 13.73,160.48 39.01,233.73l388.44 -84.91zm178.19 -169.87l-156.44 -42.46 0 207.57 156.44 -34.2 0 -130.91zm22.79 6.19l0 119.75 28.72 -6.28 0 -105.67 -28.72 -7.8zm153.61 7.8l0 105.67 28.72 6.28 0 -119.75 -28.72 7.8zm207.95 -56.44l-156.44 42.46 0 130.91 156.44 34.2 0 -207.57z"/>
   <path class="fil4" d="M730.67 1341.29l-333.36 0 0 9.84 333.36 0 333.36 0 0 -9.84 -333.36 0zm300.97 -254.6l0 -10.88 -300.97 0 -300.97 0 0 10.88 300.97 0 300.97 0zm-300.97 -201.76l-62.45 0 -28.72 0 0 15.78 91.17 0 91.17 0 0 -15.78 -28.72 0 -62.45 0zm0 -277.41l-292.15 0 0 11.4 292.15 0 292.15 0 0 -11.4 -292.15 0zm0 614.37l-319.89 0 0 10.1 319.89 0 319.89 0 0 -10.1 -319.89 0z"/>
  </g>
 </g>
</svg>
