<?xml version="1.0" encoding="UTF-8"?>
<!DOCTYPE svg PUBLIC "-//W3C//DTD SVG 1.1//EN" "http://www.w3.org/Graphics/SVG/1.1/DTD/svg11.dtd">
<!-- Creator: CorelDRAW 2018 (64-Bit) -->
<svg xmlns="http://www.w3.org/2000/svg" xml:space="preserve" width="40mm" height="40mm" version="1.1" style="shape-rendering:geometricPrecision; text-rendering:geometricPrecision; image-rendering:optimizeQuality; fill-rule:evenodd; clip-rule:evenodd"
viewBox="0 0 1454.55 1454.55"
 xmlns:xlink="http://www.w3.org/1999/xlink">
 <defs>
  <style type="text/css">
   <![CDATA[
    .fil1 {fill:black}
    .fil0 {fill:#FEB355}
   ]]>
  </style>
 </defs>
 <g id="图层_x0020_1">
  <metadata id="CorelCorpID_0Corel-Layer"/>
  <g id="_2080387466960">
   <polygon class="fil0" points="-0,0 1454.55,0 1454.55,1454.55 -0,1454.55 "/>
   <path class="fil1" d="M1292.93 177.78l0 48.48 -541.41 0 0.01 113.86c207.39,12.54 371.7,184.69 371.7,395.23 0,210.54 -164.32,382.71 -371.7,395.23l-0.01 178.51 -48.49 0 0 -178.51c-207.39,-12.52 -371.72,-184.69 -371.72,-395.23 0,-210.54 164.33,-382.71 371.72,-395.23l0 -113.86 -541.41 0 0 -48.48 1131.32 0zm-913.13 557.57c0,183.76 142.64,334.21 323.23,346.65l0 -693.32c-180.59,12.44 -323.23,162.89 -323.23,346.65l0 0.01zm371.72 -346.63l0 693.27c180.6,-12.45 323.23,-162.88 323.23,-346.64 0,-183.76 -142.63,-334.19 -323.23,-346.63l0 0z"/>
  </g>
 </g>
</svg>
